<svg width="38" height="17" viewBox="0 0 38 17" fill="none" xmlns="http://www.w3.org/2000/svg">
<path fill-rule="evenodd" clip-rule="evenodd" d="M4.20741 6.57489C3.32867 5.74562 1.99961 5.69015 1.06076 6.38405C0.951443 6.46211 0.847092 6.5502 0.74897 6.64832C-0.21109 7.60838 -0.210922 9.16511 0.74934 10.1254C1.63332 11.0093 3.02275 11.0797 3.98689 10.3364C4.10005 10.252 4.20749 10.1567 4.30771 10.0505C4.49916 9.84763 4.64939 9.62078 4.75869 9.38029L5.20906 9.38034L5.7766 9.94787L7.26619 9.59336C8.85543 10.0825 12.8673 9.83456 14.1283 9.75663L14.1285 9.75662C14.3308 9.74412 14.4623 9.73599 14.5015 9.736L14.5033 9.73599L15.6394 10.2411C15.6388 10.2614 15.6378 10.2822 15.6366 10.3036C15.5898 11.1007 16.1319 12.4247 16.5458 13.4356C16.7581 13.9541 16.9366 14.3903 16.9848 14.6307C17.0983 15.1982 16.9849 15.7657 16.914 15.9785C17.6517 16.1488 18.5454 15.3875 18.9 14.9856C19.7512 14.8155 20.6733 14.0637 21.0279 13.709C20.5077 13.6144 19.3113 13.3258 18.687 12.9285C18.2101 12.6249 18.1444 11.9156 18.1926 11.3763L18.2303 11.3931L18.2294 11.097C18.2393 11.0409 18.2501 10.989 18.2612 10.9423L18.2289 10.9059L18.2255 9.74434L34.7249 9.62348L38 8.26715L34.7414 6.94623L18.2172 6.90885L18.2127 5.35234C18.0802 4.85944 17.9683 3.76983 18.5808 3.35463C19.1933 2.93942 20.3809 2.61631 20.8982 2.50665C20.5334 2.16243 19.59 1.43763 18.7342 1.2922C18.3681 0.900707 17.4527 0.16563 16.7202 0.357238C16.7973 0.567893 16.9271 1.13184 16.83 1.70237C16.7889 1.94415 16.623 2.38528 16.4258 2.9097C16.0413 3.93221 15.5378 5.27136 15.6076 6.06675C15.6901 7.00552 15.136 6.83983 14.7537 6.72551C14.646 6.69329 14.5519 6.66516 14.4895 6.66697C14.4503 6.66811 14.3186 6.66379 14.116 6.65715L14.1159 6.65715C12.8531 6.61575 8.83575 6.48406 7.26133 7.01902L5.7621 6.70778L5.21124 7.29151L4.74008 7.30521C4.61301 7.03829 4.43532 6.78997 4.20741 6.57489ZM3.50693 9.40621C4.06973 8.84341 4.06963 7.93085 3.50672 7.36794C3.00226 6.86348 2.21701 6.81102 1.65432 7.21059C1.58996 7.25904 1.52881 7.31356 1.47166 7.37412C0.925278 7.95309 0.951603 8.86528 1.53045 9.41154C2.04306 9.89529 2.81708 9.92986 3.36697 9.52934C3.41558 9.49183 3.46236 9.45078 3.50693 9.40621Z" fill="#242246"/>
</svg>
