<svg width="40" height="17" viewBox="0 0 40 17" fill="none" xmlns="http://www.w3.org/2000/svg">
<path fill-rule="evenodd" clip-rule="evenodd" d="M34.7926 6.57488C35.6713 5.74561 37.0004 5.69014 37.9392 6.38404C38.0485 6.4621 38.1529 6.55019 38.251 6.64831C39.2111 7.60837 39.2109 9.1651 38.2507 10.1254C37.3667 11.0093 35.9772 11.0797 35.0131 10.3364C34.8999 10.252 34.7925 10.1567 34.6923 10.0505C34.5008 9.84762 34.3506 9.62077 34.2413 9.38028L33.7909 9.38033L33.2234 9.94786L31.7338 9.59335C30.1446 10.0825 26.1327 9.83455 24.8717 9.75662L24.8715 9.75661C24.6692 9.74411 24.5377 9.73598 24.4985 9.73599L24.4967 9.73598L23.3606 10.2411C23.3612 10.2614 23.3622 10.2822 23.3634 10.3036C23.4102 11.1007 22.8681 12.4247 22.4542 13.4356C22.2419 13.9541 22.0633 14.3903 22.0152 14.6307C21.9017 15.1982 22.0151 15.7657 22.086 15.9785C21.3483 16.1488 20.4546 15.3875 20.1 14.9856C19.2488 14.8155 18.3267 14.0637 17.972 13.709C18.4922 13.6144 19.6887 13.3258 20.313 12.9285C20.7899 12.6249 20.8556 11.9156 20.8074 11.3763L20.7697 11.3931L20.7706 11.0971C20.7607 11.0409 20.7499 10.989 20.7388 10.9423L20.7711 10.9059L20.7745 9.74434L4.27508 9.62348L1 8.26715L4.25855 6.94623L20.7828 6.90885L20.7873 5.35233C20.9198 4.85943 21.0317 3.76983 20.4192 3.35462C19.8067 2.93941 18.6191 2.6163 18.1018 2.50664C18.4666 2.16242 19.4101 1.43762 20.2658 1.29219C20.6319 0.900697 21.5473 0.165621 22.2798 0.357229C22.2027 0.567882 22.0729 1.13183 22.17 1.70237C22.2111 1.94414 22.377 2.38527 22.5742 2.90968C22.9587 3.9322 23.4622 5.27135 23.3924 6.06674C23.3099 7.00551 23.864 6.83982 24.2463 6.7255C24.354 6.69328 24.4481 6.66515 24.5105 6.66696C24.5497 6.6681 24.6814 6.66378 24.8841 6.65714L24.8841 6.65714C26.1469 6.61575 30.1643 6.48405 31.7387 7.01901L33.2379 6.70777L33.7888 7.2915L34.2599 7.3052C34.387 7.03828 34.5647 6.78996 34.7926 6.57488ZM35.493 9.4062C34.9302 8.8434 34.9303 7.93084 35.4933 7.36793C35.9978 6.86339 36.7832 6.81099 37.3459 7.21079C37.4102 7.25919 37.4713 7.31363 37.5283 7.37411C38.0747 7.95308 38.0484 8.86527 37.4695 9.41153C36.9568 9.89537 36.1826 9.92986 35.6327 9.52912C35.5842 9.49166 35.5375 9.45069 35.493 9.4062Z" fill="#EDD396"/>
<path d="M37.9392 6.38404L37.7906 6.58511L37.7939 6.58749L37.9392 6.38404ZM34.7926 6.57488L34.621 6.39306L34.621 6.39306L34.7926 6.57488ZM38.251 6.64831L38.0742 6.82508L38.0742 6.82509L38.251 6.64831ZM38.2507 10.1254L38.4274 10.3021L38.4274 10.3021L38.2507 10.1254ZM35.0131 10.3364L35.1658 10.1383L35.1625 10.1359L35.0131 10.3364ZM34.6923 10.0505L34.5105 10.2221L34.5105 10.2221L34.6923 10.0505ZM34.2413 9.38028L34.4689 9.27683L34.4023 9.13026L34.2413 9.13028L34.2413 9.38028ZM33.7909 9.38033L33.7909 9.13033L33.6874 9.13034L33.6141 9.20355L33.7909 9.38033ZM33.2234 9.94786L33.1655 10.1911L33.3014 10.2234L33.4002 10.1246L33.2234 9.94786ZM31.7338 9.59335L31.7917 9.35014L31.7254 9.33436L31.6603 9.35441L31.7338 9.59335ZM24.8717 9.75662L24.8871 9.50709L24.8859 9.50703L24.8717 9.75662ZM24.8715 9.75661L24.8561 10.0061L24.8573 10.0062L24.8715 9.75661ZM24.4985 9.73599L24.4974 9.98599L24.4985 9.98599L24.4985 9.73599ZM24.4967 9.73598L24.4977 9.48598L24.4441 9.48575L24.3951 9.50754L24.4967 9.73598ZM23.3606 10.2411L23.259 10.0127L23.1054 10.081L23.1107 10.249L23.3606 10.2411ZM23.3634 10.3036L23.613 10.2889L23.613 10.2889L23.3634 10.3036ZM22.4542 13.4356L22.2229 13.3409L22.2229 13.3409L22.4542 13.4356ZM22.0152 14.6307L21.7701 14.5817L21.7701 14.5817L22.0152 14.6307ZM22.086 15.9785L22.1423 16.2221L22.4101 16.1602L22.3232 15.8995L22.086 15.9785ZM20.1 14.9856L20.2874 14.8202L20.2316 14.757L20.149 14.7405L20.1 14.9856ZM17.972 13.709L17.9273 13.4631L17.4579 13.5484L17.7953 13.8858L17.972 13.709ZM20.313 12.9285L20.4472 13.1394L20.4472 13.1394L20.313 12.9285ZM20.8074 11.3763L21.0564 11.3541L21.0252 11.0059L20.7058 11.1479L20.8074 11.3763ZM20.7697 11.3931L20.5197 11.3924L20.5186 11.7783L20.8713 11.6215L20.7697 11.3931ZM20.7706 11.0971L21.0206 11.0978L21.0206 11.0756L21.0168 11.0538L20.7706 11.0971ZM20.7388 10.9423L20.5519 10.7762L20.4654 10.8735L20.4956 11.0002L20.7388 10.9423ZM20.7711 10.9059L20.958 11.072L21.0209 11.0013L21.0211 10.9066L20.7711 10.9059ZM20.7745 9.74434L21.0245 9.74507L21.0252 9.49617L20.7763 9.49435L20.7745 9.74434ZM4.27508 9.62348L4.17942 9.85446L4.22448 9.87312L4.27325 9.87347L4.27508 9.62348ZM1 8.26715L0.906081 8.03546L0.34064 8.26468L0.904344 8.49813L1 8.26715ZM4.25855 6.94623L4.25799 6.69623L4.20954 6.69634L4.16463 6.71454L4.25855 6.94623ZM20.7828 6.90885L20.7834 7.15885L21.0321 7.15828L21.0328 6.90958L20.7828 6.90885ZM20.7873 5.35233L20.5459 5.28743L20.5374 5.31895L20.5373 5.3516L20.7873 5.35233ZM20.4192 3.35462L20.5595 3.14768L20.5595 3.14768L20.4192 3.35462ZM18.1018 2.50664L17.9303 2.32482L17.5833 2.65227L18.05 2.75121L18.1018 2.50664ZM20.2658 1.29219L20.3077 1.53865L20.3908 1.52453L20.4484 1.46295L20.2658 1.29219ZM22.2798 0.357229L22.5146 0.4431L22.609 0.184933L22.3431 0.115367L22.2798 0.357229ZM22.17 1.70237L21.9236 1.7443L21.9236 1.7443L22.17 1.70237ZM22.5742 2.90968L22.3402 2.99767L22.3402 2.99767L22.5742 2.90968ZM23.3924 6.06674L23.6414 6.08861L23.6414 6.08861L23.3924 6.06674ZM24.2463 6.7255L24.3179 6.96502L24.3179 6.96502L24.2463 6.7255ZM24.5105 6.66696L24.5032 6.91685L24.5032 6.91685L24.5105 6.66696ZM24.8841 6.65714L24.8768 6.40724L24.8759 6.40727L24.8841 6.65714ZM24.8841 6.65714L24.8914 6.90703L24.8923 6.907L24.8841 6.65714ZM31.7387 7.01901L31.6582 7.25572L31.7228 7.27764L31.7895 7.26379L31.7387 7.01901ZM33.2379 6.70777L33.4197 6.53619L33.3239 6.4346L33.1871 6.46299L33.2379 6.70777ZM33.7888 7.2915L33.6069 7.46309L33.678 7.53839L33.7815 7.5414L33.7888 7.2915ZM34.2599 7.3052L34.2526 7.55509L34.4156 7.55983L34.4856 7.41266L34.2599 7.3052ZM35.4933 7.36793L35.67 7.5447L35.67 7.5447L35.4933 7.36793ZM35.493 9.4062L35.3163 9.58298L35.3163 9.58298L35.493 9.4062ZM37.3459 7.21079L37.4964 7.01102L37.4907 7.00699L37.3459 7.21079ZM37.5283 7.37411L37.3465 7.54569L37.3465 7.54569L37.5283 7.37411ZM37.4695 9.41153L37.298 9.22971L37.298 9.22971L37.4695 9.41153ZM35.6327 9.52912L35.4799 9.72709L35.4855 9.73116L35.6327 9.52912ZM38.0878 6.18299C37.0534 5.41846 35.5893 5.47925 34.621 6.39306L34.9642 6.7567C35.7533 6.01197 36.9473 5.96181 37.7906 6.58509L38.0878 6.18299ZM38.4278 6.47153C38.3199 6.36363 38.205 6.26662 38.0845 6.18059L37.7939 6.58749C37.8921 6.65757 37.9859 6.73675 38.0742 6.82508L38.4278 6.47153ZM38.4274 10.3021C39.4853 9.24428 39.4855 7.52926 38.4278 6.47153L38.0742 6.82509C38.9366 7.68748 38.9365 9.08592 38.0739 9.94858L38.4274 10.3021ZM34.8605 10.5343C35.9229 11.3535 37.4535 11.2761 38.4274 10.3021L38.0739 9.94858C37.2799 10.7426 36.0316 10.8059 35.1658 10.1384L34.8605 10.5343ZM34.5105 10.2221C34.6207 10.3389 34.739 10.4438 34.8637 10.5368L35.1625 10.1359C35.0609 10.0602 34.9643 9.97452 34.8741 9.8789L34.5105 10.2221ZM34.0137 9.48373C34.1343 9.74897 34.2999 9.99891 34.5105 10.2221L34.8741 9.8789C34.7018 9.69634 34.567 9.49258 34.4689 9.27683L34.0137 9.48373ZM33.791 9.63033L34.2413 9.63028L34.2413 9.13028L33.7909 9.13033L33.791 9.63033ZM33.4002 10.1246L33.9677 9.5571L33.6141 9.20355L33.0466 9.77109L33.4002 10.1246ZM31.6759 9.83656L33.1655 10.1911L33.2813 9.70466L31.7917 9.35014L31.6759 9.83656ZM24.8562 10.0061C25.4868 10.0451 26.811 10.127 28.1777 10.1376C29.5316 10.1482 30.9702 10.09 31.8073 9.83229L31.6603 9.35441C30.9082 9.58589 29.5462 9.64827 28.1816 9.63765C26.8298 9.62712 25.5176 9.54606 24.8871 9.5071L24.8562 10.0061ZM24.8573 10.0062L24.8574 10.0062L24.8859 9.50703L24.8858 9.50702L24.8573 10.0062ZM24.4985 9.98599C24.5275 9.98598 24.6465 9.99318 24.8561 10.0061L24.887 9.50709C24.6918 9.49503 24.5478 9.48598 24.4984 9.48599L24.4985 9.98599ZM24.4956 9.98598L24.4974 9.98598L24.4995 9.48599L24.4977 9.48598L24.4956 9.98598ZM23.4622 10.4695L24.5982 9.96442L24.3951 9.50754L23.259 10.0127L23.4622 10.4695ZM23.613 10.2889C23.6119 10.2697 23.611 10.2511 23.6105 10.2332L23.1107 10.249C23.1114 10.2716 23.1125 10.2947 23.1139 10.3182L23.613 10.2889ZM22.6856 13.5304C22.8919 13.0265 23.1345 12.4341 23.3193 11.8668C23.5016 11.3071 23.6394 10.738 23.613 10.2889L23.1139 10.3182C23.1343 10.6662 23.0244 11.1577 22.8439 11.712C22.6658 12.2587 22.4305 12.8338 22.2229 13.3409L22.6856 13.5304ZM22.2604 14.6798C22.28 14.5818 22.3298 14.4297 22.407 14.226C22.4827 14.0258 22.579 13.7906 22.6856 13.5304L22.2229 13.3409C22.1171 13.5992 22.018 13.8412 21.9393 14.0489C21.8621 14.253 21.7986 14.4392 21.7701 14.5817L22.2604 14.6798ZM22.3232 15.8995C22.2621 15.7162 22.1575 15.1939 22.2604 14.6798L21.7701 14.5817C21.6458 15.2025 21.7681 15.8152 21.8488 16.0575L22.3232 15.8995ZM19.9125 15.151C20.1031 15.367 20.4339 15.6754 20.8193 15.9102C21.1963 16.1398 21.6761 16.3297 22.1423 16.2221L22.0298 15.7349C21.7581 15.7976 21.4223 15.692 21.0794 15.4831C20.7448 15.2793 20.4515 15.0061 20.2874 14.8202L19.9125 15.151ZM17.7953 13.8858C17.9838 14.0743 18.3158 14.3616 18.7113 14.6247C19.1041 14.8859 19.5791 15.1364 20.0509 15.2308L20.149 14.7405C19.7696 14.6646 19.358 14.4542 18.9882 14.2083C18.6213 13.9643 18.3149 13.6983 18.1488 13.5322L17.7953 13.8858ZM20.1787 12.7176C19.8965 12.8972 19.4683 13.0608 19.0312 13.1929C18.5988 13.3236 18.1789 13.4173 17.9273 13.4631L18.0168 13.955C18.2854 13.9061 18.7238 13.8082 19.1758 13.6716C19.623 13.5364 20.1052 13.3571 20.4472 13.1394L20.1787 12.7176ZM20.5584 11.3986C20.581 11.6518 20.5755 11.934 20.5145 12.1807C20.4532 12.428 20.3434 12.6128 20.1787 12.7176L20.4472 13.1394C20.7595 12.9407 20.921 12.619 20.9998 12.3009C21.0787 11.9823 21.082 11.6402 21.0564 11.3541L20.5584 11.3986ZM20.8713 11.6215L20.9089 11.6048L20.7058 11.1479L20.6681 11.1646L20.8713 11.6215ZM20.5206 11.0964L20.5197 11.3924L21.0197 11.3938L21.0206 11.0978L20.5206 11.0964ZM20.4956 11.0002C20.5055 11.0417 20.5153 11.0888 20.5244 11.1404L21.0168 11.0538C21.0061 10.9931 20.9943 10.9362 20.982 10.8844L20.4956 11.0002ZM20.5843 10.7398L20.5519 10.7762L20.9256 11.1084L20.958 11.072L20.5843 10.7398ZM20.5245 9.74362L20.5211 10.9052L21.0211 10.9066L21.0245 9.74507L20.5245 9.74362ZM20.7763 9.49435L4.27691 9.37349L4.27325 9.87347L20.7727 9.99434L20.7763 9.49435ZM4.37073 9.3925L1.09566 8.03617L0.904344 8.49813L4.17942 9.85446L4.37073 9.3925ZM1.09392 8.49884L4.35247 7.17791L4.16463 6.71454L0.906081 8.03546L1.09392 8.49884ZM4.25912 7.19623L20.7834 7.15885L20.7822 6.65885L4.25799 6.69623L4.25912 7.19623ZM20.5373 5.3516L20.5328 6.90812L21.0328 6.90958L21.0373 5.35306L20.5373 5.3516ZM20.2789 3.56155C20.4913 3.70554 20.6037 3.98636 20.6335 4.34502C20.6626 4.69596 20.6065 5.06211 20.5459 5.28743L21.0288 5.41723C21.1007 5.14965 21.1667 4.72455 21.1318 4.30366C21.0975 3.89049 20.9596 3.4189 20.5595 3.14768L20.2789 3.56155ZM18.05 2.75121C18.3002 2.80424 18.7172 2.91002 19.1456 3.05316C19.5787 3.19787 20.002 3.37382 20.2789 3.56155L20.5595 3.14768C20.2239 2.92021 19.7472 2.727 19.304 2.57893C18.8562 2.4293 18.4208 2.3187 18.1537 2.26208L18.05 2.75121ZM20.2239 1.04572C19.7496 1.12634 19.2675 1.36305 18.8673 1.61278C18.4643 1.8643 18.1242 2.14181 17.9303 2.32482L18.2734 2.68846C18.4443 2.52726 18.7582 2.27025 19.1321 2.03696C19.5087 1.80188 19.9263 1.60347 20.3077 1.53865L20.2239 1.04572ZM22.3431 0.115367C21.8803 -0.00569294 21.3951 0.170235 21.0116 0.388862C20.6196 0.612323 20.28 0.911024 20.0832 1.12143L20.4484 1.46295C20.6178 1.28186 20.9189 1.01728 21.2592 0.82323C21.6081 0.624349 21.9468 0.528542 22.2165 0.599091L22.3431 0.115367ZM22.4165 1.66043C22.3285 1.14354 22.4482 0.624538 22.5146 0.4431L22.045 0.271358C21.9573 0.511227 21.8173 1.12011 21.9236 1.7443L22.4165 1.66043ZM22.8082 2.82169C22.7093 2.55852 22.6198 2.32056 22.5499 2.11832C22.4787 1.91245 22.4332 1.75899 22.4165 1.66043L21.9236 1.7443C21.9479 1.88751 22.006 2.0755 22.0773 2.28174C22.1499 2.49161 22.242 2.73643 22.3402 2.99767L22.8082 2.82169ZM23.6414 6.08861C23.6808 5.64047 23.5596 5.06767 23.3935 4.50287C23.2253 3.93046 22.9998 3.33132 22.8082 2.82169L22.3402 2.99767C22.5331 3.51056 22.7517 4.09225 22.9138 4.64389C23.0782 5.20315 23.1738 5.69762 23.1433 6.04486L23.6414 6.08861ZM24.1747 6.48598C24.0763 6.51539 23.9856 6.54214 23.9 6.55604C23.8124 6.57024 23.7583 6.56579 23.7277 6.55508C23.7105 6.54905 23.6896 6.53908 23.6691 6.48816C23.6437 6.42537 23.6225 6.30462 23.6414 6.08861L23.1433 6.04486C23.1211 6.29824 23.1382 6.50882 23.2055 6.67541C23.2775 6.85389 23.4036 6.97137 23.5624 7.02698C23.7078 7.07789 23.8588 7.06926 23.98 7.04958C24.1032 7.0296 24.2251 6.99277 24.3179 6.96502L24.1747 6.48598ZM24.5178 6.41707C24.4519 6.41515 24.3861 6.42852 24.3366 6.44048C24.2841 6.45319 24.2268 6.47041 24.1747 6.48598L24.3179 6.96502C24.3736 6.94837 24.4172 6.93541 24.4542 6.92646C24.4943 6.91675 24.5067 6.91696 24.5032 6.91685L24.5178 6.41707ZM24.8759 6.40727C24.666 6.41415 24.5468 6.41791 24.5177 6.41707L24.5032 6.91685C24.5526 6.91829 24.6968 6.91341 24.8922 6.90701L24.8759 6.40727ZM24.8769 6.40724L24.8768 6.40725L24.8913 6.90703L24.8914 6.90703L24.8769 6.40724ZM31.8191 6.7823C30.9897 6.5005 29.5535 6.40066 28.1998 6.372C26.8334 6.34307 25.5073 6.38658 24.8759 6.40727L24.8923 6.907C25.5237 6.88631 26.8377 6.84327 28.1892 6.87189C29.5535 6.90077 30.9132 7.00257 31.6582 7.25572L31.8191 6.7823ZM33.1871 6.46299L31.6879 6.77423L31.7895 7.26379L33.2887 6.95255L33.1871 6.46299ZM33.9706 7.11992L33.4197 6.53619L33.0561 6.87936L33.6069 7.46309L33.9706 7.11992ZM34.2672 7.0553L33.796 7.04161L33.7815 7.5414L34.2526 7.55509L34.2672 7.0553ZM34.621 6.39306C34.3702 6.6297 34.1743 6.90335 34.0342 7.19774L34.4856 7.41266C34.5996 7.17322 34.7591 6.95021 34.9642 6.7567L34.621 6.39306ZM35.3165 7.19115C34.656 7.85166 34.6558 8.92251 35.3163 9.58298L35.6698 9.22942C35.2047 8.76429 35.2047 8.01002 35.67 7.5447L35.3165 7.19115ZM37.4907 7.00699C36.8302 6.53771 35.9087 6.59895 35.3165 7.19115L35.67 7.5447C36.0869 7.12782 36.7362 7.08427 37.2012 7.41459L37.4907 7.00699ZM37.7102 7.20253C37.6434 7.13177 37.5718 7.06793 37.4964 7.0111L37.1955 7.41048C37.2486 7.45045 37.2991 7.4955 37.3465 7.54569L37.7102 7.20253ZM37.6411 9.59335C38.3204 8.95229 38.3513 7.88188 37.7102 7.20252L37.3465 7.54569C37.7982 8.02429 37.7764 8.77824 37.298 9.22971L37.6411 9.59335ZM35.4855 9.73116C36.1309 10.2015 37.0393 10.1613 37.6411 9.59335L37.298 9.22971C36.8744 9.6294 36.2344 9.65824 35.78 9.32708L35.4855 9.73116ZM35.3163 9.58298C35.3683 9.63503 35.423 9.68305 35.48 9.72701L35.7855 9.33122C35.7454 9.30027 35.7067 9.26635 35.6698 9.22942L35.3163 9.58298Z" fill="#242246"/>
</svg>
