<svg width="40" height="17" viewBox="0 0 40 17" fill="none" xmlns="http://www.w3.org/2000/svg">
<path fill-rule="evenodd" clip-rule="evenodd" d="M5.20741 6.57489C4.32867 5.74562 2.99961 5.69015 2.06076 6.38405C1.95144 6.46211 1.84709 6.5502 1.74897 6.64832C0.78891 7.60838 0.789078 9.16511 1.74934 10.1254C2.63332 11.0093 4.02275 11.0797 4.98689 10.3364C5.10005 10.252 5.20749 10.1567 5.30771 10.0505C5.49916 9.84763 5.64939 9.62078 5.75869 9.38029L6.20906 9.38034L6.7766 9.94787L8.26619 9.59336C9.85543 10.0825 13.8673 9.83456 15.1283 9.75663L15.1285 9.75662C15.3308 9.74412 15.4623 9.73599 15.5015 9.736L15.5033 9.73599L16.6394 10.2411C16.6388 10.2614 16.6378 10.2822 16.6366 10.3036C16.5898 11.1007 17.1319 12.4247 17.5458 13.4356C17.7581 13.9541 17.9366 14.3903 17.9848 14.6307C18.0983 15.1982 17.9849 15.7657 17.914 15.9785C18.6517 16.1488 19.5454 15.3875 19.9 14.9856C20.7512 14.8155 21.6733 14.0637 22.0279 13.709C21.5077 13.6144 20.3113 13.3258 19.687 12.9285C19.2101 12.6249 19.1444 11.9156 19.1926 11.3763L19.2303 11.3931L19.2294 11.097C19.2393 11.0409 19.2501 10.989 19.2612 10.9423L19.2289 10.9059L19.2255 9.74434L35.7249 9.62348L39 8.26715L35.7414 6.94623L19.2172 6.90885L19.2127 5.35234C19.0802 4.85944 18.9683 3.76983 19.5808 3.35463C20.1933 2.93942 21.3809 2.61631 21.8982 2.50665C21.5334 2.16243 20.59 1.43763 19.7342 1.2922C19.3681 0.900707 18.4527 0.16563 17.7202 0.357238C17.7973 0.567893 17.9271 1.13184 17.83 1.70237C17.7889 1.94415 17.623 2.38528 17.4258 2.9097C17.0413 3.93221 16.5378 5.27136 16.6076 6.06675C16.6901 7.00552 16.136 6.83983 15.7537 6.72551C15.646 6.69329 15.5519 6.66516 15.4895 6.66697C15.4503 6.66811 15.3186 6.66379 15.116 6.65715L15.1159 6.65715C13.8531 6.61575 9.83575 6.48406 8.26133 7.01902L6.7621 6.70778L6.21124 7.29151L5.74008 7.30521C5.61301 7.03829 5.43532 6.78997 5.20741 6.57489ZM4.50693 9.40621C5.06973 8.84341 5.06963 7.93085 4.50672 7.36794C4.00226 6.86348 3.21701 6.81102 2.65432 7.21059C2.58996 7.25904 2.52881 7.31356 2.47166 7.37412C1.92528 7.95309 1.9516 8.86528 2.53045 9.41154C3.04306 9.89529 3.81708 9.92986 4.36697 9.52934C4.41558 9.49183 4.46236 9.45078 4.50693 9.40621Z" fill="#EDD396"/>
<path d="M2.06076 6.38405L2.20937 6.58512L2.20604 6.5875L2.06076 6.38405ZM5.20741 6.57489L5.379 6.39307L5.379 6.39307L5.20741 6.57489ZM1.74897 6.64832L1.57219 6.47154L1.5722 6.47154L1.74897 6.64832ZM1.74934 10.1254L1.92612 9.94859L1.92612 9.94859L1.74934 10.1254ZM4.98689 10.3364L4.83422 10.1384L4.83747 10.1359L4.98689 10.3364ZM5.30771 10.0505L5.48953 10.2221L5.48953 10.2221L5.30771 10.0505ZM5.75869 9.38029L5.5311 9.27685L5.59772 9.13027L5.75872 9.13029L5.75869 9.38029ZM6.20906 9.38034L6.20909 9.13034L6.31263 9.13035L6.38584 9.20356L6.20906 9.38034ZM6.7766 9.94787L6.83449 10.1911L6.6986 10.2234L6.59983 10.1247L6.7766 9.94787ZM8.26619 9.59336L8.20831 9.35015L8.2746 9.33437L8.33973 9.35442L8.26619 9.59336ZM15.1283 9.75663L15.1444 10.0061L15.1437 10.0062L15.1283 9.75663ZM15.1285 9.75662L15.1124 9.50714L15.113 9.5071L15.1285 9.75662ZM15.5015 9.736L15.5029 9.986L15.5015 9.986L15.5015 9.736ZM15.5033 9.73599L15.502 9.48599L15.5558 9.48571L15.6049 9.50755L15.5033 9.73599ZM16.6394 10.2411L16.741 10.0127L16.8946 10.081L16.8893 10.249L16.6394 10.2411ZM16.6366 10.3036L16.387 10.2889L16.387 10.2889L16.6366 10.3036ZM17.5458 13.4356L17.7771 13.3409L17.7771 13.3409L17.5458 13.4356ZM17.9848 14.6307L18.2299 14.5817L18.2299 14.5817L17.9848 14.6307ZM17.914 15.9785L17.8577 16.2221L17.5899 16.1603L17.6768 15.8995L17.914 15.9785ZM19.9 14.9856L19.7126 14.8202L19.7684 14.757L19.851 14.7405L19.9 14.9856ZM22.0279 13.709L22.0727 13.4631L22.5421 13.5485L22.2047 13.8858L22.0279 13.709ZM19.687 12.9285L19.5528 13.1394L19.5528 13.1394L19.687 12.9285ZM19.1926 11.3763L18.9436 11.3541L18.9748 11.0059L19.2942 11.1479L19.1926 11.3763ZM19.2303 11.3931L19.4803 11.3924L19.4814 11.7784L19.1287 11.6215L19.2303 11.3931ZM19.2294 11.097L18.9794 11.0977L18.9794 11.0755L18.9832 11.0537L19.2294 11.097ZM19.2612 10.9423L19.448 10.7762L19.5346 10.8735L19.5044 11.0002L19.2612 10.9423ZM19.2289 10.9059L19.042 11.072L18.9792 11.0013L18.9789 10.9066L19.2289 10.9059ZM19.2255 9.74434L18.9755 9.74507L18.9748 9.49617L19.2237 9.49435L19.2255 9.74434ZM35.7249 9.62348L35.8206 9.85446L35.7755 9.87312L35.7268 9.87347L35.7249 9.62348ZM39 8.26715L39.0939 8.03546L39.6594 8.26468L39.0957 8.49813L39 8.26715ZM35.7414 6.94623L35.742 6.69623L35.7905 6.69634L35.8354 6.71454L35.7414 6.94623ZM19.2172 6.90885L19.2167 7.15885L18.9679 7.15828L18.9672 6.90958L19.2172 6.90885ZM19.2127 5.35234L19.4541 5.28744L19.4626 5.31896L19.4627 5.35161L19.2127 5.35234ZM19.5808 3.35463L19.7211 3.56156L19.7211 3.56156L19.5808 3.35463ZM21.8982 2.50665L22.0697 2.32483L22.4167 2.65227L21.95 2.75122L21.8982 2.50665ZM19.7342 1.2922L19.6923 1.53866L19.6092 1.52454L19.5516 1.46296L19.7342 1.2922ZM17.7202 0.357238L17.4854 0.443107L17.391 0.184941L17.6569 0.115376L17.7202 0.357238ZM17.83 1.70237L18.0765 1.74431L18.0765 1.74431L17.83 1.70237ZM17.4258 2.9097L17.1918 2.82171L17.1918 2.82171L17.4258 2.9097ZM16.6076 6.06675L16.8567 6.04487L16.8567 6.04487L16.6076 6.06675ZM15.7537 6.72551L15.8253 6.48599L15.8253 6.48599L15.7537 6.72551ZM15.4895 6.66697L15.4823 6.41707L15.4823 6.41707L15.4895 6.66697ZM15.116 6.65715L15.1203 6.40716L15.1241 6.40728L15.116 6.65715ZM15.1159 6.65715L15.1115 6.90714L15.1077 6.90701L15.1159 6.65715ZM8.26133 7.01902L8.34176 7.25573L8.27724 7.27765L8.21052 7.2638L8.26133 7.01902ZM6.7621 6.70778L6.58028 6.5362L6.67615 6.43461L6.81292 6.463L6.7621 6.70778ZM6.21124 7.29151L6.39306 7.4631L6.322 7.5384L6.2185 7.54141L6.21124 7.29151ZM5.74008 7.30521L5.74734 7.5551L5.58441 7.55984L5.51435 7.41266L5.74008 7.30521ZM4.50672 7.36794L4.68349 7.19116L4.68349 7.19116L4.50672 7.36794ZM4.50693 9.40621L4.33015 9.22943L4.33015 9.22943L4.50693 9.40621ZM2.65432 7.21059L2.5039 7.01079L2.50957 7.00676L2.65432 7.21059ZM2.47166 7.37412L2.28984 7.20253L2.28984 7.20253L2.47166 7.37412ZM2.53045 9.41154L2.35887 9.59336L2.35887 9.59336L2.53045 9.41154ZM4.36697 9.52934L4.51975 9.72735L4.51415 9.73142L4.36697 9.52934ZM1.91216 6.183C2.94658 5.41847 4.41067 5.47926 5.379 6.39307L5.03583 6.75671C4.24667 6.01198 3.05264 5.96182 2.20935 6.5851L1.91216 6.183ZM1.5722 6.47154C1.6801 6.36364 1.79499 6.26663 1.91547 6.1806L2.20604 6.5875C2.1079 6.65758 2.01409 6.73676 1.92574 6.8251L1.5722 6.47154ZM1.57256 10.3021C0.514706 9.24429 0.514467 7.52927 1.57219 6.47154L1.92575 6.82509C1.06335 7.68749 1.06345 9.08593 1.92612 9.94859L1.57256 10.3021ZM5.13953 10.5344C4.07713 11.3535 2.54652 11.2761 1.57256 10.3021L1.92612 9.94859C2.72011 10.7426 3.96838 10.806 4.83424 10.1384L5.13953 10.5344ZM5.48953 10.2221C5.37932 10.3389 5.26104 10.4438 5.13631 10.5368L4.83747 10.1359C4.93907 10.0602 5.03566 9.97453 5.12589 9.87891L5.48953 10.2221ZM5.98629 9.48373C5.86573 9.74898 5.70013 9.99892 5.48953 10.2221L5.12589 9.87891C5.29818 9.69634 5.43304 9.49259 5.5311 9.27685L5.98629 9.48373ZM6.20904 9.63034L5.75867 9.63029L5.75872 9.13029L6.20909 9.13034L6.20904 9.63034ZM6.59983 10.1247L6.03229 9.55711L6.38584 9.20356L6.95338 9.7711L6.59983 10.1247ZM8.32407 9.83657L6.83449 10.1911L6.71872 9.70467L8.20831 9.35015L8.32407 9.83657ZM15.1437 10.0062C14.5132 10.0451 13.189 10.127 11.8223 10.1376C10.4683 10.1482 9.02983 10.09 8.19265 9.8323L8.33973 9.35442C9.09179 9.58589 10.4538 9.64828 11.8184 9.63766C13.1702 9.62713 14.4824 9.54607 15.1129 9.50711L15.1437 10.0062ZM15.1445 10.0061L15.1444 10.0061L15.1123 9.50715L15.1124 9.50714L15.1445 10.0061ZM15.5015 9.986C15.4725 9.98599 15.3535 9.99319 15.1439 10.0061L15.113 9.5071C15.3082 9.49504 15.4521 9.48599 15.5016 9.486L15.5015 9.986ZM15.5047 9.98598L15.5029 9.98599L15.5002 9.486L15.502 9.48599L15.5047 9.98598ZM16.5378 10.4695L15.4018 9.96442L15.6049 9.50755L16.741 10.0127L16.5378 10.4695ZM16.387 10.2889C16.3881 10.2697 16.389 10.2511 16.3895 10.2332L16.8893 10.249C16.8886 10.2716 16.8875 10.2947 16.8861 10.3182L16.387 10.2889ZM17.3144 13.5304C17.1081 13.0265 16.8655 12.4341 16.6807 11.8668C16.4984 11.3071 16.3606 10.738 16.387 10.2889L16.8861 10.3182C16.8657 10.6662 16.9756 11.1577 17.1561 11.712C17.3342 12.2587 17.5695 12.8338 17.7771 13.3409L17.3144 13.5304ZM17.7396 14.6798C17.72 14.5818 17.6702 14.4297 17.593 14.226C17.5173 14.0258 17.421 13.7906 17.3144 13.5304L17.7771 13.3409C17.8829 13.5992 17.982 13.8412 18.0606 14.0489C18.1379 14.253 18.2014 14.4392 18.2299 14.5817L17.7396 14.6798ZM17.6768 15.8995C17.7379 15.7162 17.8425 15.1939 17.7396 14.6798L18.2299 14.5817C18.3541 15.2025 18.2319 15.8152 18.1512 16.0575L17.6768 15.8995ZM20.0875 15.151C19.8969 15.367 19.5661 15.6754 19.1807 15.9102C18.8037 16.1398 18.3238 16.3297 17.8577 16.2221L17.9702 15.7349C18.2418 15.7976 18.5777 15.692 18.9206 15.4831C19.2552 15.2793 19.5485 15.0061 19.7126 14.8202L20.0875 15.151ZM22.2047 13.8858C22.0162 14.0744 21.6842 14.3616 21.2886 14.6247C20.8959 14.8859 20.4209 15.1365 19.949 15.2308L19.851 14.7405C20.2304 14.6646 20.642 14.4542 21.0118 14.2083C21.3787 13.9643 21.6851 13.6983 21.8512 13.5322L22.2047 13.8858ZM19.8212 12.7176C20.1035 12.8972 20.5317 13.0608 20.9688 13.193C21.4012 13.3236 21.8211 13.4173 22.0727 13.4631L21.9832 13.955C21.7146 13.9061 21.2762 13.8082 20.8242 13.6716C20.3769 13.5364 19.8948 13.3571 19.5528 13.1394L19.8212 12.7176ZM19.4416 11.3986C19.419 11.6518 19.4244 11.934 19.4855 12.1807C19.5468 12.428 19.6566 12.6128 19.8212 12.7176L19.5528 13.1394C19.2405 12.9407 19.079 12.619 19.0002 12.3009C18.9213 11.9823 18.918 11.6402 18.9436 11.3541L19.4416 11.3986ZM19.1287 11.6215L19.0911 11.6048L19.2942 11.1479L19.3319 11.1647L19.1287 11.6215ZM19.4794 11.0963L19.4803 11.3924L18.9803 11.3938L18.9794 11.0977L19.4794 11.0963ZM19.5044 11.0002C19.4945 11.0417 19.4847 11.0888 19.4756 11.1404L18.9832 11.0537C18.9939 10.993 19.0057 10.9362 19.018 10.8844L19.5044 11.0002ZM19.4157 10.7398L19.448 10.7762L19.0744 11.1084L19.042 11.072L19.4157 10.7398ZM19.4755 9.74362L19.4789 10.9052L18.9789 10.9066L18.9755 9.74507L19.4755 9.74362ZM19.2237 9.49435L35.7231 9.37349L35.7268 9.87347L19.2273 9.99434L19.2237 9.49435ZM35.6293 9.3925L38.9043 8.03617L39.0957 8.49813L35.8206 9.85446L35.6293 9.3925ZM38.9061 8.49884L35.6475 7.17791L35.8354 6.71454L39.0939 8.03546L38.9061 8.49884ZM35.7409 7.19623L19.2167 7.15885L19.2178 6.65885L35.742 6.69623L35.7409 7.19623ZM19.4627 5.35161L19.4672 6.90812L18.9672 6.90958L18.9627 5.35307L19.4627 5.35161ZM19.7211 3.56156C19.5087 3.70555 19.3963 3.98636 19.3665 4.34503C19.3374 4.69597 19.3935 5.06212 19.4541 5.28744L18.9713 5.41724C18.8993 5.14966 18.8333 4.72456 18.8682 4.30367C18.9025 3.8905 19.0404 3.41891 19.4405 3.14769L19.7211 3.56156ZM21.95 2.75122C21.6999 2.80425 21.2828 2.91003 20.8544 3.05317C20.4213 3.19788 19.998 3.37383 19.7211 3.56156L19.4405 3.14769C19.7761 2.92021 20.2529 2.72701 20.696 2.57894C21.1438 2.42931 21.5792 2.31871 21.8463 2.26209L21.95 2.75122ZM19.7761 1.04573C20.2504 1.12635 20.7325 1.36306 21.1327 1.61279C21.5357 1.86431 21.8758 2.14182 22.0697 2.32483L21.7266 2.68847C21.5558 2.52727 21.2418 2.27026 20.8679 2.03697C20.4913 1.80189 20.0737 1.60348 19.6923 1.53866L19.7761 1.04573ZM17.6569 0.115376C18.1197 -0.00568365 18.6049 0.170244 18.9884 0.388871C19.3804 0.612332 19.72 0.911033 19.9168 1.12143L19.5516 1.46296C19.3822 1.28187 19.0811 1.01729 18.7408 0.82324C18.3919 0.624358 18.0532 0.528552 17.7835 0.5991L17.6569 0.115376ZM17.5835 1.66044C17.6715 1.14355 17.5518 0.624549 17.4854 0.443107L17.955 0.271369C18.0427 0.511237 18.1827 1.12012 18.0765 1.74431L17.5835 1.66044ZM17.1918 2.82171C17.2907 2.55853 17.3802 2.32057 17.4501 2.11833C17.5213 1.91246 17.5668 1.75899 17.5835 1.66044L18.0765 1.74431C18.0521 1.88752 17.994 2.07551 17.9227 2.28175C17.8501 2.49163 17.758 2.73645 17.6598 2.99769L17.1918 2.82171ZM16.3586 6.08862C16.3192 5.64048 16.4405 5.06768 16.6065 4.50289C16.7747 3.93048 17.0002 3.33134 17.1918 2.82171L17.6598 2.99769C17.4669 3.51057 17.2483 4.09226 17.0862 4.6439C16.9218 5.20316 16.8262 5.69763 16.8567 6.04487L16.3586 6.08862ZM15.8253 6.48599C15.9237 6.5154 16.0144 6.54215 16.1 6.55605C16.1876 6.57025 16.2417 6.5658 16.2723 6.55508C16.2895 6.54906 16.3104 6.53909 16.3309 6.48817C16.3563 6.42538 16.3776 6.30463 16.3586 6.08862L16.8567 6.04487C16.8789 6.29825 16.8618 6.50883 16.7945 6.67542C16.7225 6.8539 16.5964 6.97138 16.4376 7.02699C16.2922 7.0779 16.1412 7.06927 16.02 7.04959C15.8968 7.02961 15.7749 6.99278 15.6821 6.96503L15.8253 6.48599ZM15.4823 6.41707C15.5481 6.41516 15.6139 6.42853 15.6634 6.44049C15.7159 6.4532 15.7732 6.47042 15.8253 6.48599L15.6821 6.96503C15.6264 6.94838 15.5828 6.93542 15.5458 6.92647C15.5057 6.91676 15.4933 6.91697 15.4968 6.91686L15.4823 6.41707ZM15.1241 6.40728C15.334 6.41416 15.4532 6.41792 15.4823 6.41707L15.4968 6.91686C15.4474 6.9183 15.3032 6.91342 15.1078 6.90701L15.1241 6.40728ZM15.1202 6.40719L15.1203 6.40719L15.1116 6.90711L15.1115 6.90711L15.1202 6.40719ZM8.1809 6.78231C9.01028 6.50051 10.4465 6.40067 11.8002 6.37201C13.1666 6.34308 14.4927 6.38658 15.1241 6.40728L15.1077 6.90701C14.4763 6.88632 13.1623 6.84328 11.8108 6.8719C10.4465 6.90078 9.08681 7.00258 8.34176 7.25573L8.1809 6.78231ZM6.81292 6.463L8.31215 6.77424L8.21052 7.2638L6.71129 6.95256L6.81292 6.463ZM6.02942 7.11993L6.58028 6.5362L6.94393 6.87936L6.39306 7.4631L6.02942 7.11993ZM5.73281 7.05531L6.20397 7.04162L6.2185 7.54141L5.74734 7.5551L5.73281 7.05531ZM5.379 6.39307C5.62975 6.62971 5.82566 6.90336 5.96581 7.19775L5.51435 7.41266C5.40037 7.17323 5.24088 6.95022 5.03583 6.75671L5.379 6.39307ZM4.68349 7.19116C5.344 7.85167 5.34417 8.92252 4.68371 9.58298L4.33015 9.22943C4.79528 8.7643 4.79526 8.01003 4.32994 7.54471L4.68349 7.19116ZM2.50957 7.00676C3.17006 6.53774 4.0914 6.59906 4.68349 7.19116L4.32994 7.54471C3.91313 7.1279 3.26396 7.0843 2.79906 7.41443L2.50957 7.00676ZM2.28984 7.20253C2.3567 7.13168 2.42839 7.06775 2.50395 7.01087L2.80468 7.41032C2.75154 7.45033 2.70091 7.49544 2.65348 7.5457L2.28984 7.20253ZM2.35887 9.59336C1.67957 8.9523 1.64873 7.88189 2.28984 7.20253L2.65348 7.5457C2.20183 8.02429 2.22364 8.77825 2.70204 9.22972L2.35887 9.59336ZM4.51415 9.73142C3.8688 10.2015 2.96063 10.1612 2.35887 9.59336L2.70204 9.22972C3.1255 9.62934 3.76536 9.65824 4.21978 9.32726L4.51415 9.73142ZM4.68371 9.58298C4.63156 9.63514 4.57675 9.68325 4.51969 9.72727L4.21424 9.33141C4.25442 9.30041 4.29316 9.26643 4.33015 9.22943L4.68371 9.58298Z" fill="#242246"/>
</svg>
