<svg width="38" height="17" viewBox="0 0 38 17" fill="none" xmlns="http://www.w3.org/2000/svg">
<path fill-rule="evenodd" clip-rule="evenodd" d="M33.7926 6.57488C34.6713 5.74561 36.0004 5.69014 36.9392 6.38404C37.0485 6.4621 37.1529 6.55019 37.251 6.64831C38.2111 7.60837 38.2109 9.1651 37.2507 10.1254C36.3667 11.0093 34.9772 11.0797 34.0131 10.3364C33.8999 10.252 33.7925 10.1567 33.6923 10.0505C33.5008 9.84762 33.3506 9.62077 33.2413 9.38028L32.7909 9.38033L32.2234 9.94786L30.7338 9.59335C29.1446 10.0825 25.1327 9.83455 23.8717 9.75662L23.8715 9.75661C23.6692 9.74411 23.5377 9.73598 23.4985 9.73599L23.4967 9.73598L22.3606 10.2411C22.3612 10.2614 22.3622 10.2822 22.3634 10.3036C22.4102 11.1007 21.8681 12.4247 21.4542 13.4356C21.2419 13.9541 21.0633 14.3903 21.0152 14.6307C20.9017 15.1982 21.0151 15.7657 21.086 15.9785C20.3483 16.1488 19.4546 15.3875 19.1 14.9856C18.2488 14.8155 17.3267 14.0637 16.972 13.709C17.4922 13.6144 18.6887 13.3258 19.313 12.9285C19.7899 12.6249 19.8556 11.9156 19.8074 11.3763L19.7697 11.3931L19.7706 11.0971C19.7607 11.0409 19.7499 10.989 19.7388 10.9423L19.7711 10.9059L19.7745 9.74434L3.27508 9.62348L0 8.26715L3.25855 6.94623L19.7828 6.90885L19.7873 5.35233C19.9198 4.85943 20.0317 3.76983 19.4192 3.35462C18.8067 2.93941 17.6191 2.6163 17.1018 2.50664C17.4666 2.16242 18.4101 1.43762 19.2658 1.29219C19.6319 0.900697 20.5473 0.165621 21.2798 0.357229C21.2027 0.567882 21.0729 1.13183 21.17 1.70237C21.2111 1.94414 21.377 2.38527 21.5742 2.90968C21.9587 3.9322 22.4622 5.27135 22.3924 6.06674C22.3099 7.00551 22.864 6.83982 23.2463 6.7255C23.354 6.69328 23.4481 6.66515 23.5105 6.66696C23.5497 6.6681 23.6814 6.66378 23.8841 6.65714L23.8841 6.65714C25.1469 6.61575 29.1643 6.48405 30.7387 7.01901L32.2379 6.70777L32.7888 7.2915L33.2599 7.3052C33.387 7.03828 33.5647 6.78996 33.7926 6.57488ZM34.493 9.4062C33.9302 8.8434 33.9303 7.93084 34.4933 7.36793C34.9978 6.86339 35.7832 6.81099 36.3459 7.21079C36.4102 7.25919 36.4713 7.31363 36.5283 7.37411C37.0747 7.95308 37.0484 8.86527 36.4695 9.41153C35.9568 9.89537 35.1826 9.92986 34.6327 9.52912C34.5842 9.49166 34.5375 9.45069 34.493 9.4062Z" fill="#242246"/>
</svg>
