<svg width="1067" height="664" viewBox="0 0 1067 664" fill="none" xmlns="http://www.w3.org/2000/svg">
<g filter="url(#filter0_d_106_353)">
<path d="M932.259 10.2531C931.3 10.2531 930.821 10.4928 930.581 12.8897C928.903 13.6087 928.903 12.8897 928.184 12.8897C927.465 12.8897 927.465 10.2531 928.184 9.05459C928.903 7.85611 932.259 8.3355 933.937 9.05459C935.614 9.77369 935.614 11.2118 938.97 12.8897C942.326 14.5675 948.318 16.9643 952.393 17.6834C956.467 18.4025 960.542 17.6834 965.096 17.6834C968.74 17.6834 972.686 15.7659 974.205 14.8072C976.841 17.4438 985.71 17.4437 990.743 15.7659C995.777 14.0881 997.934 12.1706 1001.29 11.2118C1004.65 10.2531 1009.2 10.2531 1011.6 10.2531C1013.51 10.2531 1014.79 12.3304 1015.19 13.369C1013.51 13.369 1009.97 13.4649 1009.2 13.8484C1008.24 14.3278 1007.76 17.4437 1008.48 18.4025C1009.2 19.3612 1013.27 19.6009 1015.19 19.6009C1016.73 19.6009 1018.55 17.5236 1019.27 16.4849C1021.66 17.204 1026.22 18.4025 1028.37 18.4025C1030.53 18.4025 1033.89 17.6834 1035.33 17.4437C1036.76 17.204 1038.92 16.0056 1040.84 13.369C1042.76 10.7325 1041.08 7.37677 1040.84 6.17836C1040.6 4.97994 1038.92 3.30204 1037.24 3.06235C1035.57 2.82266 1034.37 3.30204 1033.17 4.02113C1031.97 4.74022 1030.29 8.33553 1032.21 9.05459C1034.13 9.77366 1035.57 9.05459 1035.33 7.37677C1035.13 6.0345 1036.52 6.01855 1037.24 6.17836C1038.2 6.65777 1037.48 8.33553 1037.24 10.2531C1037 12.1706 1034.61 13.369 1033.17 13.8484C1031.73 14.3278 1030.05 14.8072 1026.22 14.8072C1023.15 14.8072 1020.3 13.8484 1019.27 13.369C1019.75 11.9308 1018.07 10.2531 1016.87 8.33553C1015.67 6.41797 1012.08 6.17836 1009.2 6.17836C1006.32 6.17836 1004.65 6.17836 1001.29 7.37677C997.934 8.57518 993.14 11.2118 990.743 12.1706C988.346 13.1294 978.759 13.8484 978.04 13.8484C977.32 13.8484 975.163 12.8897 975.643 12.1706C976.122 11.4515 977.56 10.2531 978.04 9.05459C978.519 7.85611 978.519 4.7402 977.56 4.02113C976.601 3.30206 975.403 3.54175 974.205 4.02113C973.006 4.50051 973.006 5.21958 972.287 6.17836C971.568 7.13713 971.808 10.2531 971.568 11.2118C971.328 12.1706 969.89 12.1706 967.254 13.8484C964.617 15.5262 956.467 14.8072 952.393 14.8072C948.318 14.8072 942.326 11.2118 940.408 10.2531C938.491 9.29432 936.334 6.89742 934.656 6.17836C932.978 5.45929 930.581 5.69898 928.184 6.17836C925.787 6.65774 925.548 9.05463 925.068 11.2118C924.589 13.369 926.746 14.8072 928.184 15.5263C929.622 16.2453 932.259 15.2866 932.978 14.8072C933.697 14.3278 933.937 12.8897 933.937 12.1706C933.937 11.4515 933.218 10.2531 932.259 10.2531Z" fill="#242246" stroke="black" stroke-width="0.47938"/>
<path d="M1053.06 129.266C1053.06 130.225 1053.3 130.704 1055.69 130.944C1056.41 132.621 1055.69 132.622 1055.69 133.341C1055.69 134.06 1053.06 134.06 1051.86 133.341C1050.66 132.621 1051.14 129.266 1051.86 127.588C1052.58 125.91 1054.02 125.91 1055.69 122.555C1057.37 119.199 1059.77 113.207 1060.49 109.132C1061.21 105.057 1060.49 100.982 1060.49 96.4284C1060.49 92.7851 1058.57 88.8382 1057.61 87.3201C1060.25 84.6836 1060.25 75.815 1058.57 70.7815C1056.89 65.7481 1054.97 63.5909 1054.02 60.2352C1053.06 56.8795 1053.06 52.3254 1053.06 49.9285C1053.06 48.011 1055.13 46.7327 1056.17 46.3332C1056.17 48.011 1056.27 51.5584 1056.65 52.3254C1057.13 53.2842 1060.25 53.7636 1061.21 53.0445C1062.16 52.3254 1062.4 48.2507 1062.4 46.3332C1062.4 44.7992 1060.33 42.9775 1059.29 42.2585C1060.01 39.8616 1061.21 35.3075 1061.21 33.1503C1061.21 30.993 1060.49 27.6374 1060.25 26.1993C1060.01 24.7611 1058.81 22.6039 1056.17 20.6864C1053.54 18.7689 1050.18 20.4467 1048.98 20.6864C1047.78 20.9261 1046.11 22.6039 1045.87 24.2817C1045.63 25.9596 1046.11 27.158 1046.82 28.3565C1047.54 29.5549 1051.14 31.2327 1051.86 29.3152C1052.58 27.3977 1051.86 25.9596 1050.18 26.1993C1048.84 26.391 1048.82 25.0008 1048.98 24.2817C1049.46 23.323 1051.14 24.042 1053.06 24.2817C1054.97 24.5214 1056.17 26.9183 1056.65 28.3565C1057.13 29.7946 1057.61 31.4724 1057.61 35.3075C1057.61 38.3755 1056.65 41.2198 1056.17 42.2585C1054.73 41.7791 1053.06 43.4569 1051.14 44.6554C1049.22 45.8538 1048.98 49.4492 1048.98 52.3254C1048.98 55.2017 1048.98 56.8795 1050.18 60.2352C1051.38 63.5909 1054.02 68.3847 1054.97 70.7815C1055.93 73.1784 1056.65 82.766 1056.65 83.4851C1056.65 84.2042 1055.69 86.3614 1054.97 85.882C1054.26 85.4026 1053.06 83.9645 1051.86 83.4851C1050.66 83.0057 1047.54 83.0057 1046.82 83.9645C1046.11 84.9232 1046.35 86.1217 1046.82 87.3201C1047.3 88.5186 1048.02 88.5186 1048.98 89.2377C1049.94 89.9567 1053.06 89.717 1054.02 89.9567C1054.97 90.1964 1054.97 91.6346 1056.65 94.2711C1058.33 96.9077 1057.61 105.057 1057.61 109.132C1057.61 113.207 1054.02 119.199 1053.06 121.116C1052.1 123.034 1049.7 125.191 1048.98 126.869C1048.26 128.547 1048.5 130.944 1048.98 133.341C1049.46 135.737 1051.86 135.977 1054.02 136.457C1056.17 136.936 1057.61 134.779 1058.33 133.341C1059.05 131.902 1058.09 129.266 1057.61 128.547C1057.13 127.828 1055.69 127.588 1054.97 127.588C1054.26 127.588 1053.06 128.307 1053.06 129.266Z" fill="#242246" stroke="black" stroke-width="0.47938"/>
</g>
<g filter="url(#filter1_d_106_353)">
<path d="M135.146 10.2531C136.104 10.2531 136.584 10.4928 136.824 12.8897C138.501 13.6087 138.501 12.8897 139.22 12.8897C139.939 12.8897 139.94 10.2531 139.22 9.05459C138.501 7.85611 135.146 8.3355 133.468 9.05459C131.79 9.77369 131.79 11.2118 128.434 12.8897C125.079 14.5675 119.087 16.9643 115.012 17.6834C110.937 18.4025 106.862 17.6834 102.308 17.6834C98.665 17.6834 94.7181 15.7659 93.2 14.8072C90.5634 17.4438 81.6949 17.4437 76.6614 15.7659C71.628 14.0881 69.4707 12.1706 66.1151 11.2118C62.7594 10.2531 58.2053 10.2531 55.8084 10.2531C53.8909 10.2531 52.6126 12.3304 52.2131 13.369C53.8909 13.369 57.4383 13.4649 58.2053 13.8484C59.1641 14.3278 59.6435 17.4437 58.9244 18.4025C58.2053 19.3612 54.1306 19.6009 52.2131 19.6009C50.6791 19.6009 48.8574 17.5236 48.1384 16.4849C45.7415 17.204 41.1873 18.4025 39.0301 18.4025C36.8729 18.4025 33.5173 17.6834 32.0791 17.4437C30.641 17.204 28.4838 16.0056 26.5663 13.369C24.6488 10.7325 26.3266 7.37677 26.5663 6.17836C26.806 4.97994 28.4838 3.30204 30.1616 3.06235C31.8394 2.82266 33.0379 3.30204 34.2364 4.02113C35.4348 4.74022 37.1126 8.33553 35.1951 9.05459C33.2776 9.77366 31.8394 9.05459 32.0791 7.37677C32.2709 6.0345 30.8807 6.01855 30.1616 6.17836C29.2029 6.65777 29.9219 8.33553 30.1616 10.2531C30.4013 12.1706 32.7982 13.369 34.2364 13.8484C35.6745 14.3278 37.3523 14.8072 41.1873 14.8072C44.2554 14.8072 47.0997 13.8484 48.1384 13.369C47.659 11.9308 49.3368 10.2531 50.5352 8.33553C51.7337 6.41797 55.329 6.17836 58.2053 6.17836C61.0816 6.17836 62.7594 6.17836 66.1151 7.37677C69.4707 8.57518 74.2645 11.2118 76.6614 12.1706C79.0583 13.1294 88.6459 13.8484 89.365 13.8484C90.0841 13.8484 92.2413 12.8897 91.7619 12.1706C91.2825 11.4515 89.8444 10.2531 89.365 9.05459C88.8856 7.85611 88.8856 4.7402 89.8444 4.02113C90.8031 3.30206 92.0016 3.54175 93.2 4.02113C94.3985 4.50051 94.3985 5.21958 95.1175 6.17836C95.8366 7.13713 95.5969 10.2531 95.8366 11.2118C96.0763 12.1706 97.5144 12.1706 100.151 13.8484C102.788 15.5262 110.937 14.8072 115.012 14.8072C119.087 14.8072 125.079 11.2118 126.996 10.2531C128.914 9.29432 131.071 6.89742 132.749 6.17836C134.427 5.45929 136.824 5.69898 139.22 6.17836C141.617 6.65774 141.857 9.05463 142.336 11.2118C142.816 13.369 140.659 14.8072 139.22 15.5263C137.782 16.2453 135.146 15.2866 134.427 14.8072C133.708 14.3278 133.468 12.8897 133.468 12.1706C133.468 11.4515 134.187 10.2531 135.146 10.2531Z" fill="#242246" stroke="black" stroke-width="0.47938"/>
<path d="M14.3477 129.266C14.3477 130.225 14.1081 130.704 11.7112 130.944C10.9921 132.621 11.7112 132.622 11.7112 133.341C11.7112 134.06 14.3477 134.06 15.5462 133.341C16.7447 132.621 16.2653 129.266 15.5462 127.588C14.8271 125.91 13.389 125.91 11.7112 122.555C10.0333 119.199 7.6365 113.207 6.91743 109.132C6.19836 105.057 6.91743 100.982 6.91743 96.4284C6.91743 92.7851 8.83491 88.8382 9.79365 87.3201C7.15706 84.6836 7.15713 75.815 8.83495 70.7815C10.5128 65.7481 12.4302 63.5909 13.389 60.2352C14.3478 56.8795 14.3478 52.3254 14.3478 49.9285C14.3478 48.011 12.2705 46.7327 11.2318 46.3332C11.2318 48.011 11.1359 51.5584 10.7524 52.3254C10.273 53.2842 7.15713 53.7636 6.19837 53.0445C5.23961 52.3254 4.99992 48.2507 4.99992 46.3332C4.99992 44.7992 7.07723 42.9775 8.11589 42.2585C7.39682 39.8616 6.19837 35.3075 6.19837 33.1503C6.19837 30.993 6.91744 27.6374 7.15713 26.1993C7.39682 24.7611 8.59527 22.6039 11.2318 20.6864C13.8684 18.7689 17.2241 20.4467 18.4225 20.6864C19.6209 20.9261 21.2988 22.6039 21.5385 24.2817C21.7782 25.9596 21.2988 27.158 20.5797 28.3565C19.8606 29.5549 16.2653 31.2327 15.5462 29.3152C14.8272 27.3977 15.5462 25.9596 17.2241 26.1993C18.5663 26.391 18.5823 25.0008 18.4225 24.2817C17.9431 23.323 16.2653 24.042 14.3478 24.2817C12.4302 24.5214 11.2318 26.9183 10.7524 28.3565C10.273 29.7946 9.79365 31.4724 9.79365 35.3075C9.79365 38.3755 10.7524 41.2198 11.2318 42.2585C12.67 41.7791 14.3478 43.4569 16.2653 44.6554C18.1829 45.8538 18.4225 49.4492 18.4225 52.3254C18.4225 55.2017 18.4225 56.8795 17.2241 60.2352C16.0257 63.5909 13.389 68.3847 12.4302 70.7815C11.4715 73.1784 10.7524 82.766 10.7524 83.4851C10.7524 84.2042 11.7112 86.3614 12.4302 85.882C13.1493 85.4026 14.3478 83.9645 15.5462 83.4851C16.7447 83.0057 19.8606 83.0057 20.5797 83.9645C21.2988 84.9232 21.0591 86.1217 20.5797 87.3201C20.1003 88.5186 19.3813 88.5186 18.4225 89.2377C17.4637 89.9567 14.3478 89.717 13.389 89.9567C12.4302 90.1964 12.4302 91.6346 10.7524 94.2711C9.07461 96.9077 9.79364 105.057 9.79364 109.132C9.79364 113.207 13.389 119.199 14.3477 121.116C15.3065 123.034 17.7034 125.191 18.4225 126.869C19.1415 128.547 18.9019 130.944 18.4225 133.341C17.9431 135.737 15.5462 135.977 13.389 136.457C11.2318 136.936 9.79364 134.779 9.07457 133.341C8.3555 131.902 9.31426 129.266 9.79364 128.547C10.273 127.828 11.7112 127.588 12.4302 127.588C13.1493 127.588 14.3477 128.307 14.3477 129.266Z" fill="#242246" stroke="black" stroke-width="0.47938"/>
</g>
<g filter="url(#filter2_d_106_353)">
<path d="M932.259 650.272C931.3 650.272 930.821 650.032 930.581 647.635C928.903 646.916 928.903 647.635 928.184 647.635C927.465 647.635 927.465 650.272 928.184 651.47C928.903 652.669 932.259 652.189 933.937 651.47C935.614 650.751 935.614 649.313 938.97 647.635C942.326 645.957 948.318 643.56 952.393 642.841C956.467 642.122 960.542 642.841 965.096 642.841C968.74 642.841 972.686 644.759 974.205 645.717C976.841 643.081 985.71 643.081 990.743 644.759C995.777 646.437 997.934 648.354 1001.29 649.313C1004.65 650.272 1009.2 650.272 1011.6 650.272C1013.51 650.272 1014.79 648.194 1015.19 647.156C1013.51 647.156 1009.97 647.06 1009.2 646.676C1008.24 646.197 1007.76 643.081 1008.48 642.122C1009.2 641.163 1013.27 640.924 1015.19 640.924C1016.73 640.924 1018.55 643.001 1019.27 644.04C1021.66 643.321 1026.22 642.122 1028.37 642.122C1030.53 642.122 1033.89 642.841 1035.33 643.081C1036.76 643.321 1038.92 644.519 1040.84 647.156C1042.76 649.792 1041.08 653.148 1040.84 654.346C1040.6 655.545 1038.92 657.223 1037.24 657.462C1035.57 657.702 1034.37 657.223 1033.17 656.504C1031.97 655.784 1030.29 652.189 1032.21 651.47C1034.13 650.751 1035.57 651.47 1035.33 653.148C1035.13 654.49 1036.52 654.506 1037.24 654.346C1038.2 653.867 1037.48 652.189 1037.24 650.272C1037 648.354 1034.61 647.156 1033.17 646.676C1031.73 646.197 1030.05 645.717 1026.22 645.717C1023.15 645.717 1020.3 646.676 1019.27 647.156C1019.75 648.594 1018.07 650.272 1016.87 652.189C1015.67 654.107 1012.08 654.346 1009.2 654.346C1006.32 654.346 1004.65 654.346 1001.29 653.148C997.934 651.949 993.14 649.313 990.743 648.354C988.346 647.395 978.759 646.676 978.04 646.676C977.32 646.676 975.163 647.635 975.643 648.354C976.122 649.073 977.56 650.272 978.04 651.47C978.519 652.669 978.519 655.784 977.56 656.504C976.601 657.223 975.403 656.983 974.205 656.504C973.006 656.024 973.006 655.305 972.287 654.346C971.568 653.388 971.808 650.272 971.568 649.313C971.328 648.354 969.89 648.354 967.254 646.676C964.617 644.998 956.467 645.717 952.393 645.717C948.318 645.717 942.326 649.313 940.408 650.272C938.491 651.23 936.334 653.627 934.656 654.346C932.978 655.065 930.581 654.826 928.184 654.346C925.787 653.867 925.548 651.47 925.068 649.313C924.589 647.156 926.746 645.717 928.184 644.998C929.622 644.279 932.259 645.238 932.978 645.717C933.697 646.197 933.937 647.635 933.937 648.354C933.937 649.073 933.218 650.272 932.259 650.272Z" fill="#242246" stroke="black" stroke-width="0.47938"/>
<path d="M1053.06 531.259C1053.06 530.3 1053.3 529.821 1055.69 529.581C1056.41 527.903 1055.69 527.903 1055.69 527.184C1055.69 526.465 1053.06 526.465 1051.86 527.184C1050.66 527.903 1051.14 531.259 1051.86 532.937C1052.58 534.614 1054.02 534.614 1055.69 537.97C1057.37 541.326 1059.77 547.318 1060.49 551.393C1061.21 555.467 1060.49 559.542 1060.49 564.096C1060.49 567.74 1058.57 571.686 1057.61 573.205C1060.25 575.841 1060.25 584.71 1058.57 589.743C1056.89 594.777 1054.97 596.934 1054.02 600.289C1053.06 603.645 1053.06 608.199 1053.06 610.596C1053.06 612.514 1055.13 613.792 1056.17 614.191C1056.17 612.514 1056.27 608.966 1056.65 608.199C1057.13 607.24 1060.25 606.761 1061.21 607.48C1062.16 608.199 1062.4 612.274 1062.4 614.191C1062.4 615.725 1060.33 617.547 1059.29 618.266C1060.01 620.663 1061.21 625.217 1061.21 627.374C1061.21 629.532 1060.49 632.887 1060.25 634.325C1060.01 635.764 1058.81 637.921 1056.17 639.838C1053.54 641.756 1050.18 640.078 1048.98 639.838C1047.78 639.599 1046.11 637.921 1045.87 636.243C1045.63 634.565 1046.11 633.367 1046.82 632.168C1047.54 630.97 1051.14 629.292 1051.86 631.209C1052.58 633.127 1051.86 634.565 1050.18 634.325C1048.84 634.134 1048.82 635.524 1048.98 636.243C1049.46 637.202 1051.14 636.483 1053.06 636.243C1054.97 636.003 1056.17 633.606 1056.65 632.168C1057.13 630.73 1057.61 629.052 1057.61 625.217C1057.61 622.149 1056.65 619.305 1056.17 618.266C1054.73 618.746 1053.06 617.068 1051.14 615.869C1049.22 614.671 1048.98 611.075 1048.98 608.199C1048.98 605.323 1048.98 603.645 1050.18 600.289C1051.38 596.934 1054.02 592.14 1054.97 589.743C1055.93 587.346 1056.65 577.759 1056.65 577.04C1056.65 576.32 1055.69 574.163 1054.97 574.643C1054.26 575.122 1053.06 576.56 1051.86 577.04C1050.66 577.519 1047.54 577.519 1046.82 576.56C1046.11 575.601 1046.35 574.403 1046.82 573.205C1047.3 572.006 1048.02 572.006 1048.98 571.287C1049.94 570.568 1053.06 570.808 1054.02 570.568C1054.97 570.328 1054.97 568.89 1056.65 566.254C1058.33 563.617 1057.61 555.467 1057.61 551.393C1057.61 547.318 1054.02 541.326 1053.06 539.408C1052.1 537.491 1049.7 535.334 1048.98 533.656C1048.26 531.978 1048.5 529.581 1048.98 527.184C1049.46 524.787 1051.86 524.548 1054.02 524.068C1056.17 523.589 1057.61 525.746 1058.33 527.184C1059.05 528.622 1058.09 531.259 1057.61 531.978C1057.13 532.697 1055.69 532.937 1054.97 532.937C1054.26 532.937 1053.06 532.218 1053.06 531.259Z" fill="#242246" stroke="black" stroke-width="0.47938"/>
</g>
<g filter="url(#filter3_d_106_353)">
<path d="M135.146 650.272C136.104 650.272 136.584 650.032 136.824 647.635C138.501 646.916 138.501 647.635 139.22 647.635C139.939 647.635 139.94 650.272 139.22 651.47C138.501 652.669 135.146 652.189 133.468 651.47C131.79 650.751 131.79 649.313 128.434 647.635C125.079 645.957 119.087 643.56 115.012 642.841C110.937 642.122 106.862 642.841 102.308 642.841C98.665 642.841 94.7181 644.759 93.2 645.717C90.5634 643.081 81.6949 643.081 76.6614 644.759C71.628 646.437 69.4707 648.354 66.1151 649.313C62.7594 650.272 58.2053 650.272 55.8084 650.272C53.8909 650.272 52.6126 648.194 52.2131 647.156C53.8909 647.156 57.4383 647.06 58.2053 646.676C59.1641 646.197 59.6435 643.081 58.9244 642.122C58.2053 641.163 54.1306 640.924 52.2131 640.924C50.6791 640.924 48.8574 643.001 48.1384 644.04C45.7415 643.321 41.1873 642.122 39.0301 642.122C36.8729 642.122 33.5173 642.841 32.0791 643.081C30.641 643.321 28.4838 644.519 26.5663 647.156C24.6488 649.792 26.3266 653.148 26.5663 654.346C26.806 655.545 28.4838 657.223 30.1616 657.462C31.8394 657.702 33.0379 657.223 34.2364 656.504C35.4348 655.784 37.1126 652.189 35.1951 651.47C33.2776 650.751 31.8394 651.47 32.0791 653.148C32.2709 654.49 30.8807 654.506 30.1616 654.346C29.2029 653.867 29.9219 652.189 30.1616 650.272C30.4013 648.354 32.7982 647.156 34.2364 646.676C35.6745 646.197 37.3523 645.717 41.1873 645.717C44.2554 645.717 47.0997 646.676 48.1384 647.156C47.659 648.594 49.3368 650.272 50.5352 652.189C51.7337 654.107 55.329 654.346 58.2053 654.346C61.0816 654.346 62.7594 654.346 66.1151 653.148C69.4707 651.949 74.2645 649.313 76.6614 648.354C79.0583 647.395 88.6459 646.676 89.365 646.676C90.0841 646.676 92.2413 647.635 91.7619 648.354C91.2825 649.073 89.8444 650.272 89.365 651.47C88.8856 652.669 88.8856 655.784 89.8444 656.504C90.8031 657.223 92.0016 656.983 93.2 656.504C94.3985 656.024 94.3985 655.305 95.1175 654.346C95.8366 653.388 95.5969 650.272 95.8366 649.313C96.0763 648.354 97.5144 648.354 100.151 646.676C102.788 644.998 110.937 645.717 115.012 645.717C119.087 645.717 125.079 649.313 126.996 650.272C128.914 651.23 131.071 653.627 132.749 654.346C134.427 655.065 136.824 654.826 139.22 654.346C141.617 653.867 141.857 651.47 142.336 649.313C142.816 647.156 140.659 645.717 139.22 644.998C137.782 644.279 135.146 645.238 134.427 645.717C133.708 646.197 133.468 647.635 133.468 648.354C133.468 649.073 134.187 650.272 135.146 650.272Z" fill="#242246" stroke="black" stroke-width="0.47938"/>
<path d="M14.3477 531.259C14.3477 530.3 14.1081 529.821 11.7112 529.581C10.9921 527.903 11.7112 527.903 11.7112 527.184C11.7112 526.465 14.3477 526.465 15.5462 527.184C16.7447 527.903 16.2653 531.259 15.5462 532.937C14.8271 534.614 13.389 534.614 11.7112 537.97C10.0333 541.326 7.6365 547.318 6.91743 551.393C6.19836 555.467 6.91743 559.542 6.91743 564.096C6.91743 567.74 8.83491 571.686 9.79365 573.205C7.15706 575.841 7.15713 584.71 8.83495 589.743C10.5128 594.777 12.4302 596.934 13.389 600.289C14.3478 603.645 14.3478 608.199 14.3478 610.596C14.3478 612.514 12.2705 613.792 11.2318 614.191C11.2318 612.514 11.1359 608.966 10.7524 608.199C10.273 607.24 7.15713 606.761 6.19837 607.48C5.23961 608.199 4.99992 612.274 4.99992 614.191C4.99992 615.725 7.07723 617.547 8.11589 618.266C7.39682 620.663 6.19837 625.217 6.19837 627.374C6.19837 629.532 6.91744 632.887 7.15713 634.325C7.39682 635.764 8.59527 637.921 11.2318 639.838C13.8684 641.756 17.2241 640.078 18.4225 639.838C19.6209 639.599 21.2988 637.921 21.5385 636.243C21.7782 634.565 21.2988 633.367 20.5797 632.168C19.8606 630.97 16.2653 629.292 15.5462 631.209C14.8272 633.127 15.5462 634.565 17.2241 634.325C18.5663 634.134 18.5823 635.524 18.4225 636.243C17.9431 637.202 16.2653 636.483 14.3478 636.243C12.4302 636.003 11.2318 633.606 10.7524 632.168C10.273 630.73 9.79365 629.052 9.79365 625.217C9.79365 622.149 10.7524 619.305 11.2318 618.266C12.67 618.746 14.3478 617.068 16.2653 615.869C18.1829 614.671 18.4225 611.075 18.4225 608.199C18.4225 605.323 18.4225 603.645 17.2241 600.289C16.0257 596.934 13.389 592.14 12.4302 589.743C11.4715 587.346 10.7524 577.759 10.7524 577.04C10.7524 576.32 11.7112 574.163 12.4302 574.643C13.1493 575.122 14.3478 576.56 15.5462 577.04C16.7447 577.519 19.8606 577.519 20.5797 576.56C21.2988 575.601 21.0591 574.403 20.5797 573.205C20.1003 572.006 19.3813 572.006 18.4225 571.287C17.4637 570.568 14.3478 570.808 13.389 570.568C12.4302 570.328 12.4302 568.89 10.7524 566.254C9.07461 563.617 9.79364 555.467 9.79364 551.393C9.79364 547.318 13.389 541.326 14.3477 539.408C15.3065 537.491 17.7034 535.334 18.4225 533.656C19.1415 531.978 18.9019 529.581 18.4225 527.184C17.9431 524.787 15.5462 524.548 13.389 524.068C11.2318 523.589 9.79364 525.746 9.07457 527.184C8.3555 528.622 9.31426 531.259 9.79364 531.978C10.273 532.697 11.7112 532.937 12.4302 532.937C13.1493 532.937 14.3477 532.218 14.3477 531.259Z" fill="#242246" stroke="black" stroke-width="0.47938"/>
</g>
<defs>
<filter id="filter0_d_106_353" x="920.76" y="0.760254" width="145.884" height="142.004" filterUnits="userSpaceOnUse" color-interpolation-filters="sRGB">
<feFlood flood-opacity="0" result="BackgroundImageFix"/>
<feColorMatrix in="SourceAlpha" type="matrix" values="0 0 0 0 0 0 0 0 0 0 0 0 0 0 0 0 0 0 127 0" result="hardAlpha"/>
<feOffset dy="2"/>
<feGaussianBlur stdDeviation="2"/>
<feComposite in2="hardAlpha" operator="out"/>
<feColorMatrix type="matrix" values="0 0 0 0 0 0 0 0 0 0 0 0 0 0 0 0 0 0 0.25 0"/>
<feBlend mode="normal" in2="BackgroundImageFix" result="effect1_dropShadow_106_353"/>
<feBlend mode="normal" in="SourceGraphic" in2="effect1_dropShadow_106_353" result="shape"/>
</filter>
<filter id="filter1_d_106_353" x="0.760254" y="0.760254" width="145.884" height="142.004" filterUnits="userSpaceOnUse" color-interpolation-filters="sRGB">
<feFlood flood-opacity="0" result="BackgroundImageFix"/>
<feColorMatrix in="SourceAlpha" type="matrix" values="0 0 0 0 0 0 0 0 0 0 0 0 0 0 0 0 0 0 127 0" result="hardAlpha"/>
<feOffset dy="2"/>
<feGaussianBlur stdDeviation="2"/>
<feComposite in2="hardAlpha" operator="out"/>
<feColorMatrix type="matrix" values="0 0 0 0 0 0 0 0 0 0 0 0 0 0 0 0 0 0 0.25 0"/>
<feBlend mode="normal" in2="BackgroundImageFix" result="effect1_dropShadow_106_353"/>
<feBlend mode="normal" in="SourceGraphic" in2="effect1_dropShadow_106_353" result="shape"/>
</filter>
<filter id="filter2_d_106_353" x="920.76" y="521.76" width="145.884" height="142.004" filterUnits="userSpaceOnUse" color-interpolation-filters="sRGB">
<feFlood flood-opacity="0" result="BackgroundImageFix"/>
<feColorMatrix in="SourceAlpha" type="matrix" values="0 0 0 0 0 0 0 0 0 0 0 0 0 0 0 0 0 0 127 0" result="hardAlpha"/>
<feOffset dy="2"/>
<feGaussianBlur stdDeviation="2"/>
<feComposite in2="hardAlpha" operator="out"/>
<feColorMatrix type="matrix" values="0 0 0 0 0 0 0 0 0 0 0 0 0 0 0 0 0 0 0.25 0"/>
<feBlend mode="normal" in2="BackgroundImageFix" result="effect1_dropShadow_106_353"/>
<feBlend mode="normal" in="SourceGraphic" in2="effect1_dropShadow_106_353" result="shape"/>
</filter>
<filter id="filter3_d_106_353" x="0.760254" y="521.76" width="145.884" height="142.004" filterUnits="userSpaceOnUse" color-interpolation-filters="sRGB">
<feFlood flood-opacity="0" result="BackgroundImageFix"/>
<feColorMatrix in="SourceAlpha" type="matrix" values="0 0 0 0 0 0 0 0 0 0 0 0 0 0 0 0 0 0 127 0" result="hardAlpha"/>
<feOffset dy="2"/>
<feGaussianBlur stdDeviation="2"/>
<feComposite in2="hardAlpha" operator="out"/>
<feColorMatrix type="matrix" values="0 0 0 0 0 0 0 0 0 0 0 0 0 0 0 0 0 0 0.25 0"/>
<feBlend mode="normal" in2="BackgroundImageFix" result="effect1_dropShadow_106_353"/>
<feBlend mode="normal" in="SourceGraphic" in2="effect1_dropShadow_106_353" result="shape"/>
</filter>
</defs>
</svg>
