<svg width="895" height="564" viewBox="0 0 895 564" fill="none" xmlns="http://www.w3.org/2000/svg">
<g filter="url(#filter0_d_106_353)">
<path d="M760.259 10.2531C759.3 10.2531 758.821 10.4928 758.581 12.8897C756.903 13.6087 756.903 12.8897 756.184 12.8897C755.465 12.8897 755.465 10.2531 756.184 9.05459C756.903 7.85611 760.259 8.3355 761.937 9.05459C763.614 9.77369 763.614 11.2118 766.97 12.8897C770.326 14.5675 776.318 16.9643 780.393 17.6834C784.467 18.4025 788.542 17.6834 793.096 17.6834C796.74 17.6834 800.686 15.7659 802.205 14.8072C804.841 17.4438 813.71 17.4437 818.743 15.7659C823.777 14.0881 825.934 12.1706 829.289 11.2118C832.645 10.2531 837.199 10.2531 839.596 10.2531C841.514 10.2531 842.792 12.3304 843.191 13.369C841.514 13.369 837.966 13.4649 837.199 13.8484C836.24 14.3278 835.761 17.4437 836.48 18.4025C837.199 19.3612 841.274 19.6009 843.191 19.6009C844.725 19.6009 846.547 17.5236 847.266 16.4849C849.663 17.204 854.217 18.4025 856.374 18.4025C858.532 18.4025 861.887 17.6834 863.325 17.4437C864.764 17.204 866.921 16.0056 868.838 13.369C870.756 10.7325 869.078 7.37677 868.838 6.17836C868.599 4.97994 866.921 3.30204 865.243 3.06235C863.565 2.82266 862.367 3.30204 861.168 4.02113C859.97 4.74022 858.292 8.33553 860.209 9.05459C862.127 9.77366 863.565 9.05459 863.325 7.37677C863.134 6.0345 864.524 6.01855 865.243 6.17836C866.202 6.65777 865.483 8.33553 865.243 10.2531C865.003 12.1706 862.606 13.369 861.168 13.8484C859.73 14.3278 858.052 14.8072 854.217 14.8072C851.149 14.8072 848.305 13.8484 847.266 13.369C847.746 11.9308 846.068 10.2531 844.869 8.33553C843.671 6.41797 840.075 6.17836 837.199 6.17836C834.323 6.17836 832.645 6.17836 829.289 7.37677C825.934 8.57518 821.14 11.2118 818.743 12.1706C816.346 13.1294 806.759 13.8484 806.04 13.8484C805.32 13.8484 803.163 12.8897 803.643 12.1706C804.122 11.4515 805.56 10.2531 806.04 9.05459C806.519 7.85611 806.519 4.7402 805.56 4.02113C804.601 3.30206 803.403 3.54175 802.205 4.02113C801.006 4.50051 801.006 5.21958 800.287 6.17836C799.568 7.13713 799.808 10.2531 799.568 11.2118C799.328 12.1706 797.89 12.1706 795.254 13.8484C792.617 15.5262 784.467 14.8072 780.393 14.8072C776.318 14.8072 770.326 11.2118 768.408 10.2531C766.491 9.29432 764.334 6.89742 762.656 6.17836C760.978 5.45929 758.581 5.69898 756.184 6.17836C753.787 6.65774 753.548 9.05463 753.068 11.2118C752.589 13.369 754.746 14.8072 756.184 15.5263C757.622 16.2453 760.259 15.2866 760.978 14.8072C761.697 14.3278 761.937 12.8897 761.937 12.1706C761.937 11.4515 761.218 10.2531 760.259 10.2531Z" fill="#242246" stroke="black" stroke-width="0.47938"/>
<path d="M881.057 129.266C881.057 130.224 881.296 130.704 883.693 130.944C884.412 132.621 883.693 132.621 883.693 133.34C883.693 134.06 881.057 134.06 879.858 133.34C878.66 132.621 879.139 129.266 879.858 127.588C880.577 125.91 882.015 125.91 883.693 122.554C885.371 119.199 887.768 113.207 888.487 109.132C889.206 105.057 888.487 100.982 888.487 96.4283C888.487 92.785 886.57 88.8381 885.611 87.3201C888.247 84.6835 888.247 75.8149 886.569 70.7815C884.892 65.748 882.974 63.5908 882.015 60.2351C881.057 56.8795 881.057 52.3253 881.057 49.9285C881.057 48.0109 883.134 46.7326 884.173 46.3331C884.173 48.0109 884.268 51.5583 884.652 52.3253C885.131 53.2841 888.247 53.7635 889.206 53.0444C890.165 52.3253 890.405 48.2506 890.405 46.3331C890.405 44.7991 888.327 42.9774 887.289 42.2584C888.008 39.8615 889.206 35.3074 889.206 33.1502C889.206 30.993 888.487 27.6373 888.247 26.1992C888.008 24.761 886.809 22.6038 884.173 20.6863C881.536 18.7688 878.18 20.4466 876.982 20.6863C875.784 20.926 874.106 22.6038 873.866 24.2816C873.626 25.9595 874.106 27.1579 874.825 28.3564C875.544 29.5548 879.139 31.2327 879.858 29.3151C880.577 27.3976 879.858 25.9595 878.18 26.1992C876.838 26.3909 876.822 25.0007 876.982 24.2816C877.461 23.3229 879.139 24.042 881.057 24.2816C882.974 24.5213 884.173 26.9182 884.652 28.3564C885.131 29.7945 885.611 31.4723 885.611 35.3074C885.611 38.3754 884.652 41.2197 884.173 42.2584C882.734 41.779 881.057 43.4568 879.139 44.6553C877.222 45.8537 876.982 49.4491 876.982 52.3253C876.982 55.2016 876.982 56.8795 878.18 60.2351C879.379 63.5908 882.015 68.3846 882.974 70.7815C883.933 73.1784 884.652 82.7659 884.652 83.485C884.652 84.2041 883.693 86.3613 882.974 85.8819C882.255 85.4025 881.057 83.9644 879.858 83.485C878.66 83.0056 875.544 83.0056 874.825 83.9644C874.106 84.9232 874.345 86.1216 874.825 87.3201C875.304 88.5185 876.023 88.5185 876.982 89.2376C877.941 89.9566 881.057 89.7169 882.015 89.9566C882.974 90.1963 882.974 91.6345 884.652 94.2711C886.33 96.9076 885.611 105.057 885.611 109.132C885.611 113.207 882.015 119.199 881.057 121.116C880.098 123.034 877.701 125.191 876.982 126.869C876.263 128.547 876.503 130.944 876.982 133.34C877.461 135.737 879.858 135.977 882.015 136.456C884.173 136.936 885.611 134.779 886.33 133.34C887.049 131.902 886.09 129.266 885.611 128.547C885.131 127.828 883.693 127.588 882.974 127.588C882.255 127.588 881.057 128.307 881.057 129.266Z" fill="#242246" stroke="black" stroke-width="0.47938"/>
</g>
<g filter="url(#filter1_d_106_353)">
<path d="M135.146 10.2531C136.104 10.2531 136.584 10.4928 136.823 12.8897C138.501 13.6087 138.501 12.8897 139.22 12.8897C139.939 12.8897 139.939 10.2531 139.22 9.05459C138.501 7.85611 135.146 8.3355 133.468 9.05459C131.79 9.77369 131.79 11.2118 128.434 12.8897C125.079 14.5675 119.086 16.9643 115.012 17.6834C110.937 18.4025 106.862 17.6834 102.308 17.6834C98.6649 17.6834 94.718 15.7659 93.2 14.8072C90.5634 17.4438 81.6949 17.4437 76.6614 15.7659C71.6279 14.0881 69.4707 12.1706 66.115 11.2118C62.7594 10.2531 58.2053 10.2531 55.8084 10.2531C53.8908 10.2531 52.6125 12.3304 52.213 13.369C53.8908 13.369 57.4383 13.4649 58.2053 13.8484C59.164 14.3278 59.6434 17.4437 58.9243 18.4025C58.2053 19.3612 54.1305 19.6009 52.213 19.6009C50.679 19.6009 48.8574 17.5236 48.1383 16.4849C45.7414 17.204 41.1873 18.4025 39.0301 18.4025C36.8729 18.4025 33.5172 17.6834 32.0791 17.4437C30.6409 17.204 28.4837 16.0056 26.5662 13.369C24.6487 10.7325 26.3265 7.37677 26.5662 6.17836C26.8059 4.97994 28.4837 3.30204 30.1616 3.06235C31.8394 2.82266 33.0378 3.30204 34.2363 4.02113C35.4347 4.74022 37.1126 8.33553 35.195 9.05459C33.2775 9.77366 31.8394 9.05459 32.0791 7.37677C32.2708 6.0345 30.8806 6.01855 30.1616 6.17836C29.2028 6.65777 29.9219 8.33553 30.1616 10.2531C30.4013 12.1706 32.7981 13.369 34.2363 13.8484C35.6744 14.3278 37.3523 14.8072 41.1873 14.8072C44.2553 14.8072 47.0996 13.8484 48.1383 13.369C47.6589 11.9308 49.3367 10.2531 50.5352 8.33553C51.7336 6.41797 55.329 6.17836 58.2053 6.17836C61.0815 6.17836 62.7594 6.17836 66.115 7.37677C69.4707 8.57518 74.2645 11.2118 76.6614 12.1706C79.0583 13.1294 88.6459 13.8484 89.3649 13.8484C90.084 13.8484 92.2412 12.8897 91.7618 12.1706C91.2824 11.4515 89.8443 10.2531 89.3649 9.05459C88.8856 7.85611 88.8856 4.7402 89.8443 4.02113C90.8031 3.30206 92.0015 3.54175 93.2 4.02113C94.3984 4.50051 94.3984 5.21958 95.1175 6.17836C95.8366 7.13713 95.5969 10.2531 95.8366 11.2118C96.0762 12.1706 97.5144 12.1706 100.151 13.8484C102.788 15.5262 110.937 14.8072 115.012 14.8072C119.086 14.8072 125.079 11.2118 126.996 10.2531C128.914 9.29432 131.071 6.89742 132.749 6.17836C134.427 5.45929 136.823 5.69898 139.22 6.17836C141.617 6.65774 141.857 9.05463 142.336 11.2118C142.816 13.369 140.659 14.8072 139.22 15.5263C137.782 16.2453 135.146 15.2866 134.427 14.8072C133.708 14.3278 133.468 12.8897 133.468 12.1706C133.468 11.4515 134.187 10.2531 135.146 10.2531Z" fill="#242246" stroke="black" stroke-width="0.47938"/>
<path d="M14.3477 129.266C14.3477 130.224 14.1081 130.704 11.7112 130.944C10.9921 132.621 11.7112 132.621 11.7112 133.34C11.7112 134.06 14.3477 134.06 15.5462 133.34C16.7447 132.621 16.2653 129.266 15.5462 127.588C14.8271 125.91 13.389 125.91 11.7112 122.554C10.0333 119.199 7.6365 113.207 6.91743 109.132C6.19836 105.057 6.91743 100.982 6.91743 96.4283C6.91743 92.785 8.83491 88.8381 9.79365 87.3201C7.15706 84.6835 7.15713 75.8149 8.83495 70.7815C10.5128 65.748 12.4302 63.5908 13.389 60.2351C14.3478 56.8795 14.3478 52.3253 14.3478 49.9285C14.3478 48.0109 12.2705 46.7326 11.2318 46.3331C11.2318 48.0109 11.1359 51.5583 10.7524 52.3253C10.273 53.2841 7.15713 53.7635 6.19837 53.0444C5.23961 52.3253 4.99992 48.2506 4.99992 46.3331C4.99992 44.7991 7.07723 42.9774 8.11589 42.2584C7.39682 39.8615 6.19837 35.3074 6.19837 33.1502C6.19837 30.993 6.91744 27.6373 7.15713 26.1992C7.39682 24.761 8.59527 22.6038 11.2318 20.6863C13.8684 18.7688 17.2241 20.4466 18.4225 20.6863C19.6209 20.926 21.2988 22.6038 21.5385 24.2816C21.7782 25.9595 21.2988 27.1579 20.5797 28.3564C19.8606 29.5548 16.2653 31.2327 15.5462 29.3151C14.8272 27.3976 15.5462 25.9595 17.2241 26.1992C18.5663 26.3909 18.5823 25.0007 18.4225 24.2816C17.9431 23.3229 16.2653 24.042 14.3478 24.2816C12.4302 24.5213 11.2318 26.9182 10.7524 28.3564C10.273 29.7945 9.79365 31.4723 9.79365 35.3074C9.79365 38.3754 10.7524 41.2197 11.2318 42.2584C12.67 41.779 14.3478 43.4568 16.2653 44.6553C18.1829 45.8537 18.4225 49.4491 18.4225 52.3253C18.4225 55.2016 18.4225 56.8795 17.2241 60.2351C16.0257 63.5908 13.389 68.3846 12.4302 70.7815C11.4715 73.1784 10.7524 82.7659 10.7524 83.485C10.7524 84.2041 11.7112 86.3613 12.4302 85.8819C13.1493 85.4025 14.3478 83.9644 15.5462 83.485C16.7447 83.0056 19.8606 83.0056 20.5797 83.9644C21.2988 84.9232 21.0591 86.1216 20.5797 87.3201C20.1003 88.5185 19.3813 88.5185 18.4225 89.2376C17.4637 89.9566 14.3478 89.7169 13.389 89.9566C12.4302 90.1963 12.4302 91.6345 10.7524 94.2711C9.07461 96.9076 9.79364 105.057 9.79364 109.132C9.79364 113.207 13.389 119.199 14.3477 121.116C15.3065 123.034 17.7034 125.191 18.4225 126.869C19.1415 128.547 18.9019 130.944 18.4225 133.34C17.9431 135.737 15.5462 135.977 13.389 136.456C11.2318 136.936 9.79364 134.779 9.07457 133.34C8.3555 131.902 9.31426 129.266 9.79364 128.547C10.273 127.828 11.7112 127.588 12.4302 127.588C13.1493 127.588 14.3477 128.307 14.3477 129.266Z" fill="#242246" stroke="black" stroke-width="0.47938"/>
</g>
<g filter="url(#filter2_d_106_353)">
<path d="M760.259 550.271C759.3 550.271 758.821 550.032 758.581 547.635C756.903 546.916 756.903 547.635 756.184 547.635C755.465 547.635 755.465 550.271 756.184 551.47C756.903 552.668 760.259 552.189 761.937 551.47C763.614 550.751 763.614 549.313 766.97 547.635C770.326 545.957 776.318 543.56 780.393 542.841C784.467 542.122 788.542 542.841 793.096 542.841C796.74 542.841 800.686 544.759 802.205 545.717C804.841 543.081 813.71 543.081 818.743 544.759C823.777 546.436 825.934 548.354 829.289 549.313C832.645 550.271 837.199 550.271 839.596 550.271C841.514 550.271 842.792 548.194 843.191 547.156C841.514 547.156 837.966 547.06 837.199 546.676C836.24 546.197 835.761 543.081 836.48 542.122C837.199 541.163 841.274 540.924 843.191 540.924C844.725 540.924 846.547 543.001 847.266 544.04C849.663 543.321 854.217 542.122 856.374 542.122C858.532 542.122 861.887 542.841 863.325 543.081C864.764 543.321 866.921 544.519 868.838 547.156C870.756 549.792 869.078 553.148 868.838 554.346C868.599 555.545 866.921 557.222 865.243 557.462C863.565 557.702 862.367 557.222 861.168 556.503C859.97 555.784 858.292 552.189 860.209 551.47C862.127 550.751 863.565 551.47 863.325 553.148C863.134 554.49 864.524 554.506 865.243 554.346C866.202 553.867 865.483 552.189 865.243 550.271C865.003 548.354 862.606 547.156 861.168 546.676C859.73 546.197 858.052 545.717 854.217 545.717C851.149 545.717 848.305 546.676 847.266 547.156C847.746 548.594 846.068 550.271 844.869 552.189C843.671 554.107 840.075 554.346 837.199 554.346C834.323 554.346 832.645 554.346 829.289 553.148C825.934 551.949 821.14 549.313 818.743 548.354C816.346 547.395 806.759 546.676 806.04 546.676C805.32 546.676 803.163 547.635 803.643 548.354C804.122 549.073 805.56 550.271 806.04 551.47C806.519 552.668 806.519 555.784 805.56 556.503C804.601 557.222 803.403 556.983 802.205 556.503C801.006 556.024 801.006 555.305 800.287 554.346C799.568 553.387 799.808 550.271 799.568 549.313C799.328 548.354 797.89 548.354 795.254 546.676C792.617 544.998 784.467 545.717 780.393 545.717C776.318 545.717 770.326 549.313 768.408 550.271C766.491 551.23 764.334 553.627 762.656 554.346C760.978 555.065 758.581 554.826 756.184 554.346C753.787 553.867 753.548 551.47 753.068 549.313C752.589 547.155 754.746 545.717 756.184 544.998C757.622 544.279 760.259 545.238 760.978 545.717C761.697 546.197 761.937 547.635 761.937 548.354C761.937 549.073 761.218 550.271 760.259 550.271Z" fill="#242246" stroke="black" stroke-width="0.47938"/>
<path d="M881.057 431.259C881.057 430.3 881.296 429.821 883.693 429.581C884.412 427.903 883.693 427.903 883.693 427.184C883.693 426.465 881.057 426.465 879.858 427.184C878.66 427.903 879.139 431.259 879.858 432.937C880.577 434.614 882.015 434.614 883.693 437.97C885.371 441.326 887.768 447.318 888.487 451.393C889.206 455.467 888.487 459.542 888.487 464.096C888.487 467.74 886.57 471.686 885.611 473.205C888.247 475.841 888.247 484.71 886.569 489.743C884.892 494.777 882.974 496.934 882.015 500.289C881.057 503.645 881.057 508.199 881.057 510.596C881.057 512.514 883.134 513.792 884.173 514.191C884.173 512.514 884.268 508.966 884.652 508.199C885.131 507.24 888.247 506.761 889.206 507.48C890.165 508.199 890.405 512.274 890.405 514.191C890.405 515.725 888.327 517.547 887.289 518.266C888.008 520.663 889.206 525.217 889.206 527.374C889.206 529.532 888.487 532.887 888.247 534.325C888.008 535.764 886.809 537.921 884.173 539.838C881.536 541.756 878.18 540.078 876.982 539.838C875.784 539.599 874.106 537.921 873.866 536.243C873.626 534.565 874.106 533.367 874.825 532.168C875.544 530.97 879.139 529.292 879.858 531.209C880.577 533.127 879.858 534.565 878.18 534.325C876.838 534.134 876.822 535.524 876.982 536.243C877.461 537.202 879.139 536.483 881.057 536.243C882.974 536.003 884.173 533.606 884.652 532.168C885.131 530.73 885.611 529.052 885.611 525.217C885.611 522.149 884.652 519.305 884.173 518.266C882.734 518.746 881.057 517.068 879.139 515.869C877.222 514.671 876.982 511.075 876.982 508.199C876.982 505.323 876.982 503.645 878.18 500.289C879.379 496.934 882.015 492.14 882.974 489.743C883.933 487.346 884.652 477.759 884.652 477.04C884.652 476.32 883.693 474.163 882.974 474.643C882.255 475.122 881.057 476.56 879.858 477.04C878.66 477.519 875.544 477.519 874.825 476.56C874.106 475.601 874.345 474.403 874.825 473.205C875.304 472.006 876.023 472.006 876.982 471.287C877.941 470.568 881.057 470.808 882.015 470.568C882.974 470.328 882.974 468.89 884.652 466.254C886.33 463.617 885.611 455.467 885.611 451.393C885.611 447.318 882.015 441.326 881.057 439.408C880.098 437.491 877.701 435.334 876.982 433.656C876.263 431.978 876.503 429.581 876.982 427.184C877.461 424.787 879.858 424.548 882.015 424.068C884.173 423.589 885.611 425.746 886.33 427.184C887.049 428.622 886.09 431.259 885.611 431.978C885.131 432.697 883.693 432.937 882.974 432.937C882.255 432.937 881.057 432.218 881.057 431.259Z" fill="#242246" stroke="black" stroke-width="0.47938"/>
</g>
<g filter="url(#filter3_d_106_353)">
<path d="M135.146 550.271C136.104 550.271 136.584 550.032 136.823 547.635C138.501 546.916 138.501 547.635 139.22 547.635C139.939 547.635 139.939 550.271 139.22 551.47C138.501 552.668 135.146 552.189 133.468 551.47C131.79 550.751 131.79 549.313 128.434 547.635C125.079 545.957 119.086 543.56 115.012 542.841C110.937 542.122 106.862 542.841 102.308 542.841C98.6649 542.841 94.718 544.759 93.2 545.717C90.5634 543.081 81.6949 543.081 76.6614 544.759C71.6279 546.436 69.4707 548.354 66.115 549.313C62.7594 550.271 58.2053 550.271 55.8084 550.271C53.8908 550.271 52.6125 548.194 52.213 547.156C53.8908 547.156 57.4383 547.06 58.2053 546.676C59.164 546.197 59.6434 543.081 58.9243 542.122C58.2053 541.163 54.1305 540.924 52.213 540.924C50.679 540.924 48.8574 543.001 48.1383 544.04C45.7414 543.321 41.1873 542.122 39.0301 542.122C36.8729 542.122 33.5172 542.841 32.0791 543.081C30.6409 543.321 28.4837 544.519 26.5662 547.156C24.6487 549.792 26.3265 553.148 26.5662 554.346C26.8059 555.545 28.4837 557.222 30.1616 557.462C31.8394 557.702 33.0378 557.222 34.2363 556.503C35.4347 555.784 37.1126 552.189 35.195 551.47C33.2775 550.751 31.8394 551.47 32.0791 553.148C32.2708 554.49 30.8806 554.506 30.1616 554.346C29.2028 553.867 29.9219 552.189 30.1616 550.271C30.4013 548.354 32.7981 547.156 34.2363 546.676C35.6744 546.197 37.3523 545.717 41.1873 545.717C44.2553 545.717 47.0996 546.676 48.1383 547.156C47.6589 548.594 49.3367 550.271 50.5352 552.189C51.7336 554.107 55.329 554.346 58.2053 554.346C61.0815 554.346 62.7594 554.346 66.115 553.148C69.4707 551.949 74.2645 549.313 76.6614 548.354C79.0583 547.395 88.6459 546.676 89.3649 546.676C90.084 546.676 92.2412 547.635 91.7618 548.354C91.2824 549.073 89.8443 550.271 89.3649 551.47C88.8856 552.668 88.8856 555.784 89.8443 556.503C90.8031 557.222 92.0015 556.983 93.2 556.503C94.3984 556.024 94.3984 555.305 95.1175 554.346C95.8366 553.387 95.5969 550.271 95.8366 549.313C96.0762 548.354 97.5144 548.354 100.151 546.676C102.788 544.998 110.937 545.717 115.012 545.717C119.086 545.717 125.079 549.313 126.996 550.271C128.914 551.23 131.071 553.627 132.749 554.346C134.427 555.065 136.823 554.826 139.22 554.346C141.617 553.867 141.857 551.47 142.336 549.313C142.816 547.155 140.659 545.717 139.22 544.998C137.782 544.279 135.146 545.238 134.427 545.717C133.708 546.197 133.468 547.635 133.468 548.354C133.468 549.073 134.187 550.271 135.146 550.271Z" fill="#242246" stroke="black" stroke-width="0.47938"/>
<path d="M14.3477 431.259C14.3477 430.3 14.1081 429.821 11.7112 429.581C10.9921 427.903 11.7112 427.903 11.7112 427.184C11.7112 426.465 14.3477 426.465 15.5462 427.184C16.7447 427.903 16.2653 431.259 15.5462 432.937C14.8271 434.614 13.389 434.614 11.7112 437.97C10.0333 441.326 7.6365 447.318 6.91743 451.393C6.19836 455.467 6.91743 459.542 6.91743 464.096C6.91743 467.74 8.83491 471.686 9.79365 473.205C7.15706 475.841 7.15713 484.71 8.83495 489.743C10.5128 494.777 12.4302 496.934 13.389 500.289C14.3478 503.645 14.3478 508.199 14.3478 510.596C14.3478 512.514 12.2705 513.792 11.2318 514.191C11.2318 512.514 11.1359 508.966 10.7524 508.199C10.273 507.24 7.15713 506.761 6.19837 507.48C5.23961 508.199 4.99992 512.274 4.99992 514.191C4.99992 515.725 7.07723 517.547 8.11589 518.266C7.39682 520.663 6.19837 525.217 6.19837 527.374C6.19837 529.532 6.91744 532.887 7.15713 534.325C7.39682 535.764 8.59527 537.921 11.2318 539.838C13.8684 541.756 17.2241 540.078 18.4225 539.838C19.6209 539.599 21.2988 537.921 21.5385 536.243C21.7782 534.565 21.2988 533.367 20.5797 532.168C19.8606 530.97 16.2653 529.292 15.5462 531.209C14.8272 533.127 15.5462 534.565 17.2241 534.325C18.5663 534.134 18.5823 535.524 18.4225 536.243C17.9431 537.202 16.2653 536.483 14.3478 536.243C12.4302 536.003 11.2318 533.606 10.7524 532.168C10.273 530.73 9.79365 529.052 9.79365 525.217C9.79365 522.149 10.7524 519.305 11.2318 518.266C12.67 518.746 14.3478 517.068 16.2653 515.869C18.1829 514.671 18.4225 511.075 18.4225 508.199C18.4225 505.323 18.4225 503.645 17.2241 500.289C16.0257 496.934 13.389 492.14 12.4302 489.743C11.4715 487.346 10.7524 477.759 10.7524 477.04C10.7524 476.32 11.7112 474.163 12.4302 474.643C13.1493 475.122 14.3478 476.56 15.5462 477.04C16.7447 477.519 19.8606 477.519 20.5797 476.56C21.2988 475.601 21.0591 474.403 20.5797 473.205C20.1003 472.006 19.3813 472.006 18.4225 471.287C17.4637 470.568 14.3478 470.808 13.389 470.568C12.4302 470.328 12.4302 468.89 10.7524 466.254C9.07461 463.617 9.79364 455.467 9.79364 451.393C9.79364 447.318 13.389 441.326 14.3477 439.408C15.3065 437.491 17.7034 435.334 18.4225 433.656C19.1415 431.978 18.9019 429.581 18.4225 427.184C17.9431 424.787 15.5462 424.548 13.389 424.068C11.2318 423.589 9.79364 425.746 9.07457 427.184C8.3555 428.622 9.31426 431.259 9.79364 431.978C10.273 432.697 11.7112 432.937 12.4302 432.937C13.1493 432.937 14.3477 432.218 14.3477 431.259Z" fill="#242246" stroke="black" stroke-width="0.47938"/>
</g>
<defs>
<filter id="filter0_d_106_353" x="748.76" y="0.760315" width="145.884" height="142.004" filterUnits="userSpaceOnUse" color-interpolation-filters="sRGB">
<feFlood flood-opacity="0" result="BackgroundImageFix"/>
<feColorMatrix in="SourceAlpha" type="matrix" values="0 0 0 0 0 0 0 0 0 0 0 0 0 0 0 0 0 0 127 0" result="hardAlpha"/>
<feOffset dy="2"/>
<feGaussianBlur stdDeviation="2"/>
<feComposite in2="hardAlpha" operator="out"/>
<feColorMatrix type="matrix" values="0 0 0 0 0 0 0 0 0 0 0 0 0 0 0 0 0 0 0.25 0"/>
<feBlend mode="normal" in2="BackgroundImageFix" result="effect1_dropShadow_106_353"/>
<feBlend mode="normal" in="SourceGraphic" in2="effect1_dropShadow_106_353" result="shape"/>
</filter>
<filter id="filter1_d_106_353" x="0.760254" y="0.760315" width="145.884" height="142.004" filterUnits="userSpaceOnUse" color-interpolation-filters="sRGB">
<feFlood flood-opacity="0" result="BackgroundImageFix"/>
<feColorMatrix in="SourceAlpha" type="matrix" values="0 0 0 0 0 0 0 0 0 0 0 0 0 0 0 0 0 0 127 0" result="hardAlpha"/>
<feOffset dy="2"/>
<feGaussianBlur stdDeviation="2"/>
<feComposite in2="hardAlpha" operator="out"/>
<feColorMatrix type="matrix" values="0 0 0 0 0 0 0 0 0 0 0 0 0 0 0 0 0 0 0.25 0"/>
<feBlend mode="normal" in2="BackgroundImageFix" result="effect1_dropShadow_106_353"/>
<feBlend mode="normal" in="SourceGraphic" in2="effect1_dropShadow_106_353" result="shape"/>
</filter>
<filter id="filter2_d_106_353" x="748.76" y="421.76" width="145.884" height="142.004" filterUnits="userSpaceOnUse" color-interpolation-filters="sRGB">
<feFlood flood-opacity="0" result="BackgroundImageFix"/>
<feColorMatrix in="SourceAlpha" type="matrix" values="0 0 0 0 0 0 0 0 0 0 0 0 0 0 0 0 0 0 127 0" result="hardAlpha"/>
<feOffset dy="2"/>
<feGaussianBlur stdDeviation="2"/>
<feComposite in2="hardAlpha" operator="out"/>
<feColorMatrix type="matrix" values="0 0 0 0 0 0 0 0 0 0 0 0 0 0 0 0 0 0 0.25 0"/>
<feBlend mode="normal" in2="BackgroundImageFix" result="effect1_dropShadow_106_353"/>
<feBlend mode="normal" in="SourceGraphic" in2="effect1_dropShadow_106_353" result="shape"/>
</filter>
<filter id="filter3_d_106_353" x="0.760254" y="421.76" width="145.884" height="142.004" filterUnits="userSpaceOnUse" color-interpolation-filters="sRGB">
<feFlood flood-opacity="0" result="BackgroundImageFix"/>
<feColorMatrix in="SourceAlpha" type="matrix" values="0 0 0 0 0 0 0 0 0 0 0 0 0 0 0 0 0 0 127 0" result="hardAlpha"/>
<feOffset dy="2"/>
<feGaussianBlur stdDeviation="2"/>
<feComposite in2="hardAlpha" operator="out"/>
<feColorMatrix type="matrix" values="0 0 0 0 0 0 0 0 0 0 0 0 0 0 0 0 0 0 0.25 0"/>
<feBlend mode="normal" in2="BackgroundImageFix" result="effect1_dropShadow_106_353"/>
<feBlend mode="normal" in="SourceGraphic" in2="effect1_dropShadow_106_353" result="shape"/>
</filter>
</defs>
</svg>
