<svg width="280" height="322" viewBox="0 0 280 322" fill="none" xmlns="http://www.w3.org/2000/svg">
<g filter="url(#filter0_di_125_189)">
<path d="M262.103 164.858C267.133 144.599 269.369 69.5048 267.133 31.9578C157.051 -5.31925 123.513 -5.31925 17.2768 31.9578C10.8488 54.3779 9.65849 138.926 17.2768 164.858C32.704 217.37 105.872 277.499 140.528 301C210.119 264.533 256.496 187.437 262.103 164.858Z" fill="#EDD396"/>
<path d="M262.103 164.858C267.133 144.599 269.369 69.5048 267.133 31.9578C157.051 -5.31925 123.513 -5.31925 17.2768 31.9578C10.8488 54.3779 9.65849 138.926 17.2768 164.858C32.704 217.37 105.872 277.499 140.528 301C210.119 264.533 256.496 187.437 262.103 164.858Z" stroke="white" stroke-width="6"/>
</g>
<path d="M230.43 92.4233C226.965 90.9579 223.728 89.0986 220.786 86.7513C219.855 86.008 218.974 85.1893 218.147 84.3339C216.62 82.756 214.864 81.4815 212.88 80.6086C210.858 79.7185 209.57 78.2531 208.744 76.2878C208.022 74.5712 207.658 72.7557 207.319 70.937C207.235 70.4822 207.314 69.9954 207.323 69.5235C207.331 69.1637 207.366 68.8026 207.36 68.4444C207.348 67.754 207.13 67.2146 206.466 66.8322C205.499 66.2766 204.84 65.417 204.457 64.3616C204.182 63.6012 204.108 62.8249 204.34 62.0369C204.652 60.9763 204.988 59.9222 205.279 58.8565C205.42 58.3379 205.517 57.8011 205.572 57.2656C205.636 56.6465 205.493 56.0527 205.168 55.5146C204.775 54.868 204.113 54.6631 203.492 55.0978C203.061 55.3996 202.665 55.8067 202.375 56.2472C201.15 58.1038 200.234 60.1073 199.67 62.2657C199.465 63.054 199.019 63.7007 198.447 64.2576C197.558 65.1198 196.704 65.2335 195.616 64.6426C193.854 63.6851 192.103 62.7066 190.336 61.7568C189.344 61.224 188.342 60.7083 187.325 60.2227C184.167 58.7126 182.806 54.7066 184.318 51.5025C184.856 50.3599 185.131 49.1139 185.22 47.8446C185.241 47.5351 185.208 47.2109 185.14 46.9069C184.966 46.1202 184.435 45.7724 183.639 45.939C182.725 46.1293 181.977 46.6213 181.379 47.3341C180.394 48.511 179.755 49.8812 179.283 51.3213C178.862 52.6068 178.505 53.9147 178.167 55.2239C177.876 56.3519 177.367 57.3253 176.433 58.0487C175.882 58.4759 175.256 58.7194 174.558 58.731C171.561 58.7826 168.56 58.8555 165.577 58.5168C164.056 58.3437 162.548 58.0487 161.035 57.8066C160.947 57.792 160.854 57.7748 160.775 57.7353C158.844 56.7739 157.021 55.6605 155.667 53.9293C154.776 52.7893 154.301 51.4866 154.398 50.0306C154.431 49.5243 154.612 49.0229 154.764 48.5308C154.977 47.842 155.24 47.1688 155.452 46.4784C155.607 45.9731 155.581 45.9125 155.336 45.2405C154.742 45.3462 154.169 45.435 153.602 45.554C153.006 45.6784 152.422 45.8557 151.826 45.9692C151.032 46.1199 150.293 45.9494 149.661 45.4402C149.206 45.0739 148.768 44.6824 148.351 44.2736C147.965 43.8954 147.636 43.4591 147.247 43.0834C146.876 42.7262 146.485 42.3745 146.057 42.0928C145.449 41.6935 144.889 41.9988 144.848 42.7288C144.818 43.2604 144.972 43.7605 145.262 44.2049C145.877 45.1504 146.491 46.0959 147.13 47.0242C147.781 47.9723 148.482 48.8864 149.125 49.84C149.784 50.8186 150.279 51.8804 150.556 53.0363C150.733 53.777 150.783 54.4936 150.064 54.9844C149.319 55.492 148.53 55.4631 147.769 55.0067C146.681 54.3546 145.686 53.5718 144.843 52.625C143.944 51.6146 143.094 50.5606 142.218 49.5292C141.253 48.3957 140.296 47.2557 139.312 46.1397C138.668 45.4097 137.946 44.7631 137.014 44.4033C136.95 44.3793 136.889 44.3491 136.826 44.3265C135.735 43.9469 135.339 44.2552 135.414 45.4321C135.46 46.1766 135.767 46.8298 136.163 47.4395C136.606 48.1192 137.045 48.8083 137.552 49.4416C139.031 51.2905 140.504 53.1475 142.05 54.9393C144.035 57.239 146.504 58.9385 149.186 60.3229C151.086 61.3057 153.152 61.799 155.242 62.1983C156.014 62.3464 156.801 62.41 157.53 62.7669C159.283 63.6239 160.406 65.7175 160.067 67.5806C159.943 68.2616 159.66 68.8674 159.124 69.3316C158.808 69.6055 158.592 69.9374 158.489 70.3458C158.396 70.7172 158.446 71.0615 158.659 71.3801C159.276 72.3071 160.083 73.0014 161.145 73.3771C161.358 73.4523 161.568 73.545 161.788 73.5888C163.252 73.8743 164.519 74.6176 165.808 75.3093C168.272 76.6317 170.781 77.8641 173.375 78.9117C176.631 80.2264 179.977 81.2128 183.492 81.5356C183.872 81.57 184.257 81.5502 184.639 81.5622C185.448 81.5875 186.258 81.5939 187.064 81.6481C187.873 81.7035 188.619 82.013 189.238 82.5077C190.27 83.3329 191.422 83.9371 192.583 84.5364C192.922 84.7121 193.257 84.9014 193.581 85.105C194.886 85.9289 195.304 87.1707 194.679 88.6043C194.365 89.321 193.987 90.0341 193.51 90.6503C192.258 92.2716 191.586 94.1205 191.293 96.1055C191.018 97.9767 190.875 99.868 190.66 101.749C190.393 104.076 190.191 106.416 189.819 108.727C189.303 111.94 188.447 115.078 187.422 118.166C187.131 119.043 186.851 119.927 186.516 120.787C185.519 123.342 183.795 125.332 181.618 126.954C179.47 128.553 177.072 129.622 174.48 130.267C169.651 131.468 164.743 131.8 159.785 131.536C156.9 131.383 154.129 130.718 151.406 129.779C148.328 128.718 145.398 127.323 142.438 125.991C140.424 125.085 138.403 124.182 136.339 123.403C135.188 122.969 133.952 122.731 132.735 122.51C130.518 122.107 128.29 121.752 126.059 121.431C124.541 121.213 123.008 121.132 121.474 121.247C121.187 121.268 120.879 121.306 120.627 121.429C119.075 122.183 117.444 122.711 115.778 123.12C114.008 123.554 112.337 124.202 110.794 125.166C108.55 126.568 106.039 127.198 103.488 127.708C102.123 127.982 100.754 127.931 99.3905 127.635C99.0916 127.57 98.7584 127.554 98.4609 127.615C97.9504 127.719 97.7812 128.042 97.8405 128.562C98.0178 130.117 98.8907 131.159 100.245 131.849C100.686 132.073 101.147 132.261 101.578 132.503C101.829 132.644 102.062 132.837 102.264 133.043C102.669 133.457 102.767 133.95 102.482 134.47C102.126 135.122 101.816 135.814 101.358 136.39C100.034 138.058 99.0239 139.918 97.9115 141.718C97.6272 142.177 97.3296 142.629 97.0058 143.062C96.4743 143.77 95.7761 144.214 94.9015 144.441C93.8264 144.72 92.758 144.965 91.6378 144.913C90.7293 144.871 89.871 144.665 89.0127 144.338C87.6228 143.809 86.2024 143.362 84.688 143.308C83.8537 143.277 83.1886 143.492 82.5867 144.13C81.3913 145.4 80.3728 146.799 79.3573 148.206C78.171 149.85 76.9992 151.509 75.7218 153.079C74.9747 153.999 74.0632 154.795 73.1683 155.58C72.2186 156.412 71.2043 157.17 70.2125 157.952C69.3159 158.658 68.2923 159.127 67.2356 159.535C66.2253 159.925 65.2017 160.282 64.2085 160.712C63.5696 160.988 62.9269 161.301 62.3729 161.715C60.774 162.911 58.9702 163.437 57.0091 163.52C56.5819 163.539 56.1482 163.582 55.7262 163.535C54.2663 163.371 53.0203 163.895 51.8661 164.699C50.8331 165.417 50.012 166.34 49.3839 167.43C48.9408 168.198 48.9077 169.018 49.1498 169.849C49.3151 170.417 49.7184 170.724 50.3164 170.833C53.0592 171.33 55.7029 171.015 58.2577 169.913C59.0155 169.587 59.8262 169.514 60.6382 169.472C61.3351 169.435 62.0332 169.412 62.7305 169.367C63.6231 169.309 64.4617 169.066 65.2208 168.582C67.5034 167.125 69.7859 165.67 72.0633 164.206C73.7546 163.119 75.4794 162.087 77.3188 161.271C77.9509 160.991 78.6413 160.825 79.3184 160.67C80.2931 160.447 81.2042 160.155 82.0402 159.546C82.9144 158.91 83.9377 158.507 85.0051 158.262C85.9282 158.051 86.8367 158.08 87.732 158.42C89.4405 159.068 91.1481 159.715 92.8644 160.345C95.1362 161.178 97.4389 161.88 99.8787 162.029C100.417 162.063 100.947 162.208 101.486 162.257C102.572 162.355 103.648 162.246 104.711 162.021C106.52 161.639 108.327 161.248 110.131 160.85C111.17 160.621 112.161 160.26 113.125 159.8C113.71 159.521 114.349 159.346 114.969 159.143C116.382 158.678 117.79 158.201 119.216 157.776C120.013 157.539 120.833 157.365 121.653 157.216C124.477 156.703 127.337 156.523 130.198 156.475C131.15 156.46 132.123 156.703 133.06 156.934C134.286 157.236 135.482 157.65 136.697 158.001C137.563 158.251 138.444 158.455 139.306 158.72C140.361 159.044 141.418 159.374 142.451 159.762C145.173 160.783 147.898 161.804 150.598 162.884C152.488 163.641 154.407 164.294 156.387 164.758C159.164 165.409 161.984 165.726 164.835 165.701C165.779 165.693 166.722 165.554 167.667 165.534C169.211 165.5 170.702 165.751 172.185 166.229C174.02 166.82 175.753 167.617 177.471 168.47C179.339 169.397 181.274 170.086 183.349 170.434C185.037 170.717 186.695 171.182 188.36 171.59C190.816 172.194 193.286 172.7 195.822 172.84C196.879 172.898 197.933 172.999 198.985 173.112C199.292 173.145 199.606 173.247 199.886 173.379C200.883 173.85 201.14 174.576 200.716 175.606C200.388 176.406 199.824 177.006 199.129 177.497C198.291 178.088 197.364 178.494 196.379 178.771C193.414 179.601 190.375 179.994 187.318 180.271C186.107 180.38 184.892 180.451 183.68 180.572C183.308 180.609 182.928 180.713 182.582 180.858C181.731 181.219 180.907 181.644 180.054 182.002C179.026 182.433 177.958 182.711 176.827 182.581C176.493 182.543 176.163 182.462 175.835 182.383C174.739 182.12 173.646 181.841 172.549 181.587C172.266 181.521 171.968 181.514 171.676 181.494C168.936 181.308 167.699 183.646 167.581 185.43C167.568 185.629 167.592 185.836 167.627 186.034C167.719 186.562 167.976 186.908 168.542 187.072C169.83 187.447 171.154 187.563 172.473 187.726C175.09 188.048 177.706 188.376 180.32 188.721C182.132 188.959 183.941 189.191 185.775 189.034C186.82 188.944 187.813 188.705 188.76 188.237C189.852 187.698 190.955 187.174 192.079 186.709C192.888 186.374 193.749 186.162 194.575 185.864C196.467 185.18 198.405 184.699 200.39 184.36C201.011 184.254 201.587 183.855 202.165 183.555C202.885 183.182 203.587 182.772 204.294 182.376C204.393 182.322 204.49 182.264 204.582 182.198C207 180.459 209.022 178.365 210.247 175.612C210.637 174.734 210.863 173.779 211.125 172.847C211.194 172.6 211.145 172.308 211.102 172.047C210.87 170.682 210.153 169.581 209.204 168.608C208.323 167.706 207.247 167.082 206.146 166.517C204.062 165.449 201.942 164.446 199.838 163.416C199.575 163.288 199.3 163.176 199.057 163.016C197.173 161.781 195.306 160.519 193.41 159.302C192.865 158.953 192.242 158.726 191.653 158.443C191.39 158.316 191.116 158.205 190.863 158.062C189.48 157.283 189.117 155.552 190.111 154.305C190.428 153.908 190.844 153.567 191.271 153.284C195.183 150.683 198.362 147.387 200.771 143.35C201.809 141.608 202.863 139.875 203.93 138.152C204.237 137.656 204.582 137.173 204.972 136.741C205.407 136.258 205.68 135.704 205.897 135.112C206.983 132.148 207.602 129.084 207.883 125.946C208.256 121.781 208.083 117.616 207.902 113.45C207.834 111.897 207.739 110.343 207.735 108.789C207.732 107.459 208.127 106.208 208.817 105.069C209.183 104.465 209.739 104.085 210.445 103.958C212.727 103.55 214.894 102.824 216.949 101.735C217.382 101.505 217.947 101.455 218.455 101.444C219.376 101.425 220.301 101.546 221.223 101.519C223.337 101.457 225.453 101.376 227.564 101.236C230.075 101.069 231.855 99.6314 233.335 97.7365C233.499 97.5262 233.622 97.2776 233.733 97.0328C234.217 95.9671 234.045 95.0242 233.209 94.1882C232.411 93.3899 231.454 92.8557 230.43 92.4233ZM197.631 74.6636C197.061 75.2308 196.423 75.6924 195.66 75.9345C195.018 76.1381 194.357 76.2982 193.692 76.4055C192.78 76.5536 191.858 76.6262 190.943 76.7426C189.816 76.8868 188.745 77.1805 187.738 77.7452C186.65 78.3574 185.474 78.7503 184.212 78.8362C183.07 78.9143 182.02 78.6628 181.077 78.0002C180.291 77.4473 179.937 76.6765 179.969 75.7349C179.999 74.8198 180.345 74.0221 180.984 73.3664C181.329 73.0105 181.707 72.6893 182.062 72.3428C182.156 72.2514 182.214 72.1233 182.359 71.9091C181.594 72.1976 180.967 72.4433 180.332 72.6695C178.596 73.2912 177.009 72.9962 175.561 71.8721C175.28 71.654 174.991 71.4488 174.706 71.2375C174.569 71.9648 174.507 72.6196 174.313 73.2332C173.939 74.4247 173.041 74.8704 171.831 74.5741C170.252 74.1881 168.93 73.3453 167.759 72.2624C165.965 70.6012 164.394 68.7446 163.09 66.6711C162.84 66.273 162.632 65.8406 162.457 65.4043C161.771 63.7101 162.968 62.1244 164.387 61.8787C164.895 61.7912 165.416 61.7371 165.929 61.7452C169.172 61.7902 172.415 61.8401 175.656 61.9199C177.707 61.9701 179.765 62.068 181.753 62.6288C183.619 63.1552 185.459 63.7713 187.307 64.3597C187.887 64.5447 188.486 64.7062 189.024 64.9801C191.862 66.4202 194.59 68.0363 197.075 70.0427C197.677 70.528 198.081 71.1377 198.301 71.865C198.618 72.9207 198.437 73.861 197.631 74.6636Z" fill="white"/>
<g filter="url(#filter1_i_125_189)">
<circle cx="76.5" cy="24.5" r="4.5" fill="white"/>
</g>
<g filter="url(#filter2_i_125_189)">
<circle cx="27.5" cy="43.5" r="4.5" fill="white"/>
</g>
<g filter="url(#filter3_i_125_189)">
<circle cx="40.5" cy="185.5" r="4.5" fill="white"/>
</g>
<g filter="url(#filter4_i_125_189)">
<circle cx="24.5" cy="145.5" r="4.5" fill="white"/>
</g>
<g filter="url(#filter5_i_125_189)">
<circle cx="22.5" cy="97.5" r="4.5" fill="white"/>
</g>
<g filter="url(#filter6_i_125_189)">
<circle cx="68.5" cy="220.5" r="4.5" fill="white"/>
</g>
<g filter="url(#filter7_i_125_189)">
<circle cx="105.5" cy="257.5" r="4.5" fill="white"/>
</g>
<g filter="url(#filter8_i_125_189)">
<circle cx="139.5" cy="14.5" r="4.5" fill="white"/>
</g>
<g filter="url(#filter9_i_125_189)">
<circle cx="140.5" cy="286.5" r="4.5" fill="white"/>
</g>
<g filter="url(#filter10_i_125_189)">
<circle r="4.5" transform="matrix(-1 0 0 1 200.5 24.5)" fill="white"/>
</g>
<g filter="url(#filter11_i_125_189)">
<circle r="4.5" transform="matrix(-1 0 0 1 249.5 43.5)" fill="white"/>
</g>
<g filter="url(#filter12_i_125_189)">
<circle r="4.5" transform="matrix(-1 0 0 1 236.5 185.5)" fill="white"/>
</g>
<g filter="url(#filter13_i_125_189)">
<circle r="4.5" transform="matrix(-1 0 0 1 252.5 145.5)" fill="white"/>
</g>
<g filter="url(#filter14_i_125_189)">
<circle r="4.5" transform="matrix(-1 0 0 1 254.5 97.5)" fill="white"/>
</g>
<g filter="url(#filter15_i_125_189)">
<circle r="4.5" transform="matrix(-1 0 0 1 212.5 220.5)" fill="white"/>
</g>
<g filter="url(#filter16_i_125_189)">
<circle r="4.5" transform="matrix(-1 0 0 1 180.5 257.5)" fill="white"/>
</g>
<defs>
<filter id="filter0_di_125_189" x="0" y="0" width="280" height="321.491" filterUnits="userSpaceOnUse" color-interpolation-filters="sRGB">
<feFlood flood-opacity="0" result="BackgroundImageFix"/>
<feColorMatrix in="SourceAlpha" type="matrix" values="0 0 0 0 0 0 0 0 0 0 0 0 0 0 0 0 0 0 127 0" result="hardAlpha"/>
<feOffset dy="8"/>
<feGaussianBlur stdDeviation="4.5"/>
<feComposite in2="hardAlpha" operator="out"/>
<feColorMatrix type="matrix" values="0 0 0 0 0 0 0 0 0 0 0 0 0 0 0 0 0 0 0.15 0"/>
<feBlend mode="normal" in2="BackgroundImageFix" result="effect1_dropShadow_125_189"/>
<feBlend mode="normal" in="SourceGraphic" in2="effect1_dropShadow_125_189" result="shape"/>
<feColorMatrix in="SourceAlpha" type="matrix" values="0 0 0 0 0 0 0 0 0 0 0 0 0 0 0 0 0 0 127 0" result="hardAlpha"/>
<feOffset dy="6"/>
<feGaussianBlur stdDeviation="6.5"/>
<feComposite in2="hardAlpha" operator="arithmetic" k2="-1" k3="1"/>
<feColorMatrix type="matrix" values="0 0 0 0 0.720833 0 0 0 0 0.600556 0 0 0 0 0.318368 0 0 0 1 0"/>
<feBlend mode="normal" in2="shape" result="effect2_innerShadow_125_189"/>
</filter>
<filter id="filter1_i_125_189" x="72" y="17" width="9" height="12" filterUnits="userSpaceOnUse" color-interpolation-filters="sRGB">
<feFlood flood-opacity="0" result="BackgroundImageFix"/>
<feBlend mode="normal" in="SourceGraphic" in2="BackgroundImageFix" result="shape"/>
<feColorMatrix in="SourceAlpha" type="matrix" values="0 0 0 0 0 0 0 0 0 0 0 0 0 0 0 0 0 0 127 0" result="hardAlpha"/>
<feOffset dy="-3"/>
<feGaussianBlur stdDeviation="2"/>
<feComposite in2="hardAlpha" operator="arithmetic" k2="-1" k3="1"/>
<feColorMatrix type="matrix" values="0 0 0 0 0.841667 0 0 0 0 0.75887 0 0 0 0 0.564618 0 0 0 1 0"/>
<feBlend mode="normal" in2="shape" result="effect1_innerShadow_125_189"/>
</filter>
<filter id="filter2_i_125_189" x="23" y="36" width="9" height="12" filterUnits="userSpaceOnUse" color-interpolation-filters="sRGB">
<feFlood flood-opacity="0" result="BackgroundImageFix"/>
<feBlend mode="normal" in="SourceGraphic" in2="BackgroundImageFix" result="shape"/>
<feColorMatrix in="SourceAlpha" type="matrix" values="0 0 0 0 0 0 0 0 0 0 0 0 0 0 0 0 0 0 127 0" result="hardAlpha"/>
<feOffset dy="-3"/>
<feGaussianBlur stdDeviation="2"/>
<feComposite in2="hardAlpha" operator="arithmetic" k2="-1" k3="1"/>
<feColorMatrix type="matrix" values="0 0 0 0 0.841667 0 0 0 0 0.75887 0 0 0 0 0.564618 0 0 0 1 0"/>
<feBlend mode="normal" in2="shape" result="effect1_innerShadow_125_189"/>
</filter>
<filter id="filter3_i_125_189" x="36" y="178" width="9" height="12" filterUnits="userSpaceOnUse" color-interpolation-filters="sRGB">
<feFlood flood-opacity="0" result="BackgroundImageFix"/>
<feBlend mode="normal" in="SourceGraphic" in2="BackgroundImageFix" result="shape"/>
<feColorMatrix in="SourceAlpha" type="matrix" values="0 0 0 0 0 0 0 0 0 0 0 0 0 0 0 0 0 0 127 0" result="hardAlpha"/>
<feOffset dy="-3"/>
<feGaussianBlur stdDeviation="2"/>
<feComposite in2="hardAlpha" operator="arithmetic" k2="-1" k3="1"/>
<feColorMatrix type="matrix" values="0 0 0 0 0.841667 0 0 0 0 0.75887 0 0 0 0 0.564618 0 0 0 1 0"/>
<feBlend mode="normal" in2="shape" result="effect1_innerShadow_125_189"/>
</filter>
<filter id="filter4_i_125_189" x="20" y="138" width="9" height="12" filterUnits="userSpaceOnUse" color-interpolation-filters="sRGB">
<feFlood flood-opacity="0" result="BackgroundImageFix"/>
<feBlend mode="normal" in="SourceGraphic" in2="BackgroundImageFix" result="shape"/>
<feColorMatrix in="SourceAlpha" type="matrix" values="0 0 0 0 0 0 0 0 0 0 0 0 0 0 0 0 0 0 127 0" result="hardAlpha"/>
<feOffset dy="-3"/>
<feGaussianBlur stdDeviation="2"/>
<feComposite in2="hardAlpha" operator="arithmetic" k2="-1" k3="1"/>
<feColorMatrix type="matrix" values="0 0 0 0 0.841667 0 0 0 0 0.75887 0 0 0 0 0.564618 0 0 0 1 0"/>
<feBlend mode="normal" in2="shape" result="effect1_innerShadow_125_189"/>
</filter>
<filter id="filter5_i_125_189" x="18" y="90" width="9" height="12" filterUnits="userSpaceOnUse" color-interpolation-filters="sRGB">
<feFlood flood-opacity="0" result="BackgroundImageFix"/>
<feBlend mode="normal" in="SourceGraphic" in2="BackgroundImageFix" result="shape"/>
<feColorMatrix in="SourceAlpha" type="matrix" values="0 0 0 0 0 0 0 0 0 0 0 0 0 0 0 0 0 0 127 0" result="hardAlpha"/>
<feOffset dy="-3"/>
<feGaussianBlur stdDeviation="2"/>
<feComposite in2="hardAlpha" operator="arithmetic" k2="-1" k3="1"/>
<feColorMatrix type="matrix" values="0 0 0 0 0.841667 0 0 0 0 0.75887 0 0 0 0 0.564618 0 0 0 1 0"/>
<feBlend mode="normal" in2="shape" result="effect1_innerShadow_125_189"/>
</filter>
<filter id="filter6_i_125_189" x="64" y="213" width="9" height="12" filterUnits="userSpaceOnUse" color-interpolation-filters="sRGB">
<feFlood flood-opacity="0" result="BackgroundImageFix"/>
<feBlend mode="normal" in="SourceGraphic" in2="BackgroundImageFix" result="shape"/>
<feColorMatrix in="SourceAlpha" type="matrix" values="0 0 0 0 0 0 0 0 0 0 0 0 0 0 0 0 0 0 127 0" result="hardAlpha"/>
<feOffset dy="-3"/>
<feGaussianBlur stdDeviation="2"/>
<feComposite in2="hardAlpha" operator="arithmetic" k2="-1" k3="1"/>
<feColorMatrix type="matrix" values="0 0 0 0 0.841667 0 0 0 0 0.75887 0 0 0 0 0.564618 0 0 0 1 0"/>
<feBlend mode="normal" in2="shape" result="effect1_innerShadow_125_189"/>
</filter>
<filter id="filter7_i_125_189" x="101" y="250" width="9" height="12" filterUnits="userSpaceOnUse" color-interpolation-filters="sRGB">
<feFlood flood-opacity="0" result="BackgroundImageFix"/>
<feBlend mode="normal" in="SourceGraphic" in2="BackgroundImageFix" result="shape"/>
<feColorMatrix in="SourceAlpha" type="matrix" values="0 0 0 0 0 0 0 0 0 0 0 0 0 0 0 0 0 0 127 0" result="hardAlpha"/>
<feOffset dy="-3"/>
<feGaussianBlur stdDeviation="2"/>
<feComposite in2="hardAlpha" operator="arithmetic" k2="-1" k3="1"/>
<feColorMatrix type="matrix" values="0 0 0 0 0.841667 0 0 0 0 0.75887 0 0 0 0 0.564618 0 0 0 1 0"/>
<feBlend mode="normal" in2="shape" result="effect1_innerShadow_125_189"/>
</filter>
<filter id="filter8_i_125_189" x="135" y="7" width="9" height="12" filterUnits="userSpaceOnUse" color-interpolation-filters="sRGB">
<feFlood flood-opacity="0" result="BackgroundImageFix"/>
<feBlend mode="normal" in="SourceGraphic" in2="BackgroundImageFix" result="shape"/>
<feColorMatrix in="SourceAlpha" type="matrix" values="0 0 0 0 0 0 0 0 0 0 0 0 0 0 0 0 0 0 127 0" result="hardAlpha"/>
<feOffset dy="-3"/>
<feGaussianBlur stdDeviation="2"/>
<feComposite in2="hardAlpha" operator="arithmetic" k2="-1" k3="1"/>
<feColorMatrix type="matrix" values="0 0 0 0 0.841667 0 0 0 0 0.75887 0 0 0 0 0.564618 0 0 0 1 0"/>
<feBlend mode="normal" in2="shape" result="effect1_innerShadow_125_189"/>
</filter>
<filter id="filter9_i_125_189" x="136" y="279" width="9" height="12" filterUnits="userSpaceOnUse" color-interpolation-filters="sRGB">
<feFlood flood-opacity="0" result="BackgroundImageFix"/>
<feBlend mode="normal" in="SourceGraphic" in2="BackgroundImageFix" result="shape"/>
<feColorMatrix in="SourceAlpha" type="matrix" values="0 0 0 0 0 0 0 0 0 0 0 0 0 0 0 0 0 0 127 0" result="hardAlpha"/>
<feOffset dy="-3"/>
<feGaussianBlur stdDeviation="2"/>
<feComposite in2="hardAlpha" operator="arithmetic" k2="-1" k3="1"/>
<feColorMatrix type="matrix" values="0 0 0 0 0.841667 0 0 0 0 0.75887 0 0 0 0 0.564618 0 0 0 1 0"/>
<feBlend mode="normal" in2="shape" result="effect1_innerShadow_125_189"/>
</filter>
<filter id="filter10_i_125_189" x="196" y="17" width="9" height="12" filterUnits="userSpaceOnUse" color-interpolation-filters="sRGB">
<feFlood flood-opacity="0" result="BackgroundImageFix"/>
<feBlend mode="normal" in="SourceGraphic" in2="BackgroundImageFix" result="shape"/>
<feColorMatrix in="SourceAlpha" type="matrix" values="0 0 0 0 0 0 0 0 0 0 0 0 0 0 0 0 0 0 127 0" result="hardAlpha"/>
<feOffset dy="-3"/>
<feGaussianBlur stdDeviation="2"/>
<feComposite in2="hardAlpha" operator="arithmetic" k2="-1" k3="1"/>
<feColorMatrix type="matrix" values="0 0 0 0 0.841667 0 0 0 0 0.75887 0 0 0 0 0.564618 0 0 0 1 0"/>
<feBlend mode="normal" in2="shape" result="effect1_innerShadow_125_189"/>
</filter>
<filter id="filter11_i_125_189" x="245" y="36" width="9" height="12" filterUnits="userSpaceOnUse" color-interpolation-filters="sRGB">
<feFlood flood-opacity="0" result="BackgroundImageFix"/>
<feBlend mode="normal" in="SourceGraphic" in2="BackgroundImageFix" result="shape"/>
<feColorMatrix in="SourceAlpha" type="matrix" values="0 0 0 0 0 0 0 0 0 0 0 0 0 0 0 0 0 0 127 0" result="hardAlpha"/>
<feOffset dy="-3"/>
<feGaussianBlur stdDeviation="2"/>
<feComposite in2="hardAlpha" operator="arithmetic" k2="-1" k3="1"/>
<feColorMatrix type="matrix" values="0 0 0 0 0.841667 0 0 0 0 0.75887 0 0 0 0 0.564618 0 0 0 1 0"/>
<feBlend mode="normal" in2="shape" result="effect1_innerShadow_125_189"/>
</filter>
<filter id="filter12_i_125_189" x="232" y="178" width="9" height="12" filterUnits="userSpaceOnUse" color-interpolation-filters="sRGB">
<feFlood flood-opacity="0" result="BackgroundImageFix"/>
<feBlend mode="normal" in="SourceGraphic" in2="BackgroundImageFix" result="shape"/>
<feColorMatrix in="SourceAlpha" type="matrix" values="0 0 0 0 0 0 0 0 0 0 0 0 0 0 0 0 0 0 127 0" result="hardAlpha"/>
<feOffset dy="-3"/>
<feGaussianBlur stdDeviation="2"/>
<feComposite in2="hardAlpha" operator="arithmetic" k2="-1" k3="1"/>
<feColorMatrix type="matrix" values="0 0 0 0 0.841667 0 0 0 0 0.75887 0 0 0 0 0.564618 0 0 0 1 0"/>
<feBlend mode="normal" in2="shape" result="effect1_innerShadow_125_189"/>
</filter>
<filter id="filter13_i_125_189" x="248" y="138" width="9" height="12" filterUnits="userSpaceOnUse" color-interpolation-filters="sRGB">
<feFlood flood-opacity="0" result="BackgroundImageFix"/>
<feBlend mode="normal" in="SourceGraphic" in2="BackgroundImageFix" result="shape"/>
<feColorMatrix in="SourceAlpha" type="matrix" values="0 0 0 0 0 0 0 0 0 0 0 0 0 0 0 0 0 0 127 0" result="hardAlpha"/>
<feOffset dy="-3"/>
<feGaussianBlur stdDeviation="2"/>
<feComposite in2="hardAlpha" operator="arithmetic" k2="-1" k3="1"/>
<feColorMatrix type="matrix" values="0 0 0 0 0.841667 0 0 0 0 0.75887 0 0 0 0 0.564618 0 0 0 1 0"/>
<feBlend mode="normal" in2="shape" result="effect1_innerShadow_125_189"/>
</filter>
<filter id="filter14_i_125_189" x="250" y="90" width="9" height="12" filterUnits="userSpaceOnUse" color-interpolation-filters="sRGB">
<feFlood flood-opacity="0" result="BackgroundImageFix"/>
<feBlend mode="normal" in="SourceGraphic" in2="BackgroundImageFix" result="shape"/>
<feColorMatrix in="SourceAlpha" type="matrix" values="0 0 0 0 0 0 0 0 0 0 0 0 0 0 0 0 0 0 127 0" result="hardAlpha"/>
<feOffset dy="-3"/>
<feGaussianBlur stdDeviation="2"/>
<feComposite in2="hardAlpha" operator="arithmetic" k2="-1" k3="1"/>
<feColorMatrix type="matrix" values="0 0 0 0 0.841667 0 0 0 0 0.75887 0 0 0 0 0.564618 0 0 0 1 0"/>
<feBlend mode="normal" in2="shape" result="effect1_innerShadow_125_189"/>
</filter>
<filter id="filter15_i_125_189" x="208" y="213" width="9" height="12" filterUnits="userSpaceOnUse" color-interpolation-filters="sRGB">
<feFlood flood-opacity="0" result="BackgroundImageFix"/>
<feBlend mode="normal" in="SourceGraphic" in2="BackgroundImageFix" result="shape"/>
<feColorMatrix in="SourceAlpha" type="matrix" values="0 0 0 0 0 0 0 0 0 0 0 0 0 0 0 0 0 0 127 0" result="hardAlpha"/>
<feOffset dy="-3"/>
<feGaussianBlur stdDeviation="2"/>
<feComposite in2="hardAlpha" operator="arithmetic" k2="-1" k3="1"/>
<feColorMatrix type="matrix" values="0 0 0 0 0.841667 0 0 0 0 0.75887 0 0 0 0 0.564618 0 0 0 1 0"/>
<feBlend mode="normal" in2="shape" result="effect1_innerShadow_125_189"/>
</filter>
<filter id="filter16_i_125_189" x="176" y="250" width="9" height="12" filterUnits="userSpaceOnUse" color-interpolation-filters="sRGB">
<feFlood flood-opacity="0" result="BackgroundImageFix"/>
<feBlend mode="normal" in="SourceGraphic" in2="BackgroundImageFix" result="shape"/>
<feColorMatrix in="SourceAlpha" type="matrix" values="0 0 0 0 0 0 0 0 0 0 0 0 0 0 0 0 0 0 127 0" result="hardAlpha"/>
<feOffset dy="-3"/>
<feGaussianBlur stdDeviation="2"/>
<feComposite in2="hardAlpha" operator="arithmetic" k2="-1" k3="1"/>
<feColorMatrix type="matrix" values="0 0 0 0 0.841667 0 0 0 0 0.75887 0 0 0 0 0.564618 0 0 0 1 0"/>
<feBlend mode="normal" in2="shape" result="effect1_innerShadow_125_189"/>
</filter>
</defs>
</svg>
