<svg width="297" height="347" viewBox="0 0 297 347" fill="none" xmlns="http://www.w3.org/2000/svg">
<g filter="url(#filter0_di_125_193)">
<path d="M267.103 189.858C272.133 169.599 274.369 94.5048 272.133 56.9578C162.051 19.6807 128.513 19.6808 22.2768 56.9578C15.8488 79.3779 14.6585 163.926 22.2768 189.858C37.704 242.37 110.872 302.499 145.528 326C215.119 289.533 261.496 212.437 267.103 189.858Z" fill="#90AA97"/>
<path d="M267.103 189.858C272.133 169.599 274.369 94.5048 272.133 56.9578C162.051 19.6807 128.513 19.6808 22.2768 56.9578C15.8488 79.3779 14.6585 163.926 22.2768 189.858C37.704 242.37 110.872 302.499 145.528 326C215.119 289.533 261.496 212.437 267.103 189.858Z" stroke="white" stroke-width="6"/>
</g>
<g filter="url(#filter1_i_125_193)">
<circle cx="81.5" cy="49.5" r="4.5" fill="white"/>
<circle cx="32.5" cy="68.5" r="4.5" fill="white"/>
<circle cx="45.5" cy="210.5" r="4.5" fill="white"/>
<circle cx="29.5" cy="170.5" r="4.5" fill="white"/>
<circle cx="27.5" cy="122.5" r="4.5" fill="white"/>
<circle cx="73.5" cy="245.5" r="4.5" fill="white"/>
<circle cx="110.5" cy="282.5" r="4.5" fill="white"/>
<circle cx="144.5" cy="39.5" r="4.5" fill="white"/>
<circle cx="145.5" cy="311.5" r="4.5" fill="white"/>
<circle r="4.5" transform="matrix(-1 0 0 1 205.5 49.5)" fill="white"/>
<circle r="4.5" transform="matrix(-1 0 0 1 254.5 68.5)" fill="white"/>
<circle r="4.5" transform="matrix(-1 0 0 1 241.5 210.5)" fill="white"/>
<circle r="4.5" transform="matrix(-1 0 0 1 257.5 170.5)" fill="white"/>
<circle r="4.5" transform="matrix(-1 0 0 1 259.5 122.5)" fill="white"/>
<circle r="4.5" transform="matrix(-1 0 0 1 217.5 245.5)" fill="white"/>
<circle r="4.5" transform="matrix(-1 0 0 1 185.5 282.5)" fill="white"/>
</g>
<path d="M138.488 163.953L134.703 160.209L92.8871 202.475L96.6721 206.219L138.488 163.953Z" fill="white"/>
<path d="M89.831 205.353L91.5479 207.065L92.0741 207.59L93.7902 209.303L97.2246 211.356L98.3883 210.19L93.9247 205.736L93.3972 205.21L88.9329 200.757L87.7684 201.925L89.831 205.353Z" fill="white"/>
<path d="M81.8777 217.285L81.8762 217.288L81.8767 217.29L81.8783 217.287L90.0117 213.344L93.3003 209.567L91.4344 207.706L91.433 207.705L89.5671 205.844L85.7992 209.142L81.8777 217.285Z" fill="white"/>
<path d="M172.831 122.016L176.596 125.781L204.072 98.3054L200.307 94.5405L172.831 122.016Z" fill="white"/>
<path d="M207.143 95.4433L205.435 93.7224L204.912 93.1944L203.205 91.4721L199.782 89.4006L198.612 90.5608L203.052 95.0384L203.576 95.5672L208.017 100.044L209.187 98.8821L207.143 95.4433Z" fill="white"/>
<path d="M215.16 83.5537L215.162 83.5511L215.161 83.5489L215.16 83.5516L207.005 87.4514L203.696 91.2109L205.552 93.0819L205.554 93.0827L207.41 94.9537L211.195 91.6756L215.16 83.5537Z" fill="white"/>
<g clip-path="url(#clip0_125_193)">
<path d="M147.894 177.852C162.764 177.852 174.818 165.798 174.818 150.928C174.818 136.058 162.764 124.004 147.894 124.004C133.024 124.004 120.97 136.058 120.97 150.928C120.97 165.798 133.024 177.852 147.894 177.852Z" fill="white"/>
<path d="M200.396 161.698C196.694 159.342 194.675 155.303 194.675 150.928C194.675 146.553 196.694 142.514 200.396 140.158C201.406 139.485 202.079 137.802 201.743 136.456C201.406 135.11 200.06 134.1 198.714 134.1C194.338 133.764 190.636 131.408 188.617 127.706C186.598 124.004 186.261 119.628 187.944 115.59C188.617 114.243 188.28 112.897 187.271 111.888C186.261 110.878 184.915 110.541 183.569 111.215C179.53 112.897 175.155 112.897 171.453 110.541C167.751 108.522 165.395 104.483 165.058 100.445C165.058 99.0986 164.049 97.7524 162.702 97.4158C161.356 97.0793 160.01 97.4158 159 98.762C156.644 102.464 152.606 104.483 148.231 104.483C143.855 104.483 139.817 102.464 137.461 98.762C136.788 97.7524 135.105 97.0793 133.759 97.4158C132.076 97.4158 131.066 98.762 131.066 100.108C130.73 104.483 128.374 108.186 124.672 110.205C120.633 112.561 116.258 112.561 112.219 110.878C111.21 110.205 109.527 110.541 108.517 111.551C107.508 112.561 107.171 114.243 107.844 115.253C109.863 119.292 109.527 123.667 107.171 127.369C105.152 131.071 101.113 133.427 97.0744 133.764C95.7282 133.764 94.382 134.773 94.0455 136.119C93.7089 137.466 94.0455 138.812 95.3917 139.822C99.0938 142.177 101.113 146.216 101.113 150.591C101.113 154.966 99.0938 159.005 95.3917 161.361C94.382 162.034 93.7089 163.717 94.0455 165.063C94.382 166.409 95.7282 167.755 97.0744 167.755C101.45 168.092 105.152 170.448 107.171 174.15C109.19 177.852 109.527 182.227 107.844 186.266C107.171 187.612 107.508 188.958 108.517 189.968C109.527 190.978 110.873 191.314 112.219 190.641C116.258 188.958 120.633 188.958 124.335 191.314C128.037 193.334 130.393 197.372 130.73 201.411C130.73 202.757 131.739 204.103 133.086 204.44C134.432 204.776 135.778 204.44 136.788 203.094C139.144 199.391 143.182 197.372 147.557 197.372C151.933 197.372 155.971 199.391 158.327 203.094C159 204.103 160.01 204.44 161.02 204.44C161.356 204.44 161.693 204.44 162.029 204.44C163.375 204.103 164.385 202.757 164.385 201.411C164.722 197.036 167.078 193.334 170.78 191.314C174.482 189.295 178.857 188.958 182.896 190.641C184.242 191.314 185.588 190.978 186.598 189.968C187.607 188.958 187.944 187.612 187.271 186.266C185.588 182.227 185.588 177.852 187.944 174.15C189.963 170.448 194.002 168.092 198.04 167.755C199.387 167.755 200.733 166.746 201.069 165.4C201.406 164.053 201.406 162.371 200.396 161.698ZM147.894 184.583C129.384 184.583 114.239 169.438 114.239 150.928C114.239 132.417 129.384 117.272 147.894 117.272C166.404 117.272 181.549 132.417 181.549 150.928C181.549 169.438 166.404 184.583 147.894 184.583Z" fill="white"/>
</g>
<defs>
<filter id="filter0_di_125_193" x="5" y="25" width="280" height="321.491" filterUnits="userSpaceOnUse" color-interpolation-filters="sRGB">
<feFlood flood-opacity="0" result="BackgroundImageFix"/>
<feColorMatrix in="SourceAlpha" type="matrix" values="0 0 0 0 0 0 0 0 0 0 0 0 0 0 0 0 0 0 127 0" result="hardAlpha"/>
<feOffset dy="8"/>
<feGaussianBlur stdDeviation="4.5"/>
<feComposite in2="hardAlpha" operator="out"/>
<feColorMatrix type="matrix" values="0 0 0 0 0 0 0 0 0 0 0 0 0 0 0 0 0 0 0.15 0"/>
<feBlend mode="normal" in2="BackgroundImageFix" result="effect1_dropShadow_125_193"/>
<feBlend mode="normal" in="SourceGraphic" in2="effect1_dropShadow_125_193" result="shape"/>
<feColorMatrix in="SourceAlpha" type="matrix" values="0 0 0 0 0 0 0 0 0 0 0 0 0 0 0 0 0 0 127 0" result="hardAlpha"/>
<feOffset dy="6"/>
<feGaussianBlur stdDeviation="6.5"/>
<feComposite in2="hardAlpha" operator="arithmetic" k2="-1" k3="1"/>
<feColorMatrix type="matrix" values="0 0 0 0 0.296875 0 0 0 0 0.416667 0 0 0 0 0.329127 0 0 0 1 0"/>
<feBlend mode="normal" in2="shape" result="effect2_innerShadow_125_193"/>
</filter>
<filter id="filter1_i_125_193" x="23" y="32" width="241" height="284" filterUnits="userSpaceOnUse" color-interpolation-filters="sRGB">
<feFlood flood-opacity="0" result="BackgroundImageFix"/>
<feBlend mode="normal" in="SourceGraphic" in2="BackgroundImageFix" result="shape"/>
<feColorMatrix in="SourceAlpha" type="matrix" values="0 0 0 0 0 0 0 0 0 0 0 0 0 0 0 0 0 0 127 0" result="hardAlpha"/>
<feOffset dy="-3"/>
<feGaussianBlur stdDeviation="2"/>
<feComposite in2="hardAlpha" operator="arithmetic" k2="-1" k3="1"/>
<feColorMatrix type="matrix" values="0 0 0 0 0.390469 0 0 0 0 0.495833 0 0 0 0 0.418836 0 0 0 1 0"/>
<feBlend mode="normal" in2="shape" result="effect1_innerShadow_125_193"/>
</filter>
<clipPath id="clip0_125_193">
<rect width="107.697" height="107.697" fill="white" transform="translate(94.0454 97.0792)"/>
</clipPath>
</defs>
</svg>
