<svg width="462" height="316" viewBox="0 0 462 316" fill="none" xmlns="http://www.w3.org/2000/svg">
<path fill-rule="evenodd" clip-rule="evenodd" d="M66.604 15.3328C66.604 17.743 66.048 20.0234 65.0573 22.0526C66.1666 22.7049 68.2682 23.579 70.7776 23.579L76.4068 31.7119C84.1209 36.7167 100.925 49.1036 106.429 58.6127L111.433 64.2431L109.557 96.1488C106.846 97.8171 101.676 102.28 102.677 106.784C103.677 111.288 107.68 117.836 109.557 120.547C106.429 120.547 99.0488 119.797 94.5454 116.794C91.2096 117.002 83.9125 116.418 81.4106 112.414C82.6615 111.789 85.6638 109.787 87.6653 106.784C88.5134 105.512 89.6491 102.801 90.9992 99.579L90.9992 99.5789C93.6316 93.2962 97.0792 85.0681 100.8 81.76C105.192 77.8555 101.97 76.2355 99.7468 75.1179C99.1204 74.8029 98.5733 74.5278 98.2982 74.2527C98.1252 74.0797 97.5094 73.5355 96.5617 72.6981C90.658 67.4817 71.8754 50.8856 67.0248 41.7215L58.8937 36.7167V31.7119L56.8156 29.6333C55.097 30.2999 53.2285 30.6655 51.2745 30.6655C42.8083 30.6655 35.945 23.8008 35.945 15.3328C35.945 6.86471 42.8083 0 51.2745 0C59.7408 0 66.604 6.86471 66.604 15.3328ZM51.2746 24.321C56.2376 24.321 60.2609 20.2968 60.2609 15.3328C60.2609 10.3687 56.2376 6.3446 51.2746 6.3446C46.3116 6.3446 42.2883 10.3687 42.2883 15.3328C42.2883 20.2968 46.3116 24.321 51.2746 24.321Z" fill="#242246"/>
<path fill-rule="evenodd" clip-rule="evenodd" d="M390.536 15.3328C390.536 17.7431 391.092 20.0235 392.083 22.0527C390.973 22.705 388.872 23.579 386.363 23.579L380.734 31.7119C373.019 36.7167 356.215 49.1036 350.711 58.6127L345.707 64.2431L347.584 96.1488C350.294 97.8171 355.465 102.28 354.464 106.784C353.463 111.288 349.46 117.836 347.584 120.547C350.711 120.547 358.092 119.797 362.595 116.794C365.931 117.002 373.228 116.418 375.73 112.414C374.479 111.789 371.477 109.787 369.475 106.784C368.627 105.512 367.491 102.801 366.141 99.579L366.141 99.5789C363.509 93.2962 360.061 85.0681 356.34 81.76C351.949 77.8555 355.171 76.2355 357.393 75.1179C358.02 74.8029 358.567 74.5278 358.842 74.2527C359.015 74.0797 359.631 73.5355 360.579 72.6981C366.482 67.4817 385.265 50.8856 390.116 41.7215L398.247 36.7167V31.7119L400.325 29.6333C402.043 30.2999 403.912 30.6655 405.866 30.6655C414.332 30.6655 421.195 23.8008 421.195 15.3328C421.195 6.86471 414.332 0 405.866 0C397.399 0 390.536 6.86471 390.536 15.3328ZM405.866 24.321C400.903 24.321 396.879 20.2968 396.879 15.3328C396.879 10.3687 400.903 6.3446 405.866 6.3446C410.829 6.3446 414.852 10.3687 414.852 15.3328C414.852 20.2968 410.829 24.321 405.866 24.321Z" fill="#242246"/>
<path d="M112.385 254.69L136.263 230.52H160.696L124.046 266.226L105.721 272.817L112.385 254.69Z" fill="#242246"/>
<path d="M343.272 254.69L319.395 230.52H294.961L331.611 266.226L349.936 272.817L343.272 254.69Z" fill="#242246"/>
<path d="M343.326 184.55C348.062 165.436 350.168 94.5843 348.062 59.1586C244.411 23.9878 212.833 23.9878 112.803 59.1586C106.751 80.3121 105.63 160.083 112.803 184.55C127.329 234.095 196.223 290.827 228.854 313C294.379 278.594 338.047 205.853 343.326 184.55Z" fill="#90AA97" stroke="white" stroke-width="4"/>
<path d="M227.829 153.856V44.4122C222.331 44.4122 211.09 56.7489 206.156 62.9173L201.399 61.3311V83.5372L203.513 85.1234V96.2264L195.056 91.9967C196.289 96.2264 197.276 104.792 191.355 105.215C185.435 105.638 176.202 106.801 172.326 107.329C161.577 116.141 140.081 135.14 140.081 140.639C140.081 146.137 145.367 150.684 148.01 152.27L227.829 153.856Z" fill="#242246"/>
<path d="M227.828 78.25V73.4915C221.908 73.4915 210.913 71.7292 206.156 70.848C212.922 76.7696 223.423 78.25 227.828 78.25Z" fill="#EDD396"/>
<path d="M190.826 126.363L188.712 127.421L179.725 114.203L190.826 126.363Z" fill="#EDD396"/>
<path d="M195.055 125.306L193.469 125.834L186.597 115.789L195.055 125.306Z" fill="#EDD396"/>
<path d="M199.284 123.72L197.698 124.248L192.412 116.846L199.284 123.72Z" fill="#EDD396"/>
<path d="M227.3 153.856V44.4122C232.798 44.4122 244.04 56.7489 248.973 62.9173L253.731 61.3311V83.5372L251.616 85.1234V96.2264L260.074 91.9967C258.84 96.2264 257.854 104.792 263.774 105.215C269.694 105.638 278.927 106.801 282.804 107.329C293.552 116.141 315.049 135.14 315.049 140.639C315.049 146.137 309.763 150.684 307.12 152.27L227.3 153.856Z" fill="#EDD396"/>
<path d="M227.3 78.25V73.4915C233.22 73.4915 244.215 71.7292 248.973 70.848C242.206 76.7696 231.705 78.25 227.3 78.25Z" fill="#242246"/>
<path d="M264.302 126.363L266.416 127.421L275.403 114.203L264.302 126.363Z" fill="#242246"/>
<path d="M260.073 125.306L261.659 125.834L268.531 115.789L260.073 125.306Z" fill="#242246"/>
<path d="M255.844 123.72L257.43 124.248L262.716 116.846L255.844 123.72Z" fill="#242246"/>
<path d="M229.211 114.203C210.638 133.655 170.912 135.924 153.371 134.628C149.416 148.082 148.683 198.82 153.371 214.382C162.864 245.894 207.887 281.978 229.211 296.081C272.032 274.197 300.569 227.931 304.019 214.382C307.115 202.224 308.491 157.16 307.115 134.628C262.539 136.962 236.606 121.984 229.211 114.203Z" fill="#242246" stroke="white" stroke-width="4"/>
<path d="M86.2771 168.132C219.867 211.571 330.265 186.231 368.765 168.132L384.072 200.85H462L441.822 226.608L462 251.669H351.37L346.5 226.608C333.744 231.249 292.925 240.809 231.696 241.923C170.467 243.037 124.081 232.177 108.542 226.608L103.672 251.669H0L18.0904 226.608L0 204.331H73.0572L86.2771 168.132Z" fill="#EDD396"/>
<path d="M74.0046 206.199L103.908 250.611L108.892 227.017C99.7789 223.687 81.8365 211.982 74.0046 206.199Z" fill="#CDB57B"/>
<path d="M380.595 206.199L351.597 250.611L346.764 227.017C355.602 223.687 373 211.982 380.595 206.199Z" fill="#CDB57B"/>
<path d="M111.609 194.128C111.609 194.128 111.565 194.162 111.476 194.228C111.353 194.25 111.157 194.179 110.888 194.015L110.833 193.848C111.041 193.712 111.148 193.618 111.156 193.566C111.236 192.93 111.23 192.353 111.139 191.835C111.034 191.198 110.697 190.681 110.129 190.283C110.07 190.197 109.985 190.09 109.875 189.96C109.753 189.852 109.526 189.742 109.193 189.63C108.835 189.514 108.596 189.408 108.478 189.312C108.43 189.278 108.323 189.252 108.156 189.233C107.957 189.206 107.827 189.178 107.768 189.148C107.546 189.092 107.216 188.985 106.776 188.829C106.547 188.713 106.207 188.551 105.756 188.342C105.664 188.305 105.516 188.323 105.312 188.396C105.112 188.462 104.977 188.538 104.906 188.623C104.835 188.8 104.72 189.047 104.56 189.365C104.337 189.586 104.043 189.92 103.679 190.367C103.411 190.769 103.212 191.257 103.081 191.83C102.954 192.137 102.765 192.602 102.515 193.227L101.298 195.532C101.249 195.85 101.202 196.053 101.157 196.142C101.09 196.275 100.969 196.394 100.795 196.501C100.595 196.623 100.483 196.696 100.461 196.722C100.465 196.807 100.535 196.917 100.671 197.05C100.682 197.158 100.659 197.248 100.604 197.322C100.574 197.363 100.413 197.434 100.12 197.537C100.127 197.689 100.104 197.909 100.051 198.197C99.8944 198.581 99.7141 198.856 99.51 199.022C99.2688 199.225 99.0831 199.456 98.9527 199.714C98.8708 199.877 98.7848 200.121 98.695 200.446C98.6162 200.768 98.5377 201.006 98.4595 201.161C98.3515 201.375 98.201 201.564 98.008 201.726C97.9227 201.803 97.8725 201.866 97.8575 201.914C97.8942 202.025 97.9512 202.114 98.0287 202.181C98.058 202.288 98.0336 202.392 97.9555 202.492C97.7289 202.757 97.4094 203.171 96.9968 203.732C96.9893 203.746 96.6704 204.508 96.0401 206.015C95.895 206.266 95.6994 206.645 95.4536 207.151C95.3005 207.565 95.2304 208.044 95.2434 208.588C95.2986 208.68 95.3574 208.803 95.4198 208.955C95.4227 209.206 95.4732 209.575 95.5715 210.06C95.6596 210.271 95.7959 210.451 95.9805 210.599C96.2131 210.744 96.5546 210.968 97.005 211.269C97.0379 211.387 96.995 211.491 96.8763 211.579L93.7956 210.026C93.7586 210.007 93.5925 209.896 93.2972 209.691C93.0018 209.487 92.8357 209.375 92.7988 209.357L90.793 208.345C90.7782 208.338 90.6081 208.289 90.2828 208.199C89.9649 208.113 89.7358 208.035 89.5954 207.964C88.5611 207.443 87.9664 207.124 87.8114 207.009C87.8079 206.961 87.8154 206.918 87.834 206.881C87.9309 206.689 88.2232 206.679 88.7111 206.851C88.9254 206.94 89.2711 207.008 89.7483 207.054C90.4777 206.912 91.0632 206.642 91.5048 206.244C91.7423 206.03 91.9635 205.739 92.1682 205.369C92.4735 204.819 92.6298 204.537 92.6372 204.522C92.7523 204.404 92.9194 204.238 93.1384 204.024C93.15 203.891 93.206 203.725 93.3066 203.525C93.6033 203.304 93.8504 202.998 94.0478 202.606C94.234 202.237 94.3332 201.902 94.3453 201.603C94.3456 201.51 94.4295 201.316 94.597 201.021C94.8538 200.566 95.2798 199.859 95.8751 198.899C95.89 198.87 95.9717 198.763 96.1203 198.578C96.2392 198.434 96.3303 198.29 96.3937 198.146C96.3865 198.087 96.3812 198.005 96.3779 197.902C96.3854 197.869 96.4262 197.824 96.5004 197.769C96.5857 197.71 96.6358 197.666 96.6507 197.636C97.2355 196.476 97.5 195.933 97.4443 196.007C97.6785 195.671 97.7994 195.487 97.8069 195.453C97.7923 195.39 97.7945 195.294 97.8134 195.165C97.9287 194.973 98.087 194.668 98.2882 194.251C98.4597 193.855 98.6551 193.514 98.8744 193.226C99.0231 193.023 99.1566 192.914 99.2751 192.9C99.3972 192.878 99.5248 192.9 99.6578 192.968C99.7538 193.016 99.8922 193.127 100.073 193.302C100.254 193.476 100.399 193.592 100.51 193.647C100.68 193.733 100.867 193.749 101.071 193.694C101.09 193.546 100.988 193.379 100.767 193.193C100.586 193.056 100.407 192.914 100.23 192.77C100.219 192.699 100.175 192.594 100.098 192.453C99.9428 192.375 99.7566 192.174 99.5394 191.852C99.625 191.719 99.8428 191.305 100.193 190.61C100.215 190.566 100.262 190.446 100.333 190.25C100.415 190.051 100.48 189.903 100.529 189.807C100.581 189.703 100.692 189.5 100.864 189.197C101.001 188.943 101.106 188.736 101.177 188.577C101.217 188.496 101.207 188.425 101.144 188.366C101.063 188.269 101.011 188.197 100.989 188.149C100.989 188.13 100.995 188.11 101.006 188.088C101.032 188.036 101.106 187.99 101.229 187.95C101.358 187.913 101.436 187.878 101.462 187.845C101.614 187.69 101.823 187.323 102.087 186.743C102.025 186.572 101.909 186.444 101.739 186.359C101.695 186.336 101.626 186.306 101.534 186.269C101.449 186.236 101.384 186.208 101.34 186.185C101.096 186.062 100.967 185.84 100.954 185.518C100.72 185.576 100.371 185.599 99.9044 185.587C99.8156 185.56 99.727 185.525 99.6383 185.48C99.4832 185.402 99.2783 185.266 99.0236 185.073C98.7726 184.872 98.5807 184.739 98.4477 184.671C98.2335 184.563 98.0172 184.515 97.7988 184.525C97.7507 184.529 97.4235 184.452 96.8172 184.294C96.7433 184.275 96.547 184.316 96.2285 184.414C95.732 184.627 94.9409 184.965 93.8552 185.428C93.807 185.45 93.6307 185.616 93.3263 185.925C93.0812 186.173 92.8811 186.257 92.726 186.179C92.6447 186.138 92.5691 186.058 92.4992 185.939C92.5365 185.847 92.6461 185.712 92.828 185.535C93.0507 185.333 93.1751 185.215 93.2011 185.181C93.4984 184.775 93.9593 184.164 94.5836 183.349C94.5985 183.338 94.8087 182.985 95.2143 182.291C95.4785 181.84 95.7551 181.558 96.0441 181.444C96.654 181.631 97.09 181.805 97.3522 181.965C97.4296 182.069 97.5512 182.204 97.7172 182.371C97.7578 182.401 97.8428 182.425 97.9722 182.444C98.1054 182.456 98.1923 182.467 98.233 182.478C98.3364 182.549 98.5026 182.642 98.7316 182.758C98.8574 182.765 99.0497 182.798 99.3085 182.854C99.4785 182.903 99.6927 183.02 99.9511 183.206C100.261 183.436 100.475 183.581 100.594 183.641C100.63 183.659 100.719 183.686 100.86 183.719C101.008 183.757 101.104 183.787 101.148 183.809L102.877 184.681C102.899 184.692 102.977 184.712 103.11 184.742C103.25 184.776 103.339 184.812 103.376 184.849C103.472 184.953 103.597 185.081 103.752 185.233C105.089 186 105.972 186.454 106.4 186.596C106.367 186.589 106.511 186.689 106.832 186.897C106.888 186.934 107.202 187.065 107.774 187.289C107.863 187.352 107.996 187.428 108.173 187.518C108.207 187.525 108.271 187.526 108.368 187.518C108.475 187.508 108.547 187.512 108.584 187.53C109.205 187.843 109.869 188.16 110.579 188.48C110.73 188.548 111.044 188.724 111.521 189.011C111.565 189.033 111.635 189.106 111.731 189.228C111.83 189.343 111.913 189.417 111.98 189.451C112.109 189.507 112.577 189.654 113.383 189.894C113.485 190.094 113.466 190.325 113.325 190.588C113.191 190.798 113.057 191.008 112.923 191.219C112.863 191.337 112.768 191.535 112.638 191.812C112.504 192.115 112.433 192.274 112.426 192.288L111.934 193.264C111.93 193.271 111.895 193.378 111.827 193.585C111.76 193.792 111.687 193.973 111.609 194.128Z" fill="#242246"/>
<path d="M123.515 205.583C123.373 206.033 123.254 206.373 123.156 206.602C123.02 206.759 122.849 207.013 122.643 207.365C122.509 207.739 122.299 208.115 122.016 208.495C121.84 208.613 121.574 208.811 121.217 209.09C121.08 209.307 120.8 209.592 120.377 209.944C120.076 210.101 119.617 210.348 119 210.683C118.922 210.684 118.819 210.695 118.691 210.716C118.559 210.778 118.334 210.859 118.016 210.959C116.506 211.239 115.152 211.244 113.954 210.971L112.391 210.481C112.407 210.486 112.383 210.452 112.319 210.38C111.474 210.089 110.871 209.769 110.512 209.422C110.409 209.364 110.271 209.277 110.099 209.163C109.823 208.937 109.42 208.564 108.89 208.042C108.283 207.322 107.786 206.42 107.398 205.336C107.181 204.73 107.051 203.995 107.01 203.133C106.967 202.33 107.007 201.679 107.129 201.18C107.336 200.326 107.625 199.514 107.996 198.746C108.076 198.659 108.185 198.533 108.323 198.368C108.445 198.146 108.636 197.829 108.895 197.416C109.156 197.194 109.511 196.863 109.961 196.424C110.028 196.349 110.08 196.253 110.117 196.134C110.169 196.107 110.244 196.144 110.343 196.244C110.417 196.146 110.466 195.988 110.491 195.771C110.604 195.771 110.771 195.75 110.993 195.707C111.108 195.561 111.321 195.407 111.632 195.244C112.185 195.14 113.016 194.994 114.125 194.804C114.406 194.763 114.75 194.758 115.157 194.79C116.189 194.871 116.879 194.966 117.226 195.076L118.15 195.366C118.868 195.591 119.463 195.852 119.934 196.147C120.185 196.313 120.724 196.724 121.549 197.382C121.707 197.571 121.957 197.866 122.299 198.268C122.79 198.856 123.181 199.573 123.471 200.418C123.727 201.175 123.841 201.835 123.812 202.399C123.848 202.505 123.886 202.66 123.926 202.864C123.951 203.392 123.829 204.125 123.56 205.064C123.551 205.096 123.543 205.176 123.537 205.304C123.542 205.427 123.534 205.52 123.515 205.583ZM120.789 205.066C121.031 204.049 121.122 203.08 121.064 202.16C120.993 200.976 120.781 199.994 120.427 199.216C119.921 198.12 119.234 197.354 118.365 196.916C117.542 196.501 116.961 196.267 116.622 196.213C115.966 196.093 115.386 196.063 114.882 196.122C114.819 196.128 114.394 196.224 113.607 196.411C113.543 196.477 113.442 196.55 113.305 196.628C113.237 196.624 113.158 196.625 113.069 196.632C112.847 196.788 112.563 197.002 112.217 197.275C112.156 197.36 112.063 197.478 111.937 197.629C111.759 197.782 111.562 197.967 111.346 198.185C111.184 198.455 110.936 198.859 110.602 199.396C110.541 199.619 110.432 199.953 110.274 200.398C110.267 200.422 110.235 200.468 110.179 200.537C110.122 200.606 110.093 200.658 110.091 200.692C110.041 201.24 109.976 202 109.896 202.972C109.852 203.028 109.813 203.098 109.778 203.182C109.799 203.31 109.83 203.485 109.874 203.707C109.849 203.812 109.831 203.953 109.818 204.131C109.942 204.899 110.009 205.293 110.02 205.313C110.128 205.798 110.329 206.291 110.623 206.791C110.628 206.801 110.629 206.979 110.624 207.324C110.653 207.342 110.78 207.408 111.004 207.522C111.28 207.998 111.5 208.332 111.666 208.523C112.141 209.054 113.165 209.492 114.739 209.839C114.877 209.839 115.059 209.84 115.284 209.841C115.562 209.868 115.978 209.855 116.532 209.804C116.675 209.736 116.859 209.659 117.085 209.574C118.028 209.333 118.687 208.876 119.063 208.205C119.171 208.135 119.308 208.031 119.473 207.892C119.536 207.747 119.616 207.576 119.712 207.381C119.774 207.349 119.845 207.288 119.924 207.201C119.997 207.024 120.16 206.642 120.414 206.054C120.623 205.582 120.748 205.252 120.789 205.066Z" fill="#242246"/>
<path d="M139.753 217.205C139.667 217.278 139.537 217.362 139.361 217.456C138.951 217.571 138.666 217.61 138.505 217.571L137.056 217.226C136.565 217.109 136.204 217.002 135.972 216.904C135.81 216.798 135.562 216.641 135.229 216.434C134.946 216.265 134.526 215.654 133.968 214.603C133.921 214.515 133.731 213.921 133.397 212.821C133.099 211.823 132.875 210.992 132.727 210.327C132.709 210.085 132.649 209.764 132.548 209.366C132.489 209.259 132.295 209.178 131.967 209.126C131.76 209.102 131.549 209.077 131.334 209.052C131.073 208.972 130.679 208.875 130.154 208.758C130.098 208.745 130.018 208.777 129.914 208.854C129.872 209.176 129.677 210.171 129.331 211.841C129.263 212.165 129.226 212.603 129.223 213.154C129.188 213.299 129.178 213.522 129.191 213.823C129.291 214.153 129.515 214.428 129.863 214.646C130.148 214.808 130.432 214.969 130.717 215.13C130.704 215.221 130.671 215.324 130.618 215.439C130.362 215.48 130.113 215.471 129.871 215.414L128.604 215.112C128.588 215.108 128.484 215.062 128.292 214.974C128.101 214.886 127.96 214.831 127.872 214.81C127.622 214.751 127.227 214.678 126.686 214.592C126.154 214.508 125.887 214.465 125.887 214.465L124.668 214.175C124.547 214.146 124.411 214.076 124.259 213.963C124.265 213.939 124.264 213.888 124.257 213.809C124.259 213.733 124.263 213.679 124.271 213.647C124.716 213.634 124.993 213.615 125.101 213.589C125.431 213.523 125.728 213.347 125.992 213.061C126.107 212.936 126.251 212.579 126.425 211.991C126.448 211.894 126.536 211.652 126.688 211.262C126.824 210.904 126.915 210.628 126.961 210.435C127.222 209.34 127.371 208.75 127.408 208.666C127.453 208.583 127.564 208.456 127.741 208.286C127.698 208.216 127.651 208.09 127.601 207.908C127.595 207.753 127.624 207.543 127.687 207.278L127.977 206.058C127.979 206.05 127.997 205.923 128.03 205.675C128.015 205.774 128.178 205.251 128.518 204.108C128.514 204.09 128.5 204.057 128.478 204.009C128.464 203.674 128.566 203.26 128.786 202.768C128.852 202.631 128.915 202.135 128.973 201.282C129.027 201.022 129.035 200.667 128.997 200.216C128.872 199.956 128.675 199.765 128.407 199.642C128.179 199.528 127.954 199.419 127.732 199.315C127.841 198.856 127.852 198.757 127.765 199.017C127.812 198.892 127.908 198.842 128.055 198.869C128.389 198.931 128.925 199.021 129.663 199.137C130.346 199.231 130.696 199.281 130.712 199.284L132.269 199.655C132.559 199.724 132.862 199.771 133.18 199.795C133.497 199.82 133.764 199.858 133.982 199.91C134.255 199.975 134.592 200.081 134.991 200.227C135.235 200.344 135.594 200.515 136.068 200.738C136.109 200.782 136.181 200.837 136.284 200.904C137.028 201.209 137.625 201.738 138.075 202.492C138.322 202.916 138.471 203.598 138.519 204.537C138.497 204.667 138.464 204.859 138.421 205.113C138.389 205.318 138.301 205.616 138.157 206.007C137.849 206.835 137.495 207.431 137.093 207.795C136.724 208.132 136.063 208.57 135.11 209.109C135.061 209.276 135.058 209.432 135.1 209.578C135.375 210.673 135.651 211.768 135.926 212.862C136.279 214.06 136.798 215.132 137.483 216.078C137.54 216.159 137.813 216.335 138.301 216.604C138.596 216.759 138.857 216.843 139.084 216.854C139.421 216.867 139.656 216.897 139.789 216.946C139.792 217.006 139.78 217.092 139.753 217.205ZM135.596 205.295C135.659 205.029 135.681 204.848 135.662 204.749C135.515 203.583 135.335 202.818 135.124 202.453C134.838 201.942 134.47 201.574 134.022 201.348C133.726 201.201 133.223 201.06 132.515 200.926C132.441 200.917 132.318 200.934 132.146 200.978C131.687 202.332 131.341 203.432 131.106 204.277C131.13 204.351 131.149 204.453 131.16 204.583C131.133 204.696 130.988 205.146 130.724 205.934C130.549 206.454 130.435 206.988 130.381 207.536C130.399 207.566 130.423 207.61 130.452 207.668L131.647 207.953C131.776 208.017 131.917 208.068 132.07 208.104C132.545 208.217 133.035 208.177 133.541 207.982C134.056 207.782 134.385 207.597 134.528 207.426C135.039 206.851 135.395 206.14 135.596 205.295Z" fill="#242246"/>
<path d="M158.726 220.337C158.749 220.4 158.755 220.46 158.745 220.517C158.697 220.794 158.506 220.904 158.171 220.845C158.106 220.834 158.043 220.81 157.982 220.774C157.802 220.65 157.587 220.558 157.338 220.498C157.161 220.45 156.929 220.409 156.641 220.376C156.289 220.323 156.06 220.287 155.954 220.268C154.809 220.043 154.135 219.933 153.933 219.94C153.74 219.94 153.432 219.924 153.009 219.892C152.636 219.86 152.421 219.747 152.363 219.552C152.348 219.49 152.374 219.415 152.44 219.326C152.507 219.228 152.583 219.179 152.668 219.177C152.694 219.173 153.013 219.195 153.626 219.244C154.099 219.276 154.453 218.935 154.687 218.22C154.789 217.734 154.942 217 155.147 216.02C155.157 215.963 155.157 215.866 155.148 215.73C155.146 215.595 155.15 215.5 155.16 215.442C155.293 214.777 155.406 213.818 155.499 212.566L155.668 211.6C155.671 211.584 155.66 211.431 155.635 211.141C155.62 210.844 155.619 210.634 155.632 210.511C155.687 209.957 155.74 209.58 155.792 209.38C155.793 209.371 155.828 209.293 155.896 209.146C155.972 208.999 156.019 208.873 156.038 208.767C156.067 208.596 156.037 208.457 155.947 208.348C155.727 208.453 155.536 208.684 155.372 209.042C155.279 209.143 155.161 209.29 155.018 209.483C154.958 209.633 154.858 209.846 154.717 210.124C154.666 210.174 154.583 210.264 154.468 210.395C154.436 210.482 154.382 210.599 154.306 210.745C154.106 211.021 153.814 211.423 153.427 211.952C153.391 212.063 153.328 212.228 153.24 212.448C153.149 212.533 153.045 212.645 152.929 212.784C152.891 212.904 152.818 213.059 152.709 213.25C152.518 213.477 152.246 213.828 151.894 214.304C151.841 214.463 151.743 214.689 151.599 214.983C151.55 215.025 151.48 215.088 151.39 215.173C151.377 215.196 151.29 215.362 151.127 215.669C151.043 215.764 150.939 215.901 150.815 216.081C150.771 216.191 150.691 216.357 150.577 216.581C150.497 216.651 150.396 216.772 150.274 216.944C150.272 216.952 149.923 217.487 149.224 218.549C149.189 218.703 149.067 218.9 148.857 219.14C148.848 219.139 148.662 219.127 148.296 219.105C148.071 219.091 147.909 219.012 147.808 218.868C147.709 218.717 147.58 218.324 147.422 217.692C147.335 217.417 147.222 217.01 147.08 216.473C147.044 216.198 146.983 215.826 146.897 215.358C146.883 215.296 146.593 214.36 146.028 212.547C146.022 212.437 146.004 212.278 145.973 212.071C145.707 211.235 145.34 209.924 144.872 208.137C144.855 207.798 144.792 207.296 144.682 206.63C144.546 206.161 144.359 205.905 144.123 205.864C144.048 205.91 143.977 206.12 143.912 206.495C143.927 206.598 143.934 206.751 143.933 206.952C143.922 207.059 143.892 207.209 143.841 207.402C143.792 207.637 143.768 207.746 143.771 207.73L143.566 208.904L142.454 213.459L142.277 214.474C142.29 214.4 142.267 214.485 142.208 214.726C142.157 214.969 142.083 215.368 141.986 215.922C141.968 216.07 141.975 216.273 142.006 216.53C142.151 216.9 142.307 217.158 142.475 217.305C142.632 217.366 142.866 217.491 143.178 217.68C143.289 217.767 143.305 217.887 143.228 218.042C143.032 218.201 142.56 218.164 141.811 217.933L140.698 217.738C140.478 217.699 140.31 217.678 140.193 217.675C139.645 217.638 139.091 217.566 138.53 217.459C138.465 217.398 138.431 217.303 138.428 217.177C138.428 217.034 138.481 216.947 138.587 216.915C138.632 216.898 138.825 216.898 139.166 216.916C139.247 216.888 139.355 216.848 139.49 216.796C139.914 216.677 140.242 216.36 140.475 215.847C140.53 215.722 140.653 215.307 140.844 214.601C140.903 214.502 140.982 214.361 141.082 214.176C141.19 213.893 141.254 213.698 141.272 213.592L141.435 212.663C141.44 212.631 141.457 212.583 141.485 212.521C141.52 212.46 141.54 212.421 141.543 212.405C141.621 211.906 141.814 211.193 142.119 210.263C142.147 210.201 142.215 209.931 142.323 209.455C142.501 208.629 142.608 208.068 142.643 207.772C142.648 207.739 142.673 207.672 142.716 207.571C142.76 207.461 142.784 207.394 142.789 207.369L143.088 205.658C143.094 205.625 143.155 205.514 143.272 205.325C143.399 205.128 143.482 204.992 143.52 204.914C143.579 204.773 143.609 204.598 143.612 204.389C143.568 204.255 143.507 204.055 143.427 203.789C143.449 203.617 143.385 203.383 143.235 203.088C143.132 203.053 142.981 203.002 142.783 202.933C142.585 202.865 142.321 202.769 141.99 202.643C141.667 202.52 141.494 202.452 141.471 202.439C141.254 202.334 141.155 202.208 141.172 202.059C141.398 201.923 141.738 201.923 142.192 202.062C142.526 202.17 142.979 202.317 143.552 202.501C143.624 202.522 143.743 202.534 143.911 202.539C144.121 202.533 144.268 202.538 144.349 202.552C144.391 202.551 144.852 202.657 145.73 202.869C145.973 202.92 146.125 203.203 146.186 203.718C146.233 203.835 146.304 204.053 146.399 204.372C146.413 204.534 146.443 204.771 146.49 205.081C146.607 205.228 146.739 205.457 146.886 205.768C146.867 205.924 146.848 206.152 146.83 206.451C146.879 206.552 146.935 206.692 146.996 206.871C147.39 208.46 147.752 210.014 148.083 211.533C148.161 211.9 148.234 212.328 148.299 212.819C148.374 213.302 148.509 213.851 148.704 214.464C148.804 214.616 148.924 214.843 149.064 215.145C149.083 215.181 149.09 215.355 149.086 215.665C149.094 215.86 149.165 215.981 149.3 216.03C149.4 216.031 149.488 215.983 149.564 215.887C149.901 215.451 150.315 214.784 150.808 213.887C151.301 212.991 151.753 212.276 152.166 211.744C152.22 211.627 152.31 211.45 152.435 211.211C152.526 211.076 152.667 210.87 152.858 210.592C152.872 210.561 152.923 210.511 153.011 210.443C153.108 210.367 153.168 210.311 153.192 210.273C153.246 210.106 153.345 209.875 153.489 209.581C153.489 209.581 153.649 209.341 153.968 208.859C154.12 208.709 154.374 208.455 154.731 208.098C154.76 208.078 154.839 207.89 154.968 207.535C154.983 207.495 155.333 206.935 156.018 205.854C156.052 205.708 156.136 205.492 156.27 205.205C156.577 204.746 157.098 204.648 157.833 204.911C157.914 204.976 158.044 205.053 158.221 205.143C158.806 205.304 159.239 205.375 159.519 205.357C159.682 205.386 159.913 205.409 160.212 205.428C160.284 205.399 160.404 205.365 160.57 205.327C160.738 205.281 160.906 205.302 161.076 205.39C161.159 205.439 161.197 205.512 161.188 205.611C161.168 205.868 161.015 206.001 160.728 206.01C160.486 206.001 160.244 205.992 160.002 205.983C159.928 206.021 159.8 206.078 159.619 206.156C159.445 206.235 159.197 206.384 158.872 206.605C158.861 206.62 158.74 206.905 158.509 207.461C158.32 207.915 158.208 208.626 158.173 209.595C158.153 210.045 158.12 210.454 158.072 210.824C158.003 211.215 157.911 211.816 157.794 212.628C157.798 212.603 157.704 213.049 157.51 213.964C157.404 214.474 157.352 214.99 157.353 215.511C157.386 215.853 157.394 216.358 157.378 217.027C157.275 217.9 157.228 218.412 157.235 218.565C157.246 219.029 157.404 219.443 157.71 219.807C157.801 219.915 157.932 219.98 158.105 220.002C158.319 220.023 158.454 220.046 158.508 220.072C158.6 220.122 158.673 220.211 158.726 220.337Z" fill="#242246"/>
<path d="M173.53 218.604C173.451 219.028 173.321 219.625 173.14 220.394C173.015 220.595 172.854 220.879 172.657 221.246C172.604 221.406 172.513 221.628 172.385 221.912C172.341 221.998 172.215 222.137 172.008 222.327C171.761 222.563 171.572 222.672 171.441 222.656L168.301 222.258C168.244 222.251 167.876 222.192 167.198 222.081C166.519 221.97 166.152 221.911 166.094 221.904L164.198 221.663C164.149 221.657 163.897 221.6 163.444 221.493C162.998 221.395 162.746 221.342 162.689 221.335L160.829 221.099L160.691 220.906C160.796 220.803 161.184 220.602 161.856 220.303C162.317 220.087 162.572 219.785 162.621 219.4L163.113 215.509C163.193 214.877 163.399 214.04 163.731 212.998C163.666 212.656 163.698 212.243 163.826 211.759C163.694 211.617 163.642 211.435 163.67 211.213C163.672 211.197 163.796 210.871 164.044 210.235C164.059 210.179 164.033 210.058 163.964 209.875C163.875 209.655 163.827 209.54 163.82 209.531C163.784 209.352 163.794 209.078 163.849 208.709C163.913 208.2 163.949 207.921 163.955 207.872C163.966 207.59 163.937 207.357 163.868 207.173C163.775 206.919 163.598 206.705 163.337 206.53C163.104 206.392 162.872 206.25 162.64 206.104C162.789 205.848 162.931 205.72 163.064 205.72C163.314 205.785 163.679 205.84 164.157 205.883C164.698 205.827 164.96 205.798 164.943 205.795L167.123 206.071C167.155 206.076 167.398 206.136 167.85 206.251C168.311 206.368 168.66 206.445 168.897 206.484C168.995 206.496 169.823 206.547 171.38 206.636C171.736 206.656 172.656 206.797 174.14 207.06C174.26 207.167 174.312 207.286 174.295 207.418C174.286 207.492 174.244 207.595 174.169 207.727C174.102 207.86 174.064 207.96 174.056 208.025C174.013 208.295 173.814 209.179 173.457 210.677C173.427 210.723 173.298 210.786 173.071 210.865C173.032 210.777 172.936 210.319 172.782 209.49C172.683 208.952 172.415 208.631 171.978 208.525C171.803 208.461 171.624 208.397 171.44 208.332C171.193 208.242 170.997 208.209 170.852 208.233C170.477 208.294 169.692 208.207 168.496 207.972C167.837 207.838 167.335 207.787 166.989 207.818C166.887 207.831 166.81 207.917 166.756 208.077C166.93 209.074 166.835 209.926 166.471 210.63C166.493 210.583 166.475 210.789 166.417 211.249C166.403 211.364 166.352 211.599 166.265 211.955C166.187 212.245 166.148 212.482 166.15 212.666C166.148 212.749 166.213 212.866 166.344 213.016L170.985 213.604C171.139 213.573 171.289 213.542 171.435 213.51C171.675 213.457 171.851 213.35 171.963 213.19C172.073 212.987 172.262 212.71 172.531 212.361C172.794 212.394 172.951 212.506 173.002 212.696C172.91 213.159 172.801 213.754 172.676 214.481C172.606 214.964 172.459 215.667 172.234 216.589C172.183 216.724 172.013 216.749 171.724 216.662C171.642 216.451 171.486 216.169 171.256 215.815C170.803 215.374 170.371 215.127 169.961 215.075L168.262 214.86C168.155 214.846 167.948 214.799 167.642 214.719C167.335 214.638 167.104 214.588 166.948 214.568C166.513 214.513 166.222 214.606 166.074 214.846C165.907 215.116 165.813 215.33 165.793 215.485C165.775 215.633 165.768 215.916 165.773 216.334C165.779 216.751 165.764 217.07 165.727 217.291C165.705 217.405 165.636 217.617 165.522 217.928C165.416 218.232 165.352 218.474 165.33 218.654C165.312 218.794 165.312 218.923 165.331 219.042C165.363 219.246 165.555 219.513 165.905 219.84C166.264 220.169 166.58 220.372 166.854 220.449C166.893 220.47 166.932 220.492 166.971 220.513C167.05 220.548 167.122 220.57 167.188 220.578L169.231 220.837C169.691 220.895 170.086 220.87 170.417 220.762C170.877 220.62 171.341 220.345 171.81 219.938C172.326 219.486 172.629 219.032 172.72 218.577C172.951 218.464 173.221 218.474 173.53 218.604Z" fill="#242246"/>
<path d="M186.997 218.281L186.873 218.407L186.806 218.326L186.891 218.072C187.019 218.217 187.054 218.286 186.997 218.281ZM192.438 209.254C192.279 209.265 192.049 209.285 191.747 209.316C191.426 209.378 191.161 209.554 190.952 209.842C190.655 210.272 190.458 210.703 190.361 211.134C190.185 211.883 190.076 212.496 190.032 212.974C190.029 213.007 190.013 213.367 189.984 214.053C189.956 214.732 189.94 215.092 189.936 215.133L189.758 217.099C189.756 217.123 189.761 217.207 189.773 217.349C189.793 217.492 189.796 217.6 189.781 217.674C189.641 218.666 189.566 219.224 189.554 219.348C189.548 219.414 189.553 219.551 189.567 219.76C189.582 219.961 189.588 220.078 189.585 220.111L189.241 223.905C189.236 223.955 189.238 223.984 189.245 223.993C189.262 223.995 189.27 223.999 189.269 224.008C188.683 224.054 188.419 224.08 188.477 224.085C188.131 224.054 187.92 223.997 187.844 223.916C187.324 223.337 186.567 222.338 185.574 220.919C185.4 220.637 185.138 220.231 184.787 219.701C184.472 219.332 184.047 218.795 183.512 218.09C183.387 217.829 183.173 217.44 182.871 216.923C182.21 215.957 181.28 214.539 180.078 212.669C179.91 212.513 179.683 212.268 179.397 211.935C179.394 211.876 179.377 211.792 179.346 211.681C179.261 211.515 179.117 211.265 178.915 210.931C178.734 210.998 178.636 211.118 178.621 211.291C178.621 211.283 178.641 211.708 178.679 212.567C178.683 212.618 178.668 212.695 178.633 212.8C178.6 212.897 178.581 212.961 178.578 212.994C178.549 213.324 178.515 213.836 178.477 214.53C178.448 215.217 178.434 215.552 178.435 215.536L178.279 217.266C178.274 217.316 178.24 217.736 178.177 218.528C178.121 219.321 178.092 219.738 178.088 219.779C177.932 221.501 178.464 222.463 179.683 222.665C179.708 222.667 179.734 222.707 179.76 222.784C179.795 222.854 179.82 222.898 179.835 222.915C179.83 223.065 179.798 223.186 179.74 223.281L175.426 222.89C175.393 222.887 175.239 222.893 174.963 222.91C174.695 222.935 174.54 222.946 174.499 222.943L174.301 222.925C174.234 222.844 174.201 222.795 174.202 222.779C174.229 222.49 174.337 222.305 174.527 222.222C174.747 222.176 175.072 222.081 175.5 221.937C175.924 221.751 176.199 221.419 176.326 220.94C176.648 219.765 176.76 219.039 176.66 218.765C176.613 218.644 176.613 218.544 176.662 218.466C176.662 218.466 176.699 218.427 176.772 218.351C176.772 218.351 176.751 218.312 176.708 218.233C176.708 218.142 176.726 217.985 176.763 217.764C176.8 217.535 176.823 217.371 176.832 217.272C176.843 217.157 176.836 216.957 176.812 216.672C176.796 216.388 176.794 216.189 176.804 216.073C176.793 216.197 176.832 215.943 176.923 215.312C176.917 215.286 176.887 215.2 176.834 215.054L176.901 214.998C176.939 214.952 176.968 214.863 176.988 214.732C177.007 214.709 177.009 214.68 176.996 214.645C176.965 213.704 176.964 213.072 176.993 212.751L177.148 211.045C177.148 211.045 177.153 210.801 177.164 210.312C177.184 209.823 177.203 209.472 177.222 209.258C177.225 209.233 177.242 209.18 177.274 209.1C177.314 209.021 177.333 208.952 177.33 208.894C176.764 208.178 176.004 207.81 175.05 207.79L174.994 207.722L175.031 207.314C175.131 207.215 175.359 207.182 175.713 207.214C175.754 207.218 176.082 207.264 176.697 207.353C177.32 207.443 177.653 207.49 177.694 207.493C177.727 207.496 178.033 207.508 178.613 207.527C179.201 207.547 179.516 207.559 179.557 207.563C179.755 207.581 179.869 207.599 179.901 207.619C180.012 207.67 180.227 207.96 180.545 208.487C181.141 209.513 182.041 211.04 183.245 213.069C183.493 213.448 183.865 214.014 184.362 214.765C184.197 215.481 184.268 215.853 184.573 215.881C184.605 215.884 184.674 215.865 184.777 215.824C184.88 215.784 184.953 215.766 184.994 215.769C185.101 215.779 185.231 215.945 185.385 216.266C185.461 216.431 185.534 216.591 185.603 216.747C186.161 217.287 186.502 217.692 186.627 217.961C186.647 218.104 186.686 218.315 186.744 218.595C186.802 218.691 186.851 218.742 186.892 218.745C186.934 218.749 186.976 218.736 187.02 218.707C187.065 218.678 187.091 218.664 187.099 218.664C187.3 218.923 187.569 219.301 187.906 219.797C188.052 219.743 188.128 219.688 188.133 219.63C188.137 219.589 188.127 219.518 188.103 219.416C188.079 219.314 188.069 219.242 188.072 219.201L188.192 217.879C188.196 217.837 188.193 217.779 188.183 217.703C188.182 217.62 188.188 217.517 188.199 217.393C188.246 217.24 188.291 217.019 188.333 216.733C188.314 216.49 188.292 216.135 188.268 215.667C188.257 215.6 188.277 215.477 188.326 215.299C188.376 215.121 188.401 215.019 188.404 214.994C188.407 214.961 188.4 214.894 188.385 214.793C188.37 214.684 188.364 214.609 188.368 214.567C188.365 214.418 188.383 214.216 188.423 213.962C188.468 213.642 188.496 213.428 188.506 213.321C188.509 213.28 188.495 213.208 188.463 213.106C188.439 213.004 188.425 212.928 188.421 212.877C188.421 212.877 188.448 212.768 188.501 212.548C188.515 212.483 188.51 212.354 188.486 212.161C188.47 211.968 188.467 211.822 188.476 211.723C188.479 211.691 188.502 211.618 188.545 211.506C188.589 211.393 188.609 211.312 188.605 211.262C188.586 210.919 188.544 210.417 188.48 209.755C188.403 209.316 187.959 208.989 187.148 208.774C187.177 208.636 187.174 208.486 187.139 208.325C187.236 208.259 187.532 208.248 188.027 208.293L190.268 208.584C190.219 208.579 190.592 208.588 191.387 208.61C191.86 208.62 192.224 208.682 192.48 208.797L192.438 209.254Z" fill="#242246"/>
<path d="M204.251 209.551C204.183 209.862 204.103 210.234 204.012 210.668L203.843 213.542C203.802 213.54 203.727 213.548 203.618 213.566C203.509 213.585 203.434 213.593 203.393 213.591C203.38 213.523 203.343 213.028 203.281 212.105C203.246 211.572 203.026 211.153 202.621 210.848C202.447 210.705 202.017 210.688 201.331 210.797C200.991 210.81 200.499 210.86 199.856 210.946C199.628 211.008 199.48 211.14 199.41 211.343C199.238 211.863 199.177 212.626 199.226 213.632C199.283 214.638 199.173 216.012 198.897 217.753C198.898 217.744 198.918 218.317 198.958 219.472C198.902 219.866 198.859 220.461 198.829 221.254C198.895 221.681 198.99 222.329 199.113 223.198C199.171 223.616 199.432 223.896 199.896 224.04C200.271 224.153 200.646 224.262 201.021 224.367C201.014 224.49 200.908 224.667 200.704 224.895L193.679 224.483C193.613 224.479 193.583 224.428 193.589 224.329C193.59 224.304 193.598 224.238 193.613 224.131C193.872 224.088 194.255 223.991 194.761 223.838C195.204 223.632 195.539 223.374 195.764 223.064C195.827 222.976 195.907 222.608 196.003 221.959C196.103 220.821 196.214 219.63 196.336 218.386L196.598 213.926L196.932 213.945C196.949 213.938 196.98 213.902 197.026 213.839C196.926 213.559 196.809 213.159 196.673 212.637C196.663 212.537 196.634 211.901 196.586 210.73L194.294 210.595C194.055 210.581 193.75 210.696 193.379 210.94C193.008 211.183 192.802 211.386 192.759 211.55C192.542 212.275 192.343 212.773 192.162 213.044C192.071 213.179 191.881 213.239 191.592 213.222C191.594 213.189 191.583 213.085 191.56 212.909C191.544 212.759 191.546 212.651 191.567 212.586C191.686 212.253 191.812 211.735 191.944 211.03C192.102 210.177 192.218 209.604 192.294 209.31C192.294 209.31 192.436 209.144 192.72 208.812C192.474 208.773 193.231 208.805 194.99 208.908C195.502 208.938 196.276 209.029 197.311 209.181C198.355 209.333 198.856 209.408 198.815 209.406L200.859 209.526C200.851 209.525 201.101 209.499 201.609 209.446C202.159 209.395 202.687 209.372 203.192 209.377C203.384 209.363 203.575 209.35 203.767 209.336C204.016 209.326 204.177 209.397 204.251 209.551Z" fill="#242246"/>
<path d="M218.27 225.433C218.119 225.495 217.899 225.509 217.611 225.475C217.132 225.42 216.91 225.392 216.943 225.393L215.95 225.364C214.751 225.328 213.815 225.362 213.141 225.466C212.767 225.521 212.52 225.476 212.4 225.332C212.391 225.083 212.41 224.873 212.456 224.7C212.622 224.689 212.856 224.638 213.156 224.547C213.283 224.477 213.381 224.355 213.453 224.184C213.524 224.012 213.541 223.876 213.502 223.775C213.409 223.293 213.265 222.568 213.071 221.602C213.056 221.544 212.972 221.305 212.819 220.887C212.696 220.552 212.638 220.298 212.643 220.124C212.636 220.074 212.583 220.048 212.484 220.045C212.343 220.041 211.664 220.054 210.447 220.083L207.828 220.042C207.638 220.028 207.455 220.196 207.279 220.547C207.191 220.727 207.067 220.992 206.908 221.343C206.7 221.916 206.599 222.257 206.604 222.364C206.606 222.307 206.557 222.553 206.458 223.105C206.388 223.492 206.38 223.757 206.434 223.899C206.464 223.983 206.584 224.119 206.794 224.307C207.012 224.496 207.198 224.621 207.354 224.684C207.395 224.702 207.46 224.724 207.55 224.752C207.613 224.87 207.664 224.962 207.704 225.03C207.528 225.074 207.287 225.121 206.979 225.169C206.501 225.114 205.811 225.06 204.911 225.008C204.719 225.06 204.423 225.109 204.025 225.155C204.008 225.155 203.707 225.109 203.122 225.017C203.107 224.975 203.1 224.937 203.101 224.904C203.104 224.805 203.232 224.668 203.486 224.494C203.58 224.372 203.738 224.216 203.959 224.023C204.153 223.905 204.325 223.699 204.474 223.406C204.624 223.104 204.853 222.639 205.162 222.011C205.298 221.618 205.502 221.024 205.774 220.229C205.951 219.853 206.179 219.281 206.459 218.511C206.666 217.946 206.968 217.107 207.366 215.993C207.4 215.961 207.443 215.913 207.494 215.848C207.515 215.981 207.546 216.048 207.588 216.049C207.645 216.051 207.725 215.875 207.827 215.523C207.919 215.203 207.968 214.972 207.972 214.832C207.972 214.807 207.969 214.794 207.96 214.794C207.943 214.818 207.912 214.892 207.867 215.015C207.869 214.932 207.881 214.816 207.902 214.668C208.045 214.325 208.246 213.818 208.506 213.147C208.574 212.826 208.766 212.351 209.083 211.724C209.128 211.584 209.197 211.371 209.288 211.084C209.37 210.838 209.526 210.47 209.756 209.981C209.784 209.874 209.851 209.723 209.956 209.527C210.007 209.471 210.202 209.46 210.54 209.495C210.863 209.513 211.35 209.557 212.001 209.626C212.198 210.253 212.553 211.252 213.066 212.625C213.078 212.783 213.117 213.016 213.182 213.324C213.303 213.717 213.466 214.082 213.671 214.419C213.628 214.475 213.654 214.691 213.751 215.067C213.874 215.369 214.055 215.813 214.294 216.399C214.451 216.975 214.696 217.777 215.029 218.805C215.047 219.037 215.116 219.371 215.235 219.805C215.233 219.871 215.251 219.975 215.288 220.117C215.381 220.335 215.546 220.753 215.784 221.373C215.871 221.508 215.989 221.714 216.138 221.992C216.128 222.058 216.133 222.149 216.155 222.266C216.26 222.608 216.424 223.089 216.645 223.708C216.724 223.851 216.857 224.112 217.044 224.49C217.091 224.591 217.323 224.726 217.74 224.896C217.863 224.941 218.043 225.008 218.28 225.098L218.27 225.433ZM212.089 218.742C212.08 218.733 211.803 217.901 211.257 216.246C211.168 215.912 211.029 215.416 210.842 214.756C210.749 214.555 210.625 214.265 210.471 213.888C210.426 213.713 210.347 213.463 210.233 213.136C209.915 213.805 209.563 214.482 209.178 215.166C209.127 215.214 209.067 215.291 208.998 215.396C208.969 215.52 208.918 215.708 208.844 215.963C208.783 216.077 208.708 216.24 208.618 216.453C208.606 216.593 208.58 216.774 208.54 216.997C208.48 217.078 208.41 217.191 208.331 217.338C208.284 217.527 208.214 217.794 208.121 218.139C208.078 218.204 208.021 218.293 207.952 218.407C207.971 218.316 207.977 218.387 207.97 218.618L212.089 218.742Z" fill="#242246"/>
<path d="M242.665 216.232C242.723 216.653 242.694 217.398 242.581 218.468C242.504 218.8 242.393 219.286 242.247 219.926C241.933 221.338 241.336 222.47 240.458 223.321C240.116 223.65 239.675 223.981 239.135 224.313C238.496 224.713 237.979 224.934 237.582 224.974C237.533 225.008 237.451 225.046 237.336 225.09C236.115 225.293 235.525 225.395 235.567 225.394L227.489 225.538C227.417 225.249 227.435 225.067 227.541 224.99C227.886 224.86 228.125 224.794 228.257 224.792C228.306 224.724 228.375 224.632 228.463 224.515C228.845 224.103 229.032 223.652 229.023 223.164C229.023 223.156 228.996 223.053 228.943 222.855C228.975 222.772 228.997 222.652 229.011 222.494C228.977 222.429 228.934 222.326 228.881 222.186C228.872 222.137 228.887 222.045 228.926 221.912C228.965 221.771 228.988 221.667 228.995 221.601C229.006 221.286 229.006 220.79 228.994 220.111L228.969 218.709C228.944 217.758 228.927 216.376 228.92 214.564C228.92 214.539 228.898 214.486 228.855 214.404C228.812 214.314 228.79 214.248 228.79 214.207C228.787 214.074 228.804 213.871 228.841 213.598C228.877 213.316 228.894 213.104 228.892 212.964C228.891 212.931 228.865 212.869 228.814 212.779C228.763 212.689 228.728 212.615 228.711 212.557C228.716 212.4 228.699 212.16 228.661 211.838C228.51 211.286 228.293 210.939 228.009 210.795C227.775 210.683 227.377 210.591 226.813 210.518C226.803 210.468 226.797 210.361 226.795 210.196C227.147 210.016 227.502 209.96 227.859 210.028C227.859 210.028 227.888 210.052 227.947 210.101C228.006 210.141 228.056 210.157 228.097 210.148C228.154 210.114 228.224 210.071 228.306 210.02C228.579 210.007 228.851 209.994 229.124 209.98C229.422 209.983 229.656 210.103 229.826 210.34C229.851 210.34 229.879 210.335 229.912 210.326C229.985 210.201 230.106 210.038 230.276 209.836C230.475 209.865 230.753 209.902 231.11 209.945C231.126 209.953 231.159 209.928 231.208 209.869C231.264 209.81 231.313 209.772 231.354 209.755C231.609 209.667 231.993 209.619 232.506 209.61L235.658 209.554C237.028 209.836 237.997 210.096 238.564 210.334C239.639 210.779 240.529 211.475 241.232 212.422C241.376 212.601 241.576 212.892 241.831 213.293C242.208 214.006 242.486 214.986 242.665 216.232ZM242.107 216.229C241.096 216.181 240.385 216.169 239.971 216.193C239.904 216.161 239.877 216.021 239.889 215.772C239.734 215.411 239.489 214.894 239.154 214.221C238.7 213.336 238.204 212.637 237.665 212.125C237.126 211.605 236.259 211.248 235.064 211.054C234.525 210.973 234.28 210.932 234.33 210.931L233.051 210.953C233.018 210.954 232.792 210.999 232.371 211.09C231.951 211.172 231.67 211.222 231.53 211.241C231.424 211.822 231.39 212.452 231.427 213.13C231.449 213.452 231.469 214.109 231.487 215.102L231.573 220.004C231.573 219.995 231.563 220.136 231.544 220.426C231.532 220.683 231.535 220.873 231.554 220.997C231.604 221.476 231.628 221.682 231.627 221.616C231.608 221.948 231.609 222.225 231.629 222.448C231.63 222.497 231.657 222.609 231.71 222.782C231.753 222.921 231.772 223.029 231.765 223.103C231.757 223.112 231.621 223.168 231.358 223.272C231.17 223.358 231.056 223.468 231.017 223.601C231.159 223.722 231.347 223.793 231.579 223.814C231.745 223.819 231.91 223.821 232.076 223.818C233.742 223.978 234.707 224.056 234.972 224.052C235.758 224.038 236.45 223.906 237.05 223.655C237.576 223.43 238.005 223.142 238.338 222.788C239.053 222.039 239.521 221.116 239.741 220.02C239.848 219.489 239.915 218.606 239.942 217.373C239.941 217.273 239.864 217.134 239.712 216.955C239.693 216.839 239.717 216.773 239.783 216.755C239.906 216.711 240.162 216.661 240.549 216.605C240.888 216.566 241.371 216.503 241.998 216.418C242.072 216.358 242.108 216.296 242.107 216.229Z" fill="#242246"/>
<path d="M258.888 220.437C258.885 220.868 258.862 221.478 258.819 222.267C258.731 222.487 258.622 222.795 258.493 223.19C258.469 223.357 258.419 223.592 258.343 223.894C258.314 223.987 258.215 224.145 258.044 224.369C257.842 224.644 257.675 224.785 257.543 224.792L254.383 224.952C254.325 224.955 253.952 224.962 253.265 224.972C252.578 224.982 252.206 224.988 252.148 224.991L250.239 225.088C250.189 225.09 249.932 225.078 249.467 225.052C249.01 225.034 248.753 225.026 248.695 225.029L246.824 225.124L246.654 224.959C246.739 224.838 247.086 224.572 247.694 224.16C248.11 223.866 248.308 223.525 248.289 223.136L248.09 219.219C248.058 218.583 248.114 217.723 248.258 216.639C248.133 216.314 248.092 215.902 248.133 215.402C247.978 215.286 247.895 215.116 247.883 214.893C247.882 214.877 247.948 214.534 248.08 213.864C248.085 213.806 248.038 213.692 247.938 213.523C247.812 213.323 247.745 213.218 247.736 213.211C247.669 213.04 247.631 212.769 247.62 212.396C247.594 211.884 247.58 211.603 247.577 211.553C247.538 211.274 247.469 211.05 247.369 210.881C247.233 210.647 247.021 210.467 246.733 210.341C246.48 210.246 246.226 210.147 245.972 210.044C246.074 209.766 246.191 209.615 246.322 209.592C246.58 209.612 246.948 209.601 247.427 209.56C247.949 209.41 248.202 209.335 248.186 209.336L250.38 209.224C250.413 209.223 250.662 209.239 251.128 209.273C251.602 209.307 251.959 209.322 252.199 209.319C252.298 209.314 253.121 209.218 254.669 209.032C255.023 208.989 255.954 208.967 257.462 208.965C257.599 209.049 257.67 209.157 257.677 209.289C257.681 209.364 257.657 209.473 257.607 209.616C257.564 209.759 257.545 209.864 257.548 209.93C257.554 210.203 257.513 211.108 257.425 212.645C257.402 212.696 257.287 212.78 257.077 212.899C257.023 212.818 256.848 212.384 256.551 211.596C256.36 211.083 256.04 210.814 255.591 210.787C255.407 210.755 255.219 210.723 255.027 210.691C254.768 210.646 254.569 210.648 254.431 210.697C254.072 210.822 253.284 210.875 252.065 210.854C251.393 210.838 250.89 210.876 250.555 210.968C250.457 210.997 250.396 211.096 250.371 211.263C250.717 212.214 250.773 213.069 250.538 213.827C250.552 213.776 250.571 213.982 250.594 214.445C250.6 214.561 250.592 214.801 250.569 215.167C250.543 215.467 250.546 215.707 250.58 215.887C250.593 215.969 250.677 216.073 250.832 216.198L255.505 215.961C255.651 215.904 255.793 215.847 255.931 215.79C256.159 215.696 256.313 215.559 256.395 215.381C256.467 215.162 256.605 214.857 256.809 214.466C257.073 214.452 257.247 214.534 257.331 214.712C257.321 215.185 257.319 215.79 257.323 216.527C257.34 217.015 257.318 217.733 257.258 218.68C257.232 218.822 257.069 218.876 256.769 218.842C256.652 218.649 256.449 218.398 256.16 218.09C255.636 217.735 255.168 217.568 254.755 217.589L253.045 217.676C252.937 217.681 252.725 217.671 252.409 217.646C252.093 217.621 251.857 217.612 251.7 217.62C251.262 217.642 250.991 217.784 250.889 218.046C250.771 218.342 250.716 218.569 250.724 218.726C250.732 218.874 250.775 219.154 250.854 219.564C250.933 219.974 250.973 220.291 250.977 220.515C250.974 220.631 250.944 220.852 250.886 221.178C250.836 221.495 250.815 221.745 250.824 221.927C250.832 222.067 250.855 222.194 250.893 222.308C250.961 222.504 251.197 222.732 251.599 222.993C252.01 223.254 252.357 223.398 252.64 223.425C252.682 223.44 252.724 223.454 252.766 223.468C252.85 223.489 252.925 223.498 252.991 223.494L255.049 223.39C255.512 223.366 255.896 223.272 256.203 223.108C256.631 222.887 257.039 222.535 257.429 222.051C257.858 221.516 258.077 221.016 258.086 220.552C258.294 220.4 258.561 220.362 258.888 220.437Z" fill="#242246"/>
<path d="M279 218.713C279.016 219.144 279.019 219.754 279.01 220.545C278.931 220.768 278.835 221.08 278.723 221.481C278.706 221.649 278.666 221.886 278.603 222.191C278.578 222.284 278.485 222.447 278.324 222.678C278.135 222.962 277.974 223.11 277.842 223.122L274.691 223.417C274.634 223.423 274.262 223.445 273.576 223.484C272.89 223.524 272.518 223.546 272.46 223.551L270.557 223.73C270.508 223.734 270.25 223.733 269.784 223.727C269.328 223.728 269.07 223.732 269.013 223.737L267.147 223.912L266.97 223.754C267.05 223.63 267.385 223.35 267.975 222.912C268.378 222.6 268.562 222.25 268.525 221.863L268.16 217.959C268.1 217.324 268.12 216.462 268.217 215.373C268.079 215.054 268.02 214.644 268.039 214.143C267.88 214.033 267.789 213.867 267.768 213.645C267.767 213.629 267.818 213.283 267.921 212.609C267.924 212.55 267.872 212.439 267.765 212.274C267.63 212.079 267.558 211.978 267.549 211.97C267.475 211.803 267.425 211.533 267.399 211.162C267.351 210.651 267.325 210.371 267.32 210.321C267.269 210.044 267.19 209.823 267.084 209.658C266.938 209.431 266.718 209.26 266.425 209.146C266.168 209.062 265.91 208.974 265.652 208.882C265.742 208.6 265.852 208.444 265.982 208.415C266.241 208.424 266.608 208.398 267.084 208.337C267.6 208.164 267.85 208.078 267.833 208.08L270.02 207.875C270.053 207.872 270.303 207.877 270.77 207.892C271.245 207.905 271.602 207.905 271.842 207.891C271.941 207.882 272.759 207.751 274.298 207.499C274.65 207.441 275.579 207.379 277.085 207.313C277.225 207.391 277.302 207.496 277.314 207.628C277.321 207.702 277.302 207.812 277.258 207.957C277.221 208.102 277.206 208.207 277.212 208.273C277.23 208.546 277.227 209.452 277.205 210.991C277.185 211.043 277.073 211.132 276.869 211.259C276.812 211.182 276.618 210.755 276.288 209.98C276.074 209.477 275.743 209.221 275.294 209.213C275.109 209.189 274.919 209.165 274.726 209.142C274.465 209.108 274.267 209.118 274.131 209.173C273.778 209.314 272.993 209.4 271.774 209.431C271.102 209.444 270.601 209.503 270.27 209.609C270.173 209.643 270.116 209.744 270.099 209.912C270.486 210.848 270.578 211.699 270.375 212.466C270.387 212.415 270.415 212.62 270.458 213.081C270.469 213.197 270.471 213.438 270.463 213.804C270.45 214.104 270.464 214.344 270.506 214.523C270.522 214.605 270.61 214.704 270.771 214.822L275.429 214.386C275.573 214.323 275.712 214.26 275.847 214.197C276.07 214.093 276.219 213.95 276.294 213.769C276.356 213.547 276.48 213.236 276.667 212.836C276.931 212.812 277.108 212.886 277.199 213.061C277.211 213.533 277.234 214.138 277.27 214.874C277.307 215.361 277.316 216.079 277.297 217.028C277.277 217.171 277.116 217.232 276.815 217.21C276.69 217.023 276.476 216.781 276.174 216.485C275.636 216.153 275.161 216.006 274.749 216.045L273.044 216.205C272.937 216.215 272.725 216.214 272.408 216.202C272.091 216.19 271.854 216.192 271.698 216.206C271.261 216.247 270.997 216.401 270.906 216.667C270.801 216.967 270.756 217.196 270.771 217.353C270.784 217.501 270.84 217.778 270.936 218.185C271.032 218.591 271.086 218.906 271.099 219.129C271.102 219.245 271.081 219.467 271.037 219.796C271 220.115 270.99 220.365 271.007 220.546C271.02 220.686 271.049 220.813 271.093 220.925C271.169 221.117 271.414 221.335 271.827 221.579C272.249 221.822 272.601 221.951 272.885 221.966C272.928 221.979 272.971 221.991 273.013 222.004C273.098 222.021 273.173 222.026 273.239 222.02L275.291 221.828C275.752 221.785 276.132 221.674 276.431 221.497C276.849 221.258 277.243 220.889 277.611 220.389C278.017 219.836 278.214 219.327 278.204 218.863C278.405 218.702 278.67 218.653 279 218.713Z" fill="#242246"/>
<path d="M291.287 217.255C291.31 217.436 291.256 217.805 291.126 218.364C291.004 218.913 290.905 219.255 290.83 219.389C290.503 219.906 290.145 220.368 289.754 220.776C289.54 220.994 289.248 221.19 288.877 221.361C287.923 221.798 287.003 222.073 286.116 222.185C286.133 222.182 285.976 222.194 285.645 222.219C285.347 222.232 285.128 222.251 284.99 222.276C285.024 222.347 285.018 222.202 284.972 221.841C284.742 221.67 284.459 221.605 284.123 221.648C283.999 221.663 283.891 221.731 283.798 221.851C283.816 221.866 283.947 221.908 284.189 221.977C284.158 222.131 284.069 222.217 283.921 222.236C283.765 222.256 283.408 222.234 282.85 222.171C282.122 222.087 281.584 221.955 281.236 221.774C281.156 221.734 281.033 221.416 280.866 220.82C280.739 220.344 280.632 219.753 280.543 219.047C280.462 218.406 280.429 217.881 280.444 217.471C280.486 217.474 280.616 217.441 280.832 217.372C280.908 217.445 280.956 217.598 280.977 217.829C281.006 218.125 281.02 218.269 281.019 218.261C281.085 218.453 281.183 218.737 281.314 219.112C281.329 219.169 281.463 219.335 281.715 219.612C281.863 219.794 282.118 220.036 282.482 220.341C282.78 220.52 283.166 220.638 283.64 220.695C283.895 220.738 284.152 220.785 284.408 220.836C284.731 220.887 284.996 220.9 285.201 220.874C285.289 220.913 285.354 220.93 285.395 220.925C285.428 220.92 285.476 220.906 285.54 220.881C285.603 220.857 285.651 220.842 285.684 220.838C285.725 220.833 285.885 220.846 286.165 220.878C286.443 220.901 286.598 220.911 286.631 220.906C286.664 220.902 286.736 220.847 286.848 220.741C286.967 220.626 287.058 220.557 287.122 220.532C287.345 220.454 287.673 220.341 288.105 220.195C288.329 220.117 288.485 219.872 288.575 219.461C288.619 219.347 288.682 219.18 288.763 218.962C288.755 218.904 288.752 218.813 288.753 218.688C288.762 218.628 288.799 218.519 288.862 218.361C288.926 218.203 288.955 218.104 288.95 218.062C288.911 217.759 288.842 217.505 288.741 217.301C288.683 217.175 288.479 216.904 288.126 216.49C288.028 216.436 287.884 216.358 287.696 216.257C286.91 215.772 286.17 215.461 285.477 215.323C285.283 215.239 285.003 215.128 284.635 214.991C284.203 214.87 283.496 214.584 282.513 214.133C282.444 214.116 282.345 214.087 282.214 214.045C281.942 213.871 281.654 213.636 281.35 213.341C280.913 212.913 280.675 212.684 280.638 212.655C280.624 212.54 280.594 212.369 280.549 212.141C280.489 212.065 280.402 211.939 280.288 211.761C280.266 211.589 280.224 211.352 280.161 211.052C280.202 210.98 280.22 210.919 280.213 210.87C280.096 210.668 280.038 210.571 280.039 210.579C280.041 210.596 280.103 210.392 280.225 209.968C280.227 209.784 280.253 209.531 280.304 209.207C280.328 209.129 280.516 208.868 280.868 208.423C281.069 208.49 281.16 208.524 281.144 208.526C281.155 208.416 281.187 208.275 281.241 208.101C281.905 207.284 282.543 206.753 283.154 206.509C283.655 206.313 284.34 206.16 285.21 206.05C285.251 206.045 285.671 206.038 286.471 206.029C287.27 206.02 287.69 206.013 287.732 206.008C287.764 206.003 287.942 205.96 288.266 205.878C288.596 205.786 288.782 205.738 288.823 205.732C289.052 205.703 289.18 205.787 289.205 205.984L289.276 208.039L289.411 209.111C289.413 209.127 289.423 209.272 289.44 209.545C289.458 209.818 289.475 210.016 289.49 210.139C289.482 210.14 289.455 210.16 289.41 210.199C289.373 210.237 289.334 210.259 289.293 210.264L289.01 210.299C288.952 210.04 288.852 209.673 288.709 209.199C288.332 208.263 287.724 207.701 286.883 207.515C286.446 207.42 285.702 207.439 284.651 207.571C284.454 207.596 284.128 207.721 283.673 207.945C283.28 208.136 282.935 208.542 282.638 209.164C282.532 209.385 282.494 209.615 282.524 209.853C282.573 210.239 282.759 210.687 283.081 211.197C283.201 211.282 283.365 211.398 283.576 211.547C284.214 212.042 285.12 212.449 286.294 212.768C288.15 213.268 289.477 213.91 290.276 214.693C290.571 214.981 290.791 215.333 290.935 215.748C291.104 216.236 291.222 216.738 291.287 217.255Z" fill="#242246"/>
<path d="M304.181 206.697C304.31 207.028 304.389 207.794 304.418 208.997C304.427 209.415 304.271 209.943 303.947 210.583C303.623 211.214 303.271 211.703 302.892 212.05C302.551 212.374 302.042 212.65 301.367 212.878C301.208 212.979 300.968 213.102 300.648 213.247C300.012 213.409 299.2 213.571 298.212 213.733C298.155 213.742 298.093 213.802 298.028 213.914C298.111 214.219 298.309 215.201 298.622 216.86C298.691 217.184 298.826 217.598 299.026 218.102C299.05 218.249 299.126 218.458 299.254 218.731C299.465 218.998 299.773 219.162 300.177 219.221C300.493 219.262 300.81 219.302 301.127 219.343C301.15 219.431 301.163 219.538 301.167 219.663C300.946 219.8 300.713 219.888 300.468 219.928L299.207 220.134C299.19 220.137 299.077 220.135 298.866 220.127C298.663 220.118 298.517 220.121 298.427 220.136C298.182 220.176 297.798 220.26 297.274 220.387C296.758 220.513 296.504 220.576 296.512 220.574L295.299 220.772C295.177 220.792 295.023 220.775 294.838 220.722C294.836 220.706 294.816 220.663 294.78 220.593C294.751 220.522 294.735 220.471 294.729 220.438C295.135 220.254 295.379 220.131 295.461 220.067C295.732 219.88 295.935 219.608 296.07 219.251C296.127 219.09 296.12 218.71 296.047 218.11C296.039 218.011 296.026 217.753 296.009 217.337C295.998 216.961 295.976 216.676 295.944 216.48C295.779 215.467 295.696 214.961 295.696 214.961C295.627 214.586 295.553 214.213 295.476 213.84C295.414 213.414 295.453 213.035 295.592 212.702C295.517 212.655 295.426 212.561 295.319 212.419C295.182 211.989 295.075 211.537 294.997 211.064C294.996 211.055 295.006 210.911 295.027 210.631C295.048 210.401 295.024 210.225 294.954 210.102C294.766 209.773 294.677 209.334 294.689 208.788C294.696 208.627 294.564 208.15 294.291 207.356C294.249 207.095 294.123 206.763 293.915 206.361C293.709 206.177 293.458 206.075 293.161 206.057C292.917 206.046 292.672 206.036 292.427 206.026C292.351 205.56 292.323 205.464 292.342 205.738C292.337 205.604 292.408 205.522 292.553 205.49C292.877 205.42 293.394 205.298 294.103 205.123C294.755 204.958 295.093 204.874 295.118 204.87L296.661 204.618C296.955 204.57 297.249 204.496 297.543 204.398C297.844 204.29 298.101 204.219 298.313 204.184C298.583 204.14 298.93 204.109 299.354 204.09C299.617 204.106 300.005 204.126 300.521 204.151C300.575 204.175 300.659 204.199 300.772 204.223C301.566 204.211 302.308 204.467 302.997 204.991C303.494 205.363 303.888 205.931 304.181 206.697ZM301.808 208.493C301.765 208.231 301.725 208.058 301.685 207.972C301.102 206.969 300.647 206.335 300.319 206.07C299.867 205.716 299.396 205.525 298.905 205.496C298.582 205.473 298.073 205.536 297.376 205.683C297.302 205.695 297.199 205.758 297.067 205.872C297.162 207.273 297.263 208.405 297.37 209.268C297.421 209.326 297.474 209.414 297.526 209.531C297.545 209.646 297.584 210.117 297.644 210.946C297.688 211.475 297.791 212.003 297.953 212.53C297.981 212.551 298.019 212.578 298.067 212.612L299.255 212.418C299.392 212.437 299.538 212.435 299.694 212.409C300.167 212.332 300.596 212.107 300.979 211.734C301.363 211.361 301.591 211.068 301.666 210.855C301.899 210.129 301.947 209.342 301.808 208.493Z" fill="#242246"/>
<path d="M322.101 215.669C321.969 215.765 321.759 215.83 321.471 215.865C320.992 215.924 320.77 215.949 320.802 215.943L319.83 216.147C318.656 216.394 317.754 216.647 317.124 216.906C316.773 217.047 316.523 217.062 316.372 216.95C316.305 216.71 316.274 216.501 316.278 216.323C316.437 216.272 316.652 216.168 316.923 216.01C317.029 215.911 317.097 215.77 317.126 215.587C317.155 215.403 317.139 215.267 317.078 215.178C316.874 214.731 316.564 214.06 316.148 213.167C316.12 213.114 315.982 212.902 315.735 212.531C315.538 212.234 315.421 212.001 315.385 211.831C315.367 211.784 315.309 211.771 315.212 211.791C315.075 211.82 314.417 211.992 313.241 212.307L310.686 212.882C310.498 212.913 310.36 213.12 310.271 213.502C310.227 213.697 310.169 213.984 310.097 214.363C310.029 214.969 310.011 215.324 310.041 215.427C310.029 215.37 310.04 215.622 310.073 216.181C310.096 216.574 310.151 216.833 310.236 216.959C310.286 217.033 310.434 217.137 310.682 217.271C310.938 217.403 311.149 217.481 311.315 217.506C311.359 217.513 311.428 217.52 311.522 217.525C311.611 217.625 311.682 217.703 311.736 217.759C311.576 217.844 311.352 217.946 311.065 218.065C310.587 218.124 309.904 218.233 309.016 218.395C308.842 218.49 308.566 218.608 308.189 218.746C308.173 218.749 307.87 218.775 307.28 218.823C307.255 218.786 307.239 218.751 307.233 218.719C307.212 218.622 307.305 218.458 307.51 218.229C307.574 218.089 307.69 217.9 307.86 217.661C308.021 217.5 308.139 217.26 308.216 216.94C308.29 216.611 308.404 216.105 308.556 215.422C308.596 215.008 308.655 214.383 308.733 213.546C308.817 213.14 308.904 212.53 308.995 211.716C309.064 211.118 309.161 210.231 309.286 209.055C309.311 209.016 309.341 208.959 309.376 208.884C309.428 209.008 309.474 209.066 309.514 209.058C309.571 209.046 309.607 208.856 309.623 208.489C309.638 208.157 309.631 207.921 309.602 207.784C309.597 207.759 309.59 207.748 309.582 207.75C309.571 207.777 309.558 207.856 309.543 207.986C309.526 207.905 309.51 207.79 309.496 207.641C309.554 207.274 309.631 206.733 309.726 206.02C309.716 205.692 309.792 205.186 309.952 204.502C309.964 204.355 309.98 204.132 310.002 203.832C310.023 203.573 310.089 203.179 310.197 202.649C310.199 202.539 310.228 202.376 310.285 202.162C310.321 202.095 310.508 202.038 310.845 201.993C311.163 201.935 311.647 201.863 312.296 201.777C312.635 202.34 313.214 203.228 314.036 204.442C314.084 204.593 314.176 204.81 314.312 205.094C314.522 205.447 314.766 205.764 315.044 206.044C315.016 206.109 315.092 206.312 315.274 206.655C315.465 206.919 315.745 207.308 316.116 207.822C316.403 208.345 316.829 209.067 317.395 209.988C317.467 210.21 317.612 210.517 317.83 210.911C317.844 210.976 317.885 211.073 317.954 211.202C318.096 211.392 318.355 211.76 318.732 212.307C318.848 212.418 319.011 212.591 319.221 212.825C319.227 212.892 319.254 212.979 319.302 213.087C319.485 213.396 319.757 213.825 320.117 214.374C320.227 214.495 320.418 214.717 320.689 215.041C320.758 215.128 321.015 215.205 321.46 215.272C321.59 215.287 321.781 215.31 322.033 215.341L322.101 215.669ZM314.522 210.617C314.512 210.611 314.047 209.868 313.127 208.387C312.962 208.083 312.711 207.633 312.374 207.036C312.236 206.862 312.048 206.61 311.81 206.28C311.725 206.12 311.589 205.895 311.401 205.605C311.249 206.33 311.067 207.07 310.853 207.825C310.815 207.884 310.774 207.973 310.732 208.091C310.733 208.218 310.728 208.414 310.716 208.678C310.683 208.803 310.648 208.98 310.611 209.207C310.632 209.347 310.649 209.529 310.663 209.755C310.623 209.847 310.582 209.974 310.54 210.135C310.539 210.33 310.533 210.606 310.524 210.963C310.497 211.037 310.463 211.137 310.422 211.264C310.419 211.171 310.442 211.238 310.49 211.465L314.522 210.617Z" fill="#242246"/>
<path d="M336.923 202.254C337.086 202.646 337.25 203.374 337.415 204.437C337.426 204.778 337.443 205.276 337.466 205.932C337.524 207.377 337.238 208.624 336.607 209.673C336.362 210.078 336.02 210.511 335.583 210.971C335.069 211.522 334.625 211.867 334.252 212.008C334.214 212.053 334.144 212.112 334.044 212.183C332.916 212.693 332.372 212.943 332.412 212.931L324.641 215.143C324.498 214.883 324.469 214.702 324.552 214.601C324.852 214.386 325.066 214.261 325.193 214.225C325.223 214.147 325.265 214.041 325.321 213.904C325.584 213.408 325.649 212.925 325.515 212.456C325.513 212.448 325.461 212.355 325.359 212.177C325.368 212.089 325.359 211.967 325.332 211.811C325.282 211.756 325.214 211.668 325.128 211.546C325.106 211.501 325.097 211.409 325.101 211.27C325.102 211.124 325.098 211.017 325.088 210.951C325.017 210.645 324.89 210.165 324.704 209.512L324.32 208.163C324.052 207.25 323.682 205.919 323.21 204.17C323.203 204.146 323.168 204.1 323.106 204.031C323.041 203.955 323.003 203.897 322.992 203.857C322.956 203.73 322.92 203.529 322.885 203.256C322.848 202.974 322.81 202.765 322.772 202.63C322.763 202.598 322.722 202.545 322.649 202.471C322.577 202.397 322.524 202.335 322.493 202.283C322.458 202.13 322.38 201.903 322.26 201.601C321.973 201.107 321.674 200.826 321.362 200.76C321.108 200.712 320.699 200.725 320.135 200.8C320.113 200.754 320.08 200.652 320.035 200.493C320.329 200.228 320.658 200.083 321.021 200.057C321.021 200.057 321.055 200.073 321.124 200.105C321.192 200.129 321.244 200.131 321.281 200.112C321.328 200.064 321.384 200.005 321.45 199.935C321.711 199.852 321.971 199.769 322.231 199.687C322.52 199.613 322.777 199.669 323.002 199.855C323.025 199.848 323.052 199.836 323.082 199.819C323.119 199.679 323.195 199.49 323.307 199.251C323.507 199.229 323.785 199.193 324.141 199.143C324.159 199.147 324.184 199.114 324.216 199.044C324.256 198.973 324.294 198.923 324.329 198.896C324.553 198.746 324.912 198.601 325.405 198.461L328.437 197.598C329.834 197.519 330.837 197.522 331.446 197.606C332.599 197.76 333.637 198.204 334.56 198.939C334.745 199.076 335.013 199.305 335.362 199.627C335.91 200.22 336.43 201.095 336.923 202.254ZM336.382 202.395C335.393 202.608 334.702 202.778 334.309 202.908C334.236 202.894 334.174 202.765 334.122 202.522C333.879 202.213 333.509 201.776 333.013 201.212C332.347 200.472 331.688 199.924 331.036 199.568C330.382 199.204 329.452 199.081 328.248 199.2C327.705 199.26 327.458 199.283 327.506 199.269L326.277 199.619C326.245 199.628 326.037 199.731 325.654 199.926C325.269 200.113 325.01 200.233 324.88 200.288C324.927 200.877 325.055 201.494 325.265 202.14C325.369 202.446 325.557 203.076 325.828 204.031L327.17 208.746C327.167 208.738 327.194 208.877 327.249 209.162C327.304 209.413 327.356 209.596 327.406 209.711C327.577 210.161 327.653 210.355 327.635 210.291C327.702 210.616 327.774 210.884 327.851 211.094C327.864 211.142 327.919 211.242 328.014 211.396C328.092 211.52 328.138 211.619 328.15 211.693C328.144 211.703 328.028 211.792 327.8 211.96C327.64 212.092 327.558 212.227 327.554 212.366C327.724 212.446 327.923 212.467 328.153 212.428C328.314 212.39 328.474 212.349 328.633 212.304C330.285 212.031 331.238 211.859 331.493 211.787C332.249 211.571 332.884 211.266 333.4 210.87C333.85 210.518 334.191 210.128 334.422 209.701C334.921 208.794 335.136 207.782 335.068 206.666C335.035 206.125 334.873 205.255 334.584 204.055C334.556 203.96 334.446 203.845 334.253 203.711C334.206 203.604 334.211 203.533 334.27 203.499C334.379 203.425 334.613 203.311 334.973 203.157C335.29 203.033 335.741 202.848 336.326 202.605C336.381 202.528 336.4 202.459 336.382 202.395Z" fill="#242246"/>
<path d="M356.866 205.163C356.746 205.274 356.545 205.364 356.263 205.434C355.796 205.549 355.578 205.601 355.609 205.59L354.669 205.91C353.533 206.296 352.668 206.656 352.073 206.989C351.742 207.171 351.495 207.216 351.332 207.123C351.237 206.893 351.18 206.689 351.164 206.511C351.315 206.442 351.516 206.313 351.766 206.123C351.859 206.013 351.91 205.865 351.916 205.679C351.923 205.493 351.891 205.36 351.82 205.279C351.564 204.859 351.176 204.231 350.655 203.394C350.621 203.345 350.459 203.151 350.169 202.812C349.937 202.541 349.794 202.324 349.738 202.159C349.714 202.115 349.655 202.109 349.561 202.141C349.428 202.186 348.796 202.436 347.666 202.89L345.199 203.767C345.016 203.821 344.903 204.043 344.861 204.433C344.841 204.632 344.818 204.924 344.791 205.308C344.797 205.918 344.822 206.272 344.864 206.372C344.846 206.317 344.886 206.565 344.986 207.117C345.056 207.503 345.142 207.754 345.242 207.869C345.3 207.936 345.46 208.022 345.722 208.125C345.992 208.225 346.211 208.278 346.378 208.282C346.423 208.284 346.492 208.283 346.586 208.277C346.686 208.365 346.766 208.434 346.827 208.483C346.678 208.586 346.468 208.714 346.197 208.868C345.729 208.983 345.065 209.174 344.203 209.441C344.041 209.557 343.782 209.706 343.424 209.889C343.409 209.894 343.111 209.956 342.531 210.074C342.502 210.041 342.482 210.008 342.471 209.977C342.439 209.883 342.512 209.71 342.688 209.457C342.734 209.311 342.827 209.109 342.967 208.851C343.107 208.673 343.196 208.42 343.234 208.092C343.268 207.757 343.32 207.241 343.39 206.545C343.379 206.129 343.363 205.501 343.34 204.661C343.374 204.248 343.387 203.631 343.38 202.813C343.376 202.211 343.366 201.319 343.349 200.136C343.37 200.094 343.393 200.034 343.418 199.955C343.485 200.072 343.537 200.124 343.576 200.111C343.631 200.093 343.644 199.9 343.616 199.534C343.591 199.202 343.555 198.969 343.51 198.836C343.502 198.813 343.494 198.802 343.486 198.805C343.479 198.834 343.475 198.913 343.476 199.044C343.449 198.966 343.42 198.854 343.388 198.707C343.401 198.336 343.413 197.79 343.422 197.07C343.373 196.746 343.387 196.235 343.464 195.536C343.458 195.389 343.447 195.165 343.432 194.865C343.423 194.606 343.44 194.206 343.484 193.667C343.473 193.557 343.483 193.393 343.513 193.173C343.541 193.102 343.72 193.023 344.049 192.938C344.357 192.842 344.829 192.712 345.464 192.549C345.867 193.067 346.549 193.88 347.511 194.986C347.577 195.129 347.694 195.334 347.863 195.6C348.114 195.926 348.394 196.211 348.704 196.455C348.684 196.523 348.784 196.716 349.006 197.034C349.227 197.273 349.552 197.626 349.981 198.092C350.329 198.576 350.839 199.242 351.512 200.088C351.61 200.3 351.79 200.588 352.054 200.953C352.075 201.015 352.128 201.106 352.213 201.226C352.376 201.398 352.677 201.733 353.117 202.23C353.246 202.326 353.429 202.478 353.665 202.686C353.679 202.751 353.716 202.835 353.777 202.936C353.995 203.22 354.317 203.613 354.741 204.116C354.864 204.222 355.08 204.42 355.388 204.709C355.467 204.787 355.731 204.832 356.181 204.845C356.312 204.845 356.505 204.845 356.758 204.846L356.866 205.163ZM348.735 201.058C348.724 201.053 348.173 200.371 347.082 199.011C346.882 198.73 346.579 198.313 346.173 197.761C346.015 197.605 345.798 197.377 345.521 197.078C345.418 196.929 345.256 196.722 345.035 196.457C344.971 197.195 344.879 197.951 344.758 198.727C344.726 198.79 344.697 198.883 344.669 199.006C344.685 199.131 344.703 199.326 344.723 199.59C344.706 199.719 344.692 199.898 344.683 200.128C344.721 200.264 344.76 200.443 344.8 200.665C344.772 200.762 344.746 200.893 344.724 201.058C344.746 201.252 344.774 201.526 344.807 201.882C344.789 201.958 344.768 202.061 344.742 202.192C344.728 202.101 344.759 202.165 344.833 202.384L348.735 201.058Z" fill="#242246"/>
<path d="M367.546 195.434C367.631 195.595 367.712 195.959 367.789 196.527C367.869 197.084 367.898 197.439 367.876 197.591C367.753 198.19 367.581 198.75 367.361 199.269C367.238 199.55 367.034 199.836 366.749 200.128C366.012 200.875 365.248 201.458 364.459 201.877C364.474 201.869 364.331 201.935 364.031 202.076C363.756 202.194 363.559 202.289 363.438 202.362C363.495 202.416 363.438 202.283 363.268 201.961C362.992 201.883 362.704 201.923 362.404 202.082C362.295 202.14 362.218 202.242 362.173 202.387C362.195 202.394 362.332 202.387 362.583 202.366C362.609 202.521 362.556 202.633 362.425 202.703C362.286 202.777 361.944 202.883 361.4 203.022C360.69 203.202 360.14 203.269 359.751 203.223C359.662 203.214 359.433 202.961 359.066 202.462C358.779 202.062 358.469 201.548 358.135 200.919C357.833 200.349 357.616 199.869 357.484 199.48C357.525 199.468 357.634 199.391 357.812 199.25C357.909 199.292 358.008 199.418 358.11 199.626C358.242 199.893 358.306 200.023 358.302 200.016C358.432 200.172 358.624 200.402 358.88 200.707C358.914 200.754 359.098 200.863 359.431 201.032C359.634 201.149 359.959 201.286 360.407 201.442C360.749 201.504 361.152 201.477 361.615 201.363C361.87 201.312 362.126 201.265 362.384 201.222C362.704 201.155 362.956 201.073 363.138 200.976C363.235 200.981 363.301 200.974 363.338 200.955C363.367 200.939 363.407 200.908 363.458 200.863C363.508 200.817 363.548 200.787 363.578 200.771C363.614 200.752 363.768 200.707 364.041 200.638C364.309 200.561 364.458 200.515 364.487 200.499C364.516 200.484 364.564 200.407 364.631 200.268C364.702 200.118 364.762 200.021 364.813 199.975C364.994 199.823 365.261 199.601 365.613 199.312C365.795 199.159 365.854 198.875 365.792 198.458C365.793 198.336 365.793 198.158 365.791 197.925C365.764 197.874 365.728 197.789 365.685 197.672C365.672 197.613 365.668 197.498 365.671 197.328C365.674 197.158 365.666 197.054 365.647 197.018C365.503 196.747 365.348 196.535 365.182 196.379C365.083 196.282 364.796 196.102 364.319 195.839C364.208 195.824 364.047 195.802 363.835 195.773C362.928 195.599 362.126 195.57 361.429 195.687C361.218 195.677 360.916 195.674 360.524 195.676C360.077 195.716 359.314 195.699 358.236 195.625C358.165 195.635 358.062 195.643 357.925 195.65C357.609 195.583 357.257 195.466 356.868 195.298C356.307 195.052 356.004 194.922 355.959 194.909C355.905 194.806 355.816 194.657 355.693 194.46C355.61 194.41 355.484 194.322 355.315 194.197C355.233 194.043 355.11 193.837 354.944 193.578C354.957 193.497 354.952 193.434 354.929 193.39C354.748 193.243 354.659 193.173 354.663 193.18C354.671 193.195 354.656 192.982 354.62 192.543C354.556 192.37 354.491 192.124 354.424 191.803C354.419 191.722 354.502 191.411 354.674 190.87C354.885 190.861 354.983 190.861 354.968 190.868C354.94 190.762 354.919 190.618 354.908 190.437C355.239 189.437 355.647 188.714 356.132 188.27C356.531 187.908 357.117 187.522 357.892 187.111C357.929 187.092 358.319 186.936 359.063 186.644C359.808 186.352 360.198 186.197 360.235 186.177C360.264 186.162 360.415 186.058 360.688 185.867C360.964 185.664 361.121 185.553 361.157 185.533C361.362 185.425 361.511 185.458 361.604 185.634L362.399 187.53L362.905 188.484C362.912 188.498 362.973 188.63 363.086 188.879C363.2 189.128 363.285 189.307 363.343 189.417C363.336 189.421 363.318 189.449 363.29 189.502C363.269 189.55 363.24 189.584 363.204 189.604L362.951 189.737C362.805 189.515 362.582 189.208 362.28 188.815C361.596 188.073 360.828 187.764 359.976 187.888C359.533 187.954 358.844 188.236 357.909 188.732C357.733 188.825 357.473 189.057 357.126 189.428C356.827 189.746 356.648 190.249 356.591 190.935C356.571 191.18 356.617 191.408 356.729 191.62C356.911 191.963 357.244 192.316 357.726 192.678C357.868 192.716 358.063 192.767 358.313 192.831C359.085 193.068 360.076 193.127 361.287 193.009C363.199 192.818 364.668 192.948 365.693 193.397C366.071 193.562 366.401 193.813 366.683 194.15C367.014 194.546 367.302 194.973 367.546 195.434Z" fill="#242246"/>
</svg>
