<svg width="294" height="255" viewBox="0 0 294 255" fill="none" xmlns="http://www.w3.org/2000/svg">
<path fill-rule="evenodd" clip-rule="evenodd" d="M278.032 13.1807C271.821 14.1125 266.976 19.3792 266.788 25.8766C266.739 27.5616 267.008 29.1821 267.54 30.6808L265.696 32.421L261.38 32.296L256.86 39.183C248.836 43.1371 234.055 58.9202 229.409 63.881L229.409 63.8812L229.409 63.8816C228.663 64.6776 228.179 65.1949 228.025 65.3397C227.781 65.57 227.53 66.035 227.243 66.5673C226.224 68.4564 224.746 71.1945 221.489 67.3097C218.729 64.0183 211.719 60.8397 206.367 58.4127L206.367 58.4126L206.367 58.4125C203.622 57.1678 201.313 56.1208 200.237 55.3576C197.697 53.5566 196.046 50.9175 195.538 49.8231C192.022 51.8806 191.337 58.1589 191.433 61.0408C188.731 64.8494 187.899 71.1954 187.821 73.8923C190.206 72.3419 195.953 69.0534 199.862 68.3029C203.771 67.5523 207.491 72.1227 208.862 74.5017L229.926 95.6894L229.941 95.9506C230.161 96.0859 230.4 96.2425 230.651 96.4184L231.774 97.5477L231.853 97.3408C234.088 99.2086 236.537 102.157 235.877 105.126C235.014 109.012 231.56 114.661 229.941 117C232.639 117 239.007 116.352 242.892 113.762C245.77 113.942 252.065 113.438 254.224 109.984C253.145 109.444 250.555 107.717 248.828 105.126C248.096 104.028 247.116 101.69 245.952 98.9099C243.68 93.4897 240.706 86.391 237.496 83.5369C237.41 83.4602 237.327 83.3845 237.247 83.3098L239.647 77.0676C239.649 77.0652 239.652 77.0627 239.654 77.0602C239.804 76.9109 240.335 76.4415 241.153 75.719C246.246 71.2186 262.45 56.9006 266.635 48.9944L273.65 44.6766V40.3588L275.363 38.6454C276.694 39.1444 278.128 39.4358 279.628 39.4793C280.413 39.502 281.184 39.4559 281.935 39.3463C288.431 38.5065 293.449 32.9534 293.449 26.2281C293.449 18.9224 287.527 13 280.223 13C279.477 13 278.745 13.0619 278.032 13.1807ZM272.47 26.2281C272.47 30.5107 275.942 33.9825 280.223 33.9825C280.56 33.9825 280.892 33.961 281.218 33.9193C284.836 33.3536 287.652 30.2764 287.762 26.4841C287.886 22.2042 284.516 18.6341 280.235 18.5101C279.79 18.4972 279.352 18.5221 278.925 18.582C275.261 19.1999 272.47 22.388 272.47 26.2281Z" fill="#242246"/>
<path fill-rule="evenodd" clip-rule="evenodd" d="M15.4165 13.1807C21.6275 14.1125 26.4722 19.3792 26.6604 25.8766C26.7092 27.5616 26.4406 29.1821 25.9086 30.6808L27.753 32.421L32.069 32.296L36.5881 39.183C44.6121 43.1371 59.3933 58.9201 64.0392 63.881L64.0393 63.881C64.7851 64.6773 65.2697 65.1948 65.4233 65.3397C65.6673 65.57 65.9182 66.0349 66.2055 66.5672L66.2055 66.5673L66.2055 66.5673C67.2249 68.4564 68.7024 71.1945 71.9598 67.3097C74.7197 64.0183 81.7293 60.8397 87.0815 58.4127L87.0815 58.4126L87.0819 58.4125C89.8267 57.1678 92.1356 56.1208 93.2117 55.3576C95.7513 53.5566 97.4027 50.9175 97.911 49.8231C101.426 51.8806 102.112 58.1589 102.016 61.0408C104.718 64.8494 105.549 71.1954 105.628 73.8923C103.243 72.3419 97.496 69.0534 93.5866 68.3029C89.6773 67.5523 85.958 72.1227 84.587 74.5017L63.5225 95.6895L63.5071 95.9506C63.2874 96.0859 63.049 96.2424 62.798 96.4182L61.675 97.5477L61.5955 97.3407C59.3603 99.2086 56.9117 102.157 57.5714 105.126C58.4348 109.012 61.8883 114.661 63.5071 117C60.8091 117 54.4417 116.352 50.5565 113.762C47.6785 113.942 41.3831 113.438 39.2246 109.984C40.3038 109.444 42.894 107.717 44.6207 105.126C45.3525 104.028 46.3322 101.69 47.497 98.9099C49.7681 93.4897 52.7425 86.391 55.9526 83.5369C56.0389 83.4602 56.1218 83.3845 56.2014 83.3097L53.8017 77.0677C53.7992 77.0652 53.7966 77.0627 53.7941 77.0602C53.6448 76.9109 53.1136 76.4415 52.2959 75.719L52.2959 75.719C47.2026 71.2186 30.9983 56.9006 26.8135 48.9944L19.7986 44.6766V40.3588L18.0855 38.6454C16.755 39.1444 15.3206 39.4358 13.8208 39.4793C13.0356 39.502 12.2645 39.4559 11.5131 39.3463C5.01782 38.5065 7.62939e-06 32.9534 7.62939e-06 26.2281C7.62939e-06 18.9224 5.92117 13 13.2253 13C13.9717 13 14.7037 13.0619 15.4165 13.1807ZM20.9781 26.2281C20.9781 30.5107 17.507 33.9825 13.2253 33.9825C12.8885 33.9825 12.5567 33.961 12.2312 33.9193C8.61275 33.3537 5.79659 30.2765 5.68674 26.4841C5.56278 22.2042 8.93259 18.6341 13.2134 18.5101C13.6589 18.4972 14.0966 18.5221 14.5236 18.5819C18.1872 19.1997 20.9781 22.3879 20.9781 26.2281Z" fill="#242246"/>
<path d="M69.6636 232.17L93.5416 208H117.975L81.3249 243.706L63 250.297L69.6636 232.17Z" fill="#242246"/>
<path d="M227.311 232.17L203.433 208H179L215.65 243.706L233.975 250.297L227.311 232.17Z" fill="#242246"/>
<path d="M146.829 109.856V0.412231C141.332 0.412231 130.09 12.7489 125.156 18.9173L120.399 17.3311V39.5372L122.513 41.1234V52.2264L114.056 47.9967C115.289 52.2264 116.276 60.7916 110.355 61.2146C104.435 61.6376 95.202 62.8007 91.3256 63.3295C80.5773 72.1414 59.0807 91.1399 59.0807 96.6386C59.0807 102.137 64.3668 106.684 67.0098 108.27L146.829 109.856Z" fill="#242246"/>
<path d="M146.828 34.25V29.4915C140.908 29.4915 129.913 27.7292 125.156 26.848C131.922 32.7696 142.423 34.25 146.828 34.25Z" fill="#EDD396"/>
<path d="M109.826 82.3631L107.712 83.4205L98.7255 70.2026L109.826 82.3631Z" fill="#EDD396"/>
<path d="M114.055 81.3057L112.469 81.8344L105.597 71.7888L114.055 81.3057Z" fill="#EDD396"/>
<path d="M118.284 79.7195L116.698 80.2482L111.412 72.8462L118.284 79.7195Z" fill="#EDD396"/>
<path d="M171.231 38.7873V19.4124L168.448 20.3403L167.455 20.6712L166.802 19.8542C164.366 16.8089 160.371 12.2394 156.323 8.44619C154.296 6.54753 152.292 4.8763 150.488 3.68927C149.449 3.0056 148.55 2.53248 147.801 2.24732V108.326L225.677 106.779C226.862 106.015 228.519 104.681 229.914 102.973C231.451 101.09 232.549 98.9068 232.549 96.6386C232.549 96.3624 232.385 95.7517 231.803 94.7355C231.25 93.7705 230.423 92.6129 229.357 91.2983C227.228 88.6731 224.253 85.5546 220.911 82.3014C214.368 75.9333 206.53 69.1581 201.181 64.7587C197.097 64.2083 188.333 63.1156 182.667 62.7108C180.776 62.5757 179.33 61.7612 178.34 60.4854C177.392 59.2637 176.941 57.7249 176.753 56.2186C176.53 54.4277 176.656 52.4891 176.931 50.7454L171.287 53.568L169.116 54.6537V52.2264V41.1234V40.3735L169.716 39.9235L171.231 38.7873Z" fill="#EDD396" stroke="#242246" stroke-width="3"/>
<path d="M146.3 34.25V29.4915C152.22 29.4915 163.215 27.7292 167.973 26.848C161.207 32.7696 150.705 34.25 146.3 34.25Z" fill="#242246"/>
<path d="M183.302 82.3631L185.417 83.4205L194.403 70.2026L183.302 82.3631Z" fill="#242246"/>
<path d="M179.073 81.3057L180.659 81.8344L187.531 71.7888L179.073 81.3057Z" fill="#242246"/>
<path d="M174.844 79.7195L176.43 80.2482L181.716 72.8462L174.844 79.7195Z" fill="#242246"/>
<path d="M148.211 70.2028C129.638 89.655 89.9124 91.9244 72.3712 90.6276C68.4158 104.082 67.6834 154.82 72.3712 170.382C81.864 201.894 126.887 237.978 148.211 252.081C191.032 230.197 219.57 183.931 223.019 170.382C226.115 158.224 227.491 113.16 226.115 90.6276C181.54 92.9619 155.606 77.9837 148.211 70.2028Z" fill="#242246" stroke="white" stroke-width="4"/>
</svg>
