<svg width="280" height="322" viewBox="0 0 280 322" fill="none" xmlns="http://www.w3.org/2000/svg">
<g filter="url(#filter0_di_125_190)">
<path d="M262.103 164.858C267.133 144.599 269.369 69.5048 267.133 31.9578C157.051 -5.31925 123.513 -5.31925 17.2768 31.9578C10.8488 54.3779 9.65849 138.926 17.2768 164.858C32.704 217.37 105.872 277.499 140.528 301C210.119 264.533 256.496 187.437 262.103 164.858Z" fill="#242246"/>
<path d="M262.103 164.858C267.133 144.599 269.369 69.5048 267.133 31.9578C157.051 -5.31925 123.513 -5.31925 17.2768 31.9578C10.8488 54.3779 9.65849 138.926 17.2768 164.858C32.704 217.37 105.872 277.499 140.528 301C210.119 264.533 256.496 187.437 262.103 164.858Z" stroke="white" stroke-width="6"/>
</g>
<g filter="url(#filter1_i_125_190)">
<circle cx="76.5" cy="24.5" r="4.5" fill="white"/>
<circle cx="27.5" cy="43.5" r="4.5" fill="white"/>
<circle cx="40.5" cy="185.5" r="4.5" fill="white"/>
<circle cx="24.5" cy="145.5" r="4.5" fill="white"/>
<circle cx="22.5" cy="97.5" r="4.5" fill="white"/>
<circle cx="68.5" cy="220.5" r="4.5" fill="white"/>
<circle cx="105.5" cy="257.5" r="4.5" fill="white"/>
<circle cx="139.5" cy="14.5" r="4.5" fill="white"/>
<circle cx="140.5" cy="286.5" r="4.5" fill="white"/>
<circle r="4.5" transform="matrix(-1 0 0 1 200.5 24.5)" fill="white"/>
<circle r="4.5" transform="matrix(-1 0 0 1 249.5 43.5)" fill="white"/>
<circle r="4.5" transform="matrix(-1 0 0 1 236.5 185.5)" fill="white"/>
<circle r="4.5" transform="matrix(-1 0 0 1 252.5 145.5)" fill="white"/>
<circle r="4.5" transform="matrix(-1 0 0 1 254.5 97.5)" fill="white"/>
<circle r="4.5" transform="matrix(-1 0 0 1 212.5 220.5)" fill="white"/>
<circle r="4.5" transform="matrix(-1 0 0 1 180.5 257.5)" fill="white"/>
</g>
<path d="M142.666 171.423C142.666 171.423 143.615 177.162 152.879 183.909C152.879 183.909 154.994 204.247 164.157 204.449C164.157 204.449 166.574 204.348 166.273 202.233C166.017 200.436 165.468 197.803 167.28 196.998C169.71 195.918 174.026 196.897 174.127 201.025C174.228 205.153 174.127 210.892 165.87 212.402C165.87 212.402 158.518 213.408 154.791 208.174C151.064 202.939 144.074 186.325 142.664 183.706C141.254 186.323 134.263 202.937 130.537 208.174C126.812 213.41 119.458 212.402 119.458 212.402C111.201 210.892 111.1 205.153 111.201 201.025C111.302 196.897 115.618 195.917 118.049 196.998C119.862 197.803 119.313 200.436 119.055 202.233C118.753 204.348 121.171 204.449 121.171 204.449C130.336 204.247 132.45 183.909 132.45 183.909C141.718 177.162 142.666 171.423 142.666 171.423V171.423ZM157.134 58.7254L156.972 52.7945C149.611 44.539 142.646 40 142.646 40C142.646 40 111.326 60.4149 111.326 93.3908C111.326 117.996 122.47 127.282 122.47 127.282C122.47 127.282 124.792 131.925 118.988 135.174C118.988 135.174 119.916 142.371 123.632 146.78C123.632 146.78 121.774 149.797 117.364 149.333C112.952 148.869 100.414 145.852 101.575 131.691C102.737 117.53 106.683 109.406 105.29 98.2641C103.896 87.1223 97.6259 75.7469 87.6433 76.2109C77.6592 76.6749 71.1445 84.2729 70.9269 90.8357C70.6948 97.8002 75.8029 103.139 81.143 103.139C86.4831 103.139 87.877 100.354 87.6433 98.7281C87.4113 97.1026 86.9472 95.7107 83.6955 95.4787C80.4437 95.2467 79.0515 94.0851 79.0515 91.5317C79.0515 88.9782 80.6773 85.7288 86.4815 85.9608C92.2857 86.1928 96.0016 96.8706 95.3039 101.978C94.6077 107.084 89.4997 125.423 90.4278 131.922C91.356 138.422 92.9819 153.277 112.95 158.616C112.95 158.616 123.398 161.17 127.346 156.759C127.346 156.759 125.72 161.402 128.274 165.347C128.274 165.347 129.735 173.679 119.452 177.418C111.79 180.204 98.7877 181.132 97.3954 173.705C97.3954 173.705 96.7249 166.35 101.575 167.204C105.523 167.9 106.451 171.151 105.058 174.401C105.058 174.401 109.237 178.58 113.648 174.633C113.648 174.633 116.253 159.926 100.878 159.312C89.2692 158.848 88.5715 170.918 88.5715 173.007C88.5715 175.097 88.3395 186.239 108.308 187.864C128.276 189.49 137.54 174.633 142.646 165.347C147.755 174.633 157.019 189.488 176.985 187.864C196.952 186.24 196.721 175.097 196.721 173.007C196.721 170.918 196.025 158.848 184.415 159.312C169.04 159.926 171.645 174.633 171.645 174.633C176.057 178.58 180.235 174.401 180.235 174.401C178.842 171.151 179.771 167.9 183.718 167.204C188.568 166.349 187.898 173.705 187.898 173.705C186.504 181.133 173.501 180.204 165.841 177.418C155.558 173.679 157.019 165.347 157.019 165.347C159.573 161.4 157.947 156.759 157.947 156.759C161.895 161.17 172.343 158.616 172.343 158.616C192.309 153.279 193.935 138.422 194.864 131.923C195.792 125.424 190.684 107.084 189.987 101.979C189.291 96.8722 193.006 86.1944 198.81 85.9624C204.614 85.7304 206.24 88.9798 206.24 91.5333C206.24 94.0867 204.846 95.2467 201.596 95.4803C198.346 95.7139 197.882 97.1058 197.648 98.7297C197.416 100.355 198.808 103.141 204.148 103.141C209.488 103.141 214.597 97.8018 214.364 90.8373C214.145 84.2761 207.631 76.6781 197.648 76.2125C187.664 75.7485 181.396 87.1223 180.002 98.2641C178.608 109.406 182.556 117.53 183.716 131.691C184.876 145.85 172.34 148.869 167.928 149.333C163.516 149.797 161.659 146.78 161.659 146.78C165.374 142.369 166.303 135.174 166.303 135.174C160.499 131.925 162.821 127.282 162.821 127.282C162.821 127.282 173.965 117.996 173.965 93.3908C173.965 79.4683 168.382 67.7857 161.93 58.9318L157.134 58.7254V58.7254ZM137.388 142.023L134.367 146.857C134.367 146.857 126.511 142.225 126.914 138.4C127.317 134.574 128.526 134.774 129.131 134.774C129.735 134.774 137.388 142.023 137.388 142.023ZM156.91 134.774C157.515 134.774 158.723 134.573 159.126 138.4C159.529 142.225 151.674 146.857 151.674 146.857L148.652 142.023C148.652 142.023 156.305 134.774 156.91 134.774ZM71.2213 169.612C70.6164 162.565 81.3927 154.308 82.7017 153.1C84.0107 151.892 83.553 150.589 82.9033 149.474C82.1976 148.266 80.0836 147.863 78.0689 148.266C75.7629 148.727 61.9557 156.12 63.0631 171.022C64.1705 185.924 76.9615 194.28 88.0386 194.08C99.1173 193.878 101.433 190.454 101.433 190.454C98.21 189.749 92.0665 185.722 92.0665 185.722C78.7746 186.325 71.8246 176.66 71.2213 169.612V169.612ZM213.259 169.612C213.864 162.565 203.087 154.308 201.778 153.1C200.469 151.892 200.927 150.589 201.577 149.474C202.282 148.266 204.396 147.863 206.411 148.266C208.717 148.727 222.524 156.12 221.417 171.022C220.31 185.924 207.519 194.28 196.441 194.08C185.363 193.878 181.901 191.16 181.901 191.16C185.124 190.454 192.375 186.73 192.375 186.73C205.669 187.333 212.655 176.66 213.259 169.612V169.612Z" fill="white"/>
<defs>
<filter id="filter0_di_125_190" x="0" y="0" width="280" height="321.491" filterUnits="userSpaceOnUse" color-interpolation-filters="sRGB">
<feFlood flood-opacity="0" result="BackgroundImageFix"/>
<feColorMatrix in="SourceAlpha" type="matrix" values="0 0 0 0 0 0 0 0 0 0 0 0 0 0 0 0 0 0 127 0" result="hardAlpha"/>
<feOffset dy="8"/>
<feGaussianBlur stdDeviation="4.5"/>
<feComposite in2="hardAlpha" operator="out"/>
<feColorMatrix type="matrix" values="0 0 0 0 0 0 0 0 0 0 0 0 0 0 0 0 0 0 0.15 0"/>
<feBlend mode="normal" in2="BackgroundImageFix" result="effect1_dropShadow_125_190"/>
<feBlend mode="normal" in="SourceGraphic" in2="effect1_dropShadow_125_190" result="shape"/>
<feColorMatrix in="SourceAlpha" type="matrix" values="0 0 0 0 0 0 0 0 0 0 0 0 0 0 0 0 0 0 127 0" result="hardAlpha"/>
<feOffset dy="6"/>
<feGaussianBlur stdDeviation="6.5"/>
<feComposite in2="hardAlpha" operator="arithmetic" k2="-1" k3="1"/>
<feColorMatrix type="matrix" values="0 0 0 0 0 0 0 0 0 0 0 0 0 0 0 0 0 0 1 0"/>
<feBlend mode="normal" in2="shape" result="effect2_innerShadow_125_190"/>
</filter>
<filter id="filter1_i_125_190" x="18" y="7" width="241" height="284" filterUnits="userSpaceOnUse" color-interpolation-filters="sRGB">
<feFlood flood-opacity="0" result="BackgroundImageFix"/>
<feBlend mode="normal" in="SourceGraphic" in2="BackgroundImageFix" result="shape"/>
<feColorMatrix in="SourceAlpha" type="matrix" values="0 0 0 0 0 0 0 0 0 0 0 0 0 0 0 0 0 0 127 0" result="hardAlpha"/>
<feOffset dy="-3"/>
<feGaussianBlur stdDeviation="2"/>
<feComposite in2="hardAlpha" operator="arithmetic" k2="-1" k3="1"/>
<feColorMatrix type="matrix" values="0 0 0 0 0.141176 0 0 0 0 0.133333 0 0 0 0 0.27451 0 0 0 0.65 0"/>
<feBlend mode="normal" in2="shape" result="effect1_innerShadow_125_190"/>
</filter>
</defs>
</svg>
