<svg width="147" height="143" viewBox="0 0 147 143" fill="none" xmlns="http://www.w3.org/2000/svg">
<g filter="url(#filter0_d_100_335)">
<path d="M12.4844 10.2531C11.5257 10.2531 11.0463 10.4928 10.8066 12.8897C9.12876 13.6087 9.12874 12.8897 8.40969 12.8897C7.69065 12.8897 7.6906 10.2531 8.40969 9.05459C9.12879 7.85611 12.4844 8.3355 14.1622 9.05459C15.8401 9.77369 15.84 11.2118 19.1957 12.8897C22.5514 14.5675 28.5436 16.9643 32.6183 17.6834C36.6931 18.4025 40.7678 17.6834 45.3219 17.6834C48.9652 17.6834 52.9121 15.7659 54.4301 14.8072C57.0667 17.4438 65.9352 17.4437 70.9687 15.7659C76.0022 14.0881 78.1594 12.1706 81.515 11.2118C84.8707 10.2531 89.4248 10.2531 91.8217 10.2531C93.7392 10.2531 95.0176 12.3304 95.417 13.369C93.7392 13.369 90.1918 13.4649 89.4248 13.8484C88.466 14.3278 87.9867 17.4437 88.7057 18.4025C89.4248 19.3612 93.4995 19.6009 95.417 19.6009C96.9511 19.6009 98.7727 17.5236 99.4918 16.4849C101.889 17.204 106.443 18.4025 108.6 18.4025C110.757 18.4025 114.113 17.6834 115.551 17.4437C116.989 17.204 119.146 16.0056 121.064 13.369C122.981 10.7325 121.304 7.37677 121.064 6.17836C120.824 4.97994 119.146 3.30204 117.469 3.06235C115.791 2.82266 114.592 3.30204 113.394 4.02113C112.195 4.74022 110.518 8.33553 112.435 9.05459C114.353 9.77366 115.791 9.05459 115.551 7.37677C115.359 6.0345 116.749 6.01855 117.469 6.17836C118.427 6.65777 117.708 8.33553 117.469 10.2531C117.229 12.1706 114.832 13.369 113.394 13.8484C111.956 14.3278 110.278 14.8072 106.443 14.8072C103.375 14.8072 100.53 13.8484 99.4918 13.369C99.9712 11.9308 98.2933 10.2531 97.0949 8.33553C95.8964 6.41797 92.3011 6.17836 89.4248 6.17836C86.5485 6.17836 84.8707 6.17836 81.515 7.37677C78.1594 8.57518 73.3656 11.2118 70.9687 12.1706C68.5718 13.1294 58.9842 13.8484 58.2651 13.8484C57.5461 13.8484 55.3889 12.8897 55.8682 12.1706C56.3476 11.4515 57.7858 10.2531 58.2651 9.05459C58.7445 7.85611 58.7445 4.7402 57.7858 4.02113C56.827 3.30206 55.6285 3.54175 54.4301 4.02113C53.2317 4.50051 53.2317 5.21958 52.5126 6.17836C51.7935 7.13713 52.0332 10.2531 51.7935 11.2118C51.5538 12.1706 50.1157 12.1706 47.4791 13.8484C44.8425 15.5262 36.6931 14.8072 32.6183 14.8072C28.5436 14.8072 22.5514 11.2118 20.6338 10.2531C18.7163 9.29432 16.5591 6.89742 14.8813 6.17836C13.2035 5.45929 10.8066 5.69898 8.40969 6.17836C6.01279 6.65774 5.7731 9.05463 5.29373 11.2118C4.81435 13.369 6.97155 14.8072 8.40969 15.5263C9.84783 16.2453 12.4844 15.2866 13.2035 14.8072C13.9226 14.3278 14.1622 12.8897 14.1622 12.1706C14.1622 11.4515 13.4432 10.2531 12.4844 10.2531Z" fill="#242246" stroke="black" stroke-width="0.47938"/>
<path d="M133.282 129.266C133.282 130.224 133.522 130.704 135.919 130.944C136.638 132.621 135.919 132.621 135.919 133.34C135.919 134.059 133.282 134.06 132.084 133.34C130.885 132.621 131.365 129.266 132.084 127.588C132.803 125.91 134.241 125.91 135.919 122.554C137.597 119.199 139.994 113.207 140.713 109.132C141.432 105.057 140.713 100.982 140.713 96.4282C140.713 92.7849 138.795 88.8381 137.836 87.32C140.473 84.6834 140.473 75.8149 138.795 70.7814C137.117 65.7479 135.2 63.5907 134.241 60.2351C133.282 56.8794 133.282 52.3253 133.282 49.9284C133.282 48.0109 135.36 46.7326 136.398 46.3331C136.398 48.0109 136.494 51.5583 136.878 52.3253C137.357 53.2841 140.473 53.7635 141.432 53.0444C142.391 52.3253 142.63 48.2506 142.63 46.3331C142.63 44.7991 140.553 42.9774 139.514 42.2583C140.233 39.8614 141.432 35.3073 141.432 33.1501C141.432 30.9929 140.713 27.6373 140.473 26.1991C140.233 24.761 139.035 22.6038 136.398 20.6863C133.762 18.7688 130.406 20.4466 129.208 20.6863C128.009 20.926 126.331 22.6038 126.092 24.2816C125.852 25.9594 126.331 27.1579 127.05 28.3563C127.77 29.5548 131.365 31.2326 132.084 29.3151C132.803 27.3976 132.084 25.9594 130.406 26.1991C129.064 26.3909 129.048 25.0007 129.208 24.2816C129.687 23.3229 131.365 24.0419 133.282 24.2816C135.2 24.5213 136.398 26.9182 136.878 28.3563C137.357 29.7945 137.836 31.4723 137.836 35.3073C137.836 38.3754 136.878 41.2197 136.398 42.2583C134.96 41.779 133.282 43.4568 131.365 44.6552C129.447 45.8537 129.208 49.449 129.208 52.3253C129.208 55.2016 129.208 56.8794 130.406 60.2351C131.604 63.5907 134.241 68.3845 135.2 70.7814C136.159 73.1783 136.878 82.7659 136.878 83.485C136.878 84.2041 135.919 86.3613 135.2 85.8819C134.481 85.4025 133.282 83.9644 132.084 83.485C130.885 83.0056 127.769 83.0056 127.05 83.9644C126.331 84.9231 126.571 86.1216 127.05 87.32C127.53 88.5185 128.249 88.5185 129.208 89.2375C130.166 89.9566 133.282 89.7169 134.241 89.9566C135.2 90.1963 135.2 91.6344 136.878 94.271C138.556 96.9076 137.836 105.057 137.836 109.132C137.836 113.207 134.241 119.199 133.282 121.116C132.324 123.034 129.927 125.191 129.208 126.869C128.489 128.547 128.728 130.944 129.208 133.34C129.687 135.737 132.084 135.977 134.241 136.456C136.398 136.936 137.836 134.779 138.556 133.34C139.275 131.902 138.316 129.266 137.836 128.547C137.357 127.828 135.919 127.588 135.2 127.588C134.481 127.588 133.282 128.307 133.282 129.266Z" fill="#242246" stroke="black" stroke-width="0.47938"/>
</g>
<defs>
<filter id="filter0_d_100_335" x="0.98584" y="0.760254" width="145.884" height="142.004" filterUnits="userSpaceOnUse" color-interpolation-filters="sRGB">
<feFlood flood-opacity="0" result="BackgroundImageFix"/>
<feColorMatrix in="SourceAlpha" type="matrix" values="0 0 0 0 0 0 0 0 0 0 0 0 0 0 0 0 0 0 127 0" result="hardAlpha"/>
<feOffset dy="2"/>
<feGaussianBlur stdDeviation="2"/>
<feComposite in2="hardAlpha" operator="out"/>
<feColorMatrix type="matrix" values="0 0 0 0 0 0 0 0 0 0 0 0 0 0 0 0 0 0 0.25 0"/>
<feBlend mode="normal" in2="BackgroundImageFix" result="effect1_dropShadow_100_335"/>
<feBlend mode="normal" in="SourceGraphic" in2="effect1_dropShadow_100_335" result="shape"/>
</filter>
</defs>
</svg>
