<svg width="147" height="143" viewBox="0 0 147 143" fill="none" xmlns="http://www.w3.org/2000/svg">
<g filter="url(#filter0_d_100_334)">
<path d="M135.146 10.2531C136.104 10.2531 136.584 10.4928 136.824 12.8897C138.501 13.6087 138.501 12.8897 139.22 12.8897C139.939 12.8897 139.94 10.2531 139.22 9.05459C138.501 7.85611 135.146 8.3355 133.468 9.05459C131.79 9.77369 131.79 11.2118 128.434 12.8897C125.079 14.5675 119.087 16.9643 115.012 17.6834C110.937 18.4025 106.862 17.6834 102.308 17.6834C98.665 17.6834 94.7181 15.7659 93.2 14.8072C90.5634 17.4438 81.6949 17.4437 76.6614 15.7659C71.628 14.0881 69.4707 12.1706 66.1151 11.2118C62.7594 10.2531 58.2053 10.2531 55.8084 10.2531C53.8909 10.2531 52.6126 12.3304 52.2131 13.369C53.8909 13.369 57.4383 13.4649 58.2053 13.8484C59.1641 14.3278 59.6435 17.4437 58.9244 18.4025C58.2053 19.3612 54.1306 19.6009 52.2131 19.6009C50.6791 19.6009 48.8574 17.5236 48.1384 16.4849C45.7415 17.204 41.1873 18.4025 39.0301 18.4025C36.8729 18.4025 33.5173 17.6834 32.0791 17.4437C30.641 17.204 28.4838 16.0056 26.5663 13.369C24.6488 10.7325 26.3266 7.37677 26.5663 6.17836C26.806 4.97994 28.4838 3.30204 30.1616 3.06235C31.8394 2.82266 33.0379 3.30204 34.2364 4.02113C35.4348 4.74022 37.1126 8.33553 35.1951 9.05459C33.2776 9.77366 31.8394 9.05459 32.0791 7.37677C32.2709 6.0345 30.8807 6.01855 30.1616 6.17836C29.2029 6.65777 29.9219 8.33553 30.1616 10.2531C30.4013 12.1706 32.7982 13.369 34.2364 13.8484C35.6745 14.3278 37.3523 14.8072 41.1873 14.8072C44.2554 14.8072 47.0997 13.8484 48.1384 13.369C47.659 11.9308 49.3368 10.2531 50.5352 8.33553C51.7337 6.41797 55.329 6.17836 58.2053 6.17836C61.0816 6.17836 62.7594 6.17836 66.1151 7.37677C69.4707 8.57518 74.2645 11.2118 76.6614 12.1706C79.0583 13.1294 88.6459 13.8484 89.365 13.8484C90.0841 13.8484 92.2413 12.8897 91.7619 12.1706C91.2825 11.4515 89.8444 10.2531 89.365 9.05459C88.8856 7.85611 88.8856 4.7402 89.8444 4.02113C90.8031 3.30206 92.0016 3.54175 93.2 4.02113C94.3985 4.50051 94.3985 5.21958 95.1175 6.17836C95.8366 7.13713 95.5969 10.2531 95.8366 11.2118C96.0763 12.1706 97.5144 12.1706 100.151 13.8484C102.788 15.5262 110.937 14.8072 115.012 14.8072C119.087 14.8072 125.079 11.2118 126.996 10.2531C128.914 9.29432 131.071 6.89742 132.749 6.17836C134.427 5.45929 136.824 5.69898 139.22 6.17836C141.617 6.65774 141.857 9.05463 142.336 11.2118C142.816 13.369 140.659 14.8072 139.22 15.5263C137.782 16.2453 135.146 15.2866 134.427 14.8072C133.708 14.3278 133.468 12.8897 133.468 12.1706C133.468 11.4515 134.187 10.2531 135.146 10.2531Z" fill="#242246" stroke="black" stroke-width="0.47938"/>
<path d="M14.3477 129.266C14.3477 130.224 14.1081 130.704 11.7112 130.944C10.9921 132.621 11.7112 132.621 11.7112 133.34C11.7112 134.059 14.3477 134.06 15.5462 133.34C16.7447 132.621 16.2653 129.266 15.5462 127.588C14.8271 125.91 13.389 125.91 11.7112 122.554C10.0333 119.199 7.6365 113.207 6.91743 109.132C6.19836 105.057 6.91743 100.982 6.91743 96.4282C6.91743 92.7849 8.83491 88.8381 9.79365 87.32C7.15706 84.6834 7.15713 75.8149 8.83495 70.7814C10.5128 65.7479 12.4302 63.5907 13.389 60.2351C14.3478 56.8794 14.3478 52.3253 14.3478 49.9284C14.3478 48.0109 12.2705 46.7326 11.2318 46.3331C11.2318 48.0109 11.1359 51.5583 10.7524 52.3253C10.273 53.2841 7.15713 53.7635 6.19837 53.0444C5.23961 52.3253 4.99992 48.2506 4.99992 46.3331C4.99992 44.7991 7.07723 42.9774 8.11589 42.2583C7.39682 39.8614 6.19837 35.3073 6.19837 33.1501C6.19837 30.9929 6.91744 27.6373 7.15713 26.1991C7.39682 24.761 8.59527 22.6038 11.2318 20.6863C13.8684 18.7688 17.2241 20.4466 18.4225 20.6863C19.6209 20.926 21.2988 22.6038 21.5385 24.2816C21.7782 25.9594 21.2988 27.1579 20.5797 28.3563C19.8606 29.5548 16.2653 31.2326 15.5462 29.3151C14.8272 27.3976 15.5462 25.9594 17.2241 26.1991C18.5663 26.3909 18.5823 25.0007 18.4225 24.2816C17.9431 23.3229 16.2653 24.0419 14.3478 24.2816C12.4302 24.5213 11.2318 26.9182 10.7524 28.3563C10.273 29.7945 9.79365 31.4723 9.79365 35.3073C9.79365 38.3754 10.7524 41.2197 11.2318 42.2583C12.67 41.779 14.3478 43.4568 16.2653 44.6552C18.1829 45.8537 18.4225 49.449 18.4225 52.3253C18.4225 55.2016 18.4225 56.8794 17.2241 60.2351C16.0257 63.5907 13.389 68.3845 12.4302 70.7814C11.4715 73.1783 10.7524 82.7659 10.7524 83.485C10.7524 84.2041 11.7112 86.3613 12.4302 85.8819C13.1493 85.4025 14.3478 83.9644 15.5462 83.485C16.7447 83.0056 19.8606 83.0056 20.5797 83.9644C21.2988 84.9231 21.0591 86.1216 20.5797 87.32C20.1003 88.5185 19.3813 88.5185 18.4225 89.2375C17.4637 89.9566 14.3478 89.7169 13.389 89.9566C12.4302 90.1963 12.4302 91.6344 10.7524 94.271C9.07461 96.9076 9.79364 105.057 9.79364 109.132C9.79364 113.207 13.389 119.199 14.3477 121.116C15.3065 123.034 17.7034 125.191 18.4225 126.869C19.1415 128.547 18.9019 130.944 18.4225 133.34C17.9431 135.737 15.5462 135.977 13.389 136.456C11.2318 136.936 9.79364 134.779 9.07457 133.34C8.3555 131.902 9.31426 129.266 9.79364 128.547C10.273 127.828 11.7112 127.588 12.4302 127.588C13.1493 127.588 14.3477 128.307 14.3477 129.266Z" fill="#242246" stroke="black" stroke-width="0.47938"/>
</g>
<defs>
<filter id="filter0_d_100_334" x="0.760254" y="0.760254" width="145.884" height="142.004" filterUnits="userSpaceOnUse" color-interpolation-filters="sRGB">
<feFlood flood-opacity="0" result="BackgroundImageFix"/>
<feColorMatrix in="SourceAlpha" type="matrix" values="0 0 0 0 0 0 0 0 0 0 0 0 0 0 0 0 0 0 127 0" result="hardAlpha"/>
<feOffset dy="2"/>
<feGaussianBlur stdDeviation="2"/>
<feComposite in2="hardAlpha" operator="out"/>
<feColorMatrix type="matrix" values="0 0 0 0 0 0 0 0 0 0 0 0 0 0 0 0 0 0 0.25 0"/>
<feBlend mode="normal" in2="BackgroundImageFix" result="effect1_dropShadow_100_334"/>
<feBlend mode="normal" in="SourceGraphic" in2="effect1_dropShadow_100_334" result="shape"/>
</filter>
</defs>
</svg>
